M48
; DRILL file {KiCad (5.1.9-0-10_14)} date Thursday, April 15, 2021 at 09:04:52 PM
; FORMAT={-:-/ absolute / inch / decimal}
; #@! TF.CreationDate,2021-04-15T21:04:52+09:00
; #@! TF.GenerationSoftware,Kicad,Pcbnew,(5.1.9-0-10_14)
; #@! TF.FileFunction,Plated,1,2,PTH
FMAT,2
INCH
T1C0.0157
T2C0.0236
T3C0.0298
T4C0.0300
T5C0.0315
T6C0.0394
T7C0.0433
%
G90
G05
T1
X3.3043Y-3.0151
X3.3043Y-4.5899
X3.5405Y-2.7789
X3.5405Y-4.3537
X4.7019Y-3.1135
X4.7019Y-4.6883
X4.7413Y-3.0742
X4.7413Y-4.649
X4.8791Y-3.5072
X4.8791Y-5.082
X5.0365Y-2.9561
X5.0365Y-4.5309
X5.2728Y-3.0151
X5.2728Y-4.5899
X5.509Y-2.7789
X5.509Y-4.3537
X6.6704Y-3.1135
X6.6704Y-4.6883
X6.7098Y-3.0742
X6.7098Y-4.649
X6.8476Y-3.5072
X6.8476Y-5.082
X7.005Y-2.9561
X7.005Y-4.5309
T2
X3.8948Y-3.645
X3.8948Y-3.7041
X3.8948Y-5.2198
X3.8948Y-5.2789
X4.6428Y-2.9364
X4.6428Y-2.9954
X4.6428Y-4.5112
X4.6428Y-4.5702
X4.6822Y-3.6254
X4.6822Y-3.6844
X4.6822Y-5.2002
X4.6822Y-5.2592
X5.8633Y-3.645
X5.8633Y-3.7041
X5.8633Y-5.2198
X5.8633Y-5.2789
X6.6113Y-2.9364
X6.6113Y-2.9954
X6.6113Y-4.5112
X6.6113Y-4.5702
X6.6507Y-3.6254
X6.6507Y-3.6844
X6.6507Y-5.2002
X6.6507Y-5.2592
T3
X4.1281Y-2.7559
X4.1281Y-2.8559
X4.1281Y-2.9559
X4.1281Y-3.0559
X4.1281Y-3.1559
X4.1281Y-3.2559
X4.1281Y-3.3559
X4.1281Y-3.4559
X4.1281Y-3.5559
X4.1281Y-3.6559
X4.1281Y-3.7559
X4.1281Y-3.8559
X4.1281Y-3.9559
X4.1281Y-4.0559
X4.1281Y-4.3307
X4.1281Y-4.4307
X4.1281Y-4.5307
X4.1281Y-4.6307
X4.1281Y-4.7307
X4.1281Y-4.8307
X4.1281Y-4.9307
X4.1281Y-5.0307
X4.1281Y-5.1307
X4.1281Y-5.2307
X4.1281Y-5.3307
X4.1281Y-5.4307
X4.1281Y-5.5307
X4.1281Y-5.6307
X4.4406Y-2.7559
X4.4406Y-2.8559
X4.4406Y-2.9559
X4.4406Y-3.0559
X4.4406Y-3.1559
X4.4406Y-3.2559
X4.4406Y-3.3559
X4.4406Y-3.4559
X4.4406Y-3.5559
X4.4406Y-3.6559
X4.4406Y-3.7559
X4.4406Y-3.8559
X4.4406Y-3.9559
X4.4406Y-4.0559
X4.4406Y-4.3307
X4.4406Y-4.4307
X4.4406Y-4.5307
X4.4406Y-4.6307
X4.4406Y-4.7307
X4.4406Y-4.8307
X4.4406Y-4.9307
X4.4406Y-5.0307
X4.4406Y-5.1307
X4.4406Y-5.2307
X4.4406Y-5.3307
X4.4406Y-5.4307
X4.4406Y-5.5307
X4.4406Y-5.6307
X6.0966Y-2.7559
X6.0966Y-2.8559
X6.0966Y-2.9559
X6.0966Y-3.0559
X6.0966Y-3.1559
X6.0966Y-3.2559
X6.0966Y-3.3559
X6.0966Y-3.4559
X6.0966Y-3.5559
X6.0966Y-3.6559
X6.0966Y-3.7559
X6.0966Y-3.8559
X6.0966Y-3.9559
X6.0966Y-4.0559
X6.0966Y-4.3307
X6.0966Y-4.4307
X6.0966Y-4.5307
X6.0966Y-4.6307
X6.0966Y-4.7307
X6.0966Y-4.8307
X6.0966Y-4.9307
X6.0966Y-5.0307
X6.0966Y-5.1307
X6.0966Y-5.2307
X6.0966Y-5.3307
X6.0966Y-5.4307
X6.0966Y-5.5307
X6.0966Y-5.6307
X6.4091Y-2.7559
X6.4091Y-2.8559
X6.4091Y-2.9559
X6.4091Y-3.0559
X6.4091Y-3.1559
X6.4091Y-3.2559
X6.4091Y-3.3559
X6.4091Y-3.4559
X6.4091Y-3.5559
X6.4091Y-3.6559
X6.4091Y-3.7559
X6.4091Y-3.8559
X6.4091Y-3.9559
X6.4091Y-4.0559
X6.4091Y-4.3307
X6.4091Y-4.4307
X6.4091Y-4.5307
X6.4091Y-4.6307
X6.4091Y-4.7307
X6.4091Y-4.8307
X6.4091Y-4.9307
X6.4091Y-5.0307
X6.4091Y-5.1307
X6.4091Y-5.2307
X6.4091Y-5.3307
X6.4091Y-5.4307
X6.4091Y-5.5307
X6.4091Y-5.6307
T4
X5.0365Y-3.8759
X5.0365Y-3.9759
X5.0365Y-4.0759
X5.0365Y-5.4507
X5.0365Y-5.5507
X5.0365Y-5.6507
X7.005Y-3.8759
X7.005Y-3.9759
X7.005Y-4.0759
X7.005Y-5.4507
X7.005Y-5.5507
X7.005Y-5.6507
T5
X3.5343Y-2.9059
X3.5343Y-3.2059
X3.5343Y-3.7559
X3.5343Y-4.0559
X3.5343Y-4.4807
X3.5343Y-4.7807
X3.5343Y-5.3307
X3.5343Y-5.6307
X3.6843Y-2.7559
X3.6843Y-2.9059
X3.6843Y-3.0059
X3.6843Y-3.1059
X3.6843Y-3.2059
X3.6843Y-4.3307
X3.6843Y-4.4807
X3.6843Y-4.5807
X3.6843Y-4.6807
X3.6843Y-4.7807
X3.9843Y-2.7559
X3.9843Y-2.9059
X3.9843Y-3.0059
X3.9843Y-3.1059
X3.9843Y-3.2059
X3.9843Y-4.3307
X3.9843Y-4.4807
X3.9843Y-4.5807
X3.9843Y-4.6807
X3.9843Y-4.7807
X4.8943Y-3.3559
X4.8943Y-3.6559
X4.8943Y-4.9307
X4.8943Y-5.2307
X5.5028Y-2.9059
X5.5028Y-3.2059
X5.5028Y-3.7559
X5.5028Y-4.0559
X5.5028Y-4.4807
X5.5028Y-4.7807
X5.5028Y-5.3307
X5.5028Y-5.6307
X5.6528Y-2.7559
X5.6528Y-2.9059
X5.6528Y-3.0059
X5.6528Y-3.1059
X5.6528Y-3.2059
X5.6528Y-4.3307
X5.6528Y-4.4807
X5.6528Y-4.5807
X5.6528Y-4.6807
X5.6528Y-4.7807
X5.9528Y-2.7559
X5.9528Y-2.9059
X5.9528Y-3.0059
X5.9528Y-3.1059
X5.9528Y-3.2059
X5.9528Y-4.3307
X5.9528Y-4.4807
X5.9528Y-4.5807
X5.9528Y-4.6807
X5.9528Y-4.7807
X6.8628Y-3.3559
X6.8628Y-3.6559
X6.8628Y-4.9307
X6.8628Y-5.2307
T6
X3.5343Y-3.4059
X3.5343Y-3.6028
X3.5343Y-4.9807
X3.5343Y-5.1776
X3.7843Y-3.4059
X3.7843Y-4.9807
X3.9812Y-3.4059
X3.9812Y-4.9807
X5.5028Y-3.4059
X5.5028Y-3.6028
X5.5028Y-4.9807
X5.5028Y-5.1776
X5.7528Y-3.4059
X5.7528Y-4.9807
X5.9497Y-3.4059
X5.9497Y-4.9807
T7
X3.7343Y-3.8559
X3.7343Y-4.0331
X3.7343Y-5.4307
X3.7343Y-5.6079
X3.9902Y-3.8559
X3.9902Y-4.0331
X3.9902Y-5.4307
X3.9902Y-5.6079
X4.5784Y-3.8787
X4.5784Y-4.0559
X4.5784Y-5.4535
X4.5784Y-5.6307
X4.8343Y-3.8787
X4.8343Y-4.0559
X4.8343Y-5.4535
X4.8343Y-5.6307
X5.7028Y-3.8559
X5.7028Y-4.0331
X5.7028Y-5.4307
X5.7028Y-5.6079
X5.9587Y-3.8559
X5.9587Y-4.0331
X5.9587Y-5.4307
X5.9587Y-5.6079
X6.5469Y-3.8787
X6.5469Y-4.0559
X6.5469Y-5.4535
X6.5469Y-5.6307
X6.8028Y-3.8787
X6.8028Y-4.0559
X6.8028Y-5.4535
X6.8028Y-5.6307
T0
M30
