%TF.GenerationSoftware,KiCad,Pcbnew,(5.1.9-0-10_14)*%
%TF.CreationDate,2021-04-15T17:53:14+09:00*%
%TF.ProjectId,RadioExercise,52616469-6f45-4786-9572-636973652e6b,rev?*%
%TF.SameCoordinates,Original*%
%TF.FileFunction,Copper,L1,Top*%
%TF.FilePolarity,Positive*%
%FSLAX46Y46*%
G04 Gerber Fmt 4.6, Leading zero omitted, Abs format (unit mm)*
G04 Created by KiCad (PCBNEW (5.1.9-0-10_14)) date 2021-04-15 17:53:14*
%MOMM*%
%LPD*%
G01*
G04 APERTURE LIST*
%TA.AperFunction,ComponentPad*%
%ADD10C,2.000000*%
%TD*%
%TA.AperFunction,ComponentPad*%
%ADD11C,1.200000*%
%TD*%
%TA.AperFunction,ComponentPad*%
%ADD12R,1.200000X1.200000*%
%TD*%
%TA.AperFunction,ComponentPad*%
%ADD13O,1.600000X1.600000*%
%TD*%
%TA.AperFunction,ComponentPad*%
%ADD14R,1.600000X1.600000*%
%TD*%
%TA.AperFunction,ComponentPad*%
%ADD15C,1.158000*%
%TD*%
%TA.AperFunction,ComponentPad*%
%ADD16R,1.158000X1.158000*%
%TD*%
%TA.AperFunction,SMDPad,CuDef*%
%ADD17R,0.700000X1.550000*%
%TD*%
%TA.AperFunction,ComponentPad*%
%ADD18C,1.600000*%
%TD*%
%TA.AperFunction,ComponentPad*%
%ADD19C,1.524000*%
%TD*%
%TA.AperFunction,ComponentPad*%
%ADD20R,1.524000X1.524000*%
%TD*%
%TA.AperFunction,ViaPad*%
%ADD21C,0.800000*%
%TD*%
%TA.AperFunction,Conductor*%
%ADD22C,0.250000*%
%TD*%
%TA.AperFunction,Conductor*%
%ADD23C,0.500000*%
%TD*%
%TA.AperFunction,Conductor*%
%ADD24C,0.254000*%
%TD*%
%TA.AperFunction,Conductor*%
%ADD25C,0.100000*%
%TD*%
G04 APERTURE END LIST*
D10*
%TO.P,C1,2*%
%TO.N,Net-(C1-Pad2)*%
X177844000Y-75426000D03*
%TO.P,C1,1*%
%TO.N,Net-(C1-Pad1)*%
X177844000Y-70426000D03*
%TD*%
D11*
%TO.P,C2,2*%
%TO.N,GND*%
X187000000Y-76500000D03*
D12*
%TO.P,C2,1*%
%TO.N,VDD*%
X187000000Y-78000000D03*
%TD*%
%TO.P,C3,1*%
%TO.N,VDD*%
X207000000Y-76000000D03*
D11*
%TO.P,C3,2*%
%TO.N,GND*%
X207000000Y-77500000D03*
%TD*%
D10*
%TO.P,C4,1*%
%TO.N,Net-(C4-Pad1)*%
X184194000Y-70426000D03*
%TO.P,C4,2*%
%TO.N,GND*%
X189194000Y-70426000D03*
%TD*%
D11*
%TO.P,C5,2*%
%TO.N,GND*%
X206000000Y-58500000D03*
D12*
%TO.P,C5,1*%
%TO.N,VDD*%
X206000000Y-60000000D03*
%TD*%
D13*
%TO.P,IC1,8*%
%TO.N,VDD*%
X189274000Y-57726000D03*
%TO.P,IC1,4*%
%TO.N,GND*%
X181654000Y-65346000D03*
%TO.P,IC1,7*%
%TO.N,Net-(IC1-Pad7)*%
X189274000Y-60266000D03*
%TO.P,IC1,3*%
%TO.N,Net-(C4-Pad1)*%
X181654000Y-62806000D03*
%TO.P,IC1,6*%
%TO.N,Net-(IC1-Pad6)*%
X189274000Y-62806000D03*
%TO.P,IC1,2*%
%TO.N,Net-(C1-Pad2)*%
X181654000Y-60266000D03*
%TO.P,IC1,5*%
%TO.N,Net-(IC1-Pad5)*%
X189274000Y-65346000D03*
D14*
%TO.P,IC1,1*%
%TO.N,Net-(IC1-Pad1)*%
X181654000Y-57726000D03*
%TD*%
D15*
%TO.P,IC2,28*%
%TO.N,Net-(IC2-Pad28)*%
X200863000Y-53916000D03*
%TO.P,IC2,27*%
%TO.N,Net-(IC2-Pad27)*%
X200863000Y-56456000D03*
%TO.P,IC2,26*%
%TO.N,Net-(IC2-Pad26)*%
X200863000Y-58996000D03*
%TO.P,IC2,25*%
%TO.N,Net-(IC2-Pad25)*%
X200863000Y-61536000D03*
%TO.P,IC2,24*%
%TO.N,Net-(IC2-Pad24)*%
X200863000Y-64076000D03*
%TO.P,IC2,23*%
%TO.N,Net-(IC2-Pad23)*%
X200863000Y-66616000D03*
%TO.P,IC2,22*%
%TO.N,Net-(IC2-Pad22)*%
X200863000Y-69156000D03*
%TO.P,IC2,21*%
%TO.N,Net-(IC2-Pad21)*%
X200863000Y-71696000D03*
%TO.P,IC2,20*%
%TO.N,VDD*%
X200863000Y-74236000D03*
%TO.P,IC2,19*%
%TO.N,GND*%
X200863000Y-76776000D03*
%TO.P,IC2,18*%
%TO.N,Net-(IC2-Pad18)*%
X200863000Y-79316000D03*
%TO.P,IC2,17*%
%TO.N,Net-(IC2-Pad17)*%
X200863000Y-81856000D03*
%TO.P,IC2,16*%
%TO.N,Net-(IC2-Pad16)*%
X200863000Y-84396000D03*
%TO.P,IC2,15*%
%TO.N,Net-(IC2-Pad15)*%
X200863000Y-86936000D03*
%TO.P,IC2,14*%
%TO.N,Net-(IC1-Pad5)*%
X192925000Y-86936000D03*
%TO.P,IC2,13*%
%TO.N,Net-(IC2-Pad13)*%
X192925000Y-84396000D03*
%TO.P,IC2,12*%
%TO.N,Net-(IC2-Pad12)*%
X192925000Y-81856000D03*
%TO.P,IC2,11*%
%TO.N,GND*%
X192925000Y-79316000D03*
%TO.P,IC2,10*%
%TO.N,Net-(IC2-Pad10)*%
X192925000Y-76776000D03*
%TO.P,IC2,9*%
%TO.N,Net-(IC2-Pad9)*%
X192925000Y-74236000D03*
%TO.P,IC2,8*%
%TO.N,GND*%
X192925000Y-71696000D03*
%TO.P,IC2,7*%
%TO.N,Net-(IC2-Pad7)*%
X192925000Y-69156000D03*
%TO.P,IC2,6*%
%TO.N,Net-(IC2-Pad6)*%
X192925000Y-66616000D03*
%TO.P,IC2,5*%
%TO.N,Net-(IC2-Pad5)*%
X192925000Y-64076000D03*
%TO.P,IC2,4*%
%TO.N,Net-(IC2-Pad4)*%
X192925000Y-61536000D03*
%TO.P,IC2,3*%
%TO.N,Net-(IC2-Pad3)*%
X192925000Y-58996000D03*
%TO.P,IC2,2*%
%TO.N,Net-(IC2-Pad2)*%
X192925000Y-56456000D03*
D16*
%TO.P,IC2,1*%
%TO.N,Net-(IC2-Pad1)*%
X192925000Y-53916000D03*
%TD*%
D17*
%TO.P,IC3,8*%
%TO.N,VDD*%
X205095000Y-65350000D03*
%TO.P,IC3,7*%
X206365000Y-65350000D03*
%TO.P,IC3,6*%
%TO.N,Net-(IC2-Pad23)*%
X207635000Y-65350000D03*
%TO.P,IC3,5*%
%TO.N,Net-(IC2-Pad25)*%
X208905000Y-65350000D03*
%TO.P,IC3,4*%
%TO.N,GND*%
X208905000Y-72650000D03*
%TO.P,IC3,3*%
%TO.N,VDD*%
X207635000Y-72650000D03*
%TO.P,IC3,2*%
%TO.N,Net-(IC2-Pad24)*%
X206365000Y-72650000D03*
%TO.P,IC3,1*%
%TO.N,Net-(IC2-Pad22)*%
X205095000Y-72650000D03*
%TD*%
D18*
%TO.P,R2,1*%
%TO.N,Net-(IC2-Pad12)*%
X177844000Y-86936000D03*
D13*
%TO.P,R2,2*%
%TO.N,GND*%
X177844000Y-79316000D03*
%TD*%
%TO.P,R3,2*%
%TO.N,GND*%
X212388000Y-69156000D03*
D18*
%TO.P,R3,1*%
%TO.N,Net-(IC2-Pad13)*%
X212388000Y-76776000D03*
%TD*%
D13*
%TO.P,R4,2*%
%TO.N,Net-(C1-Pad1)*%
X177844000Y-65346000D03*
D18*
%TO.P,R4,1*%
%TO.N,Net-(IC2-Pad3)*%
X177844000Y-57726000D03*
%TD*%
%TO.P,R5,1*%
%TO.N,VDD*%
X181654000Y-53916000D03*
D13*
%TO.P,R5,2*%
%TO.N,Net-(IC2-Pad1)*%
X189274000Y-53916000D03*
%TD*%
D10*
%TO.P,SW1,1*%
%TO.N,VDD*%
X189424000Y-81856000D03*
%TO.P,SW1,2*%
%TO.N,Net-(IC2-Pad12)*%
X189424000Y-86356000D03*
%TO.P,SW1,1*%
%TO.N,VDD*%
X182924000Y-81856000D03*
%TO.P,SW1,2*%
%TO.N,Net-(IC2-Pad12)*%
X182924000Y-86356000D03*
%TD*%
%TO.P,SW2,2*%
%TO.N,Net-(IC2-Pad13)*%
X210864000Y-82436000D03*
%TO.P,SW2,1*%
%TO.N,VDD*%
X210864000Y-86936000D03*
%TO.P,SW2,2*%
%TO.N,Net-(IC2-Pad13)*%
X204364000Y-82436000D03*
%TO.P,SW2,1*%
%TO.N,VDD*%
X204364000Y-86936000D03*
%TD*%
D19*
%TO.P,SW5,3*%
%TO.N,Net-(J1-Pad2)*%
X216000000Y-82364000D03*
%TO.P,SW5,2*%
%TO.N,VDD*%
X216000000Y-84904000D03*
D20*
%TO.P,SW5,1*%
%TO.N,Net-(SW5-Pad1)*%
X216000000Y-87444000D03*
%TD*%
D21*
%TO.N,GND*%
X212000000Y-73000000D03*
%TO.N,Net-(IC1-Pad1)*%
X172000000Y-60500000D03*
%TO.N,Net-(IC1-Pad7)*%
X178000000Y-54500000D03*
%TO.N,Net-(IC2-Pad23)*%
X207500000Y-63000000D03*
%TO.N,Net-(IC2-Pad25)*%
X208500000Y-62000000D03*
%TO.N,Net-(J1-Pad2)*%
X216000000Y-59000000D03*
%TD*%
D22*
%TO.N,Net-(C1-Pad1)*%
X177844000Y-65346000D02*
X177844000Y-70426000D01*
%TO.N,Net-(C1-Pad2)*%
X179169001Y-74100999D02*
X177844000Y-75426000D01*
X179169001Y-62750999D02*
X179169001Y-74100999D01*
X181654000Y-60266000D02*
X179169001Y-62750999D01*
D23*
%TO.N,VDD*%
X212896000Y-84904000D02*
X210864000Y-86936000D01*
X216000000Y-84904000D02*
X212896000Y-84904000D01*
X210864000Y-86936000D02*
X204364000Y-86936000D01*
X207635000Y-75365000D02*
X207635000Y-72650000D01*
X207000000Y-76000000D02*
X207635000Y-75365000D01*
X202627000Y-76000000D02*
X200863000Y-74236000D01*
X207000000Y-76000000D02*
X202627000Y-76000000D01*
X206365000Y-65350000D02*
X205095000Y-65350000D01*
X206365000Y-70714998D02*
X207635000Y-71984998D01*
X207635000Y-71984998D02*
X207635000Y-72650000D01*
X206365000Y-65350000D02*
X206365000Y-70714998D01*
X206000000Y-64985000D02*
X206365000Y-65350000D01*
X206000000Y-60000000D02*
X206000000Y-64985000D01*
X206000000Y-60000000D02*
X205500000Y-60500000D01*
X187000000Y-79432000D02*
X189424000Y-81856000D01*
X187000000Y-78000000D02*
X187000000Y-79432000D01*
X186780000Y-78000000D02*
X182924000Y-81856000D01*
X187000000Y-78000000D02*
X186780000Y-78000000D01*
X185464000Y-57726000D02*
X181654000Y-53916000D01*
X189274000Y-57726000D02*
X185464000Y-57726000D01*
X191573001Y-60025001D02*
X189274000Y-57726000D01*
X205974999Y-60025001D02*
X191573001Y-60025001D01*
X206000000Y-60000000D02*
X205974999Y-60025001D01*
X190453001Y-80826999D02*
X189424000Y-81856000D01*
X194272001Y-80826999D02*
X190453001Y-80826999D01*
X200863000Y-74236000D02*
X194272001Y-80826999D01*
X207096000Y-76000000D02*
X207000000Y-76000000D01*
X216000000Y-84904000D02*
X207096000Y-76000000D01*
X216000000Y-84904000D02*
X216096000Y-84904000D01*
%TO.N,GND*%
X209255000Y-73000000D02*
X208905000Y-72650000D01*
X212000000Y-73000000D02*
X209255000Y-73000000D01*
D22*
%TO.N,Net-(C4-Pad1)*%
X181654000Y-63680998D02*
X181654000Y-62806000D01*
X184194000Y-66220998D02*
X181654000Y-63680998D01*
X184194000Y-70426000D02*
X184194000Y-66220998D01*
%TO.N,Net-(IC1-Pad1)*%
X177830000Y-60500000D02*
X172000000Y-60500000D01*
X180604000Y-57726000D02*
X177830000Y-60500000D01*
X181654000Y-57726000D02*
X180604000Y-57726000D01*
%TO.N,Net-(IC1-Pad5)*%
X191799999Y-88061001D02*
X192925000Y-86936000D01*
X177303999Y-88061001D02*
X191799999Y-88061001D01*
X176718999Y-86395999D02*
X176718999Y-87476001D01*
X181598999Y-74982003D02*
X181598999Y-81515999D01*
X181598999Y-81515999D02*
X176718999Y-86395999D01*
X189274000Y-67307002D02*
X181598999Y-74982003D01*
X176718999Y-87476001D02*
X177303999Y-88061001D01*
X189274000Y-65346000D02*
X189274000Y-67307002D01*
%TO.N,Net-(IC1-Pad7)*%
X178000000Y-54500000D02*
X175500000Y-54500000D01*
X175500000Y-54500000D02*
X174500000Y-55500000D01*
%TO.N,Net-(IC2-Pad1)*%
X192925000Y-53916000D02*
X189274000Y-53916000D01*
%TO.N,Net-(IC2-Pad3)*%
X181113999Y-52790999D02*
X177844000Y-56060998D01*
X192209002Y-58996000D02*
X186004001Y-52790999D01*
X177844000Y-56060998D02*
X177844000Y-57726000D01*
X186004001Y-52790999D02*
X181113999Y-52790999D01*
X192925000Y-58996000D02*
X192209002Y-58996000D01*
%TO.N,Net-(IC2-Pad12)*%
X192925000Y-82855000D02*
X189424000Y-86356000D01*
X192925000Y-81856000D02*
X192925000Y-82855000D01*
X189424000Y-86356000D02*
X182924000Y-86356000D01*
X178424000Y-86356000D02*
X177844000Y-86936000D01*
X182924000Y-86356000D02*
X178424000Y-86356000D01*
%TO.N,Net-(IC2-Pad13)*%
X210864000Y-82436000D02*
X204364000Y-82436000D01*
X193885001Y-83435999D02*
X192925000Y-84396000D01*
X203364001Y-83435999D02*
X193885001Y-83435999D01*
X204364000Y-82436000D02*
X203364001Y-83435999D01*
%TO.N,Net-(IC2-Pad22)*%
X204357000Y-72650000D02*
X200863000Y-69156000D01*
X205095000Y-72650000D02*
X204357000Y-72650000D01*
%TO.N,Net-(IC2-Pad23)*%
X207635000Y-63135000D02*
X207500000Y-63000000D01*
X207635000Y-65350000D02*
X207635000Y-63135000D01*
%TO.N,Net-(IC2-Pad24)*%
X201767001Y-64980001D02*
X200863000Y-64076000D01*
X206365000Y-71528184D02*
X201767001Y-66930185D01*
X201767001Y-66930185D02*
X201767001Y-64980001D01*
X206365000Y-72650000D02*
X206365000Y-71528184D01*
%TO.N,Net-(IC2-Pad25)*%
X208905000Y-62405000D02*
X208500000Y-62000000D01*
X208905000Y-65350000D02*
X208905000Y-62405000D01*
D23*
%TO.N,Net-(J1-Pad2)*%
X217212001Y-60212001D02*
X217212001Y-81151999D01*
X217212001Y-81151999D02*
X216000000Y-82364000D01*
X216000000Y-59000000D02*
X217212001Y-60212001D01*
%TD*%
D24*
%TO.N,VDD*%
X219340001Y-89340000D02*
X170660000Y-89340000D01*
X170660000Y-79174665D01*
X176409000Y-79174665D01*
X176409000Y-79457335D01*
X176464147Y-79734574D01*
X176572320Y-79995727D01*
X176729363Y-80230759D01*
X176929241Y-80430637D01*
X177164273Y-80587680D01*
X177425426Y-80695853D01*
X177702665Y-80751000D01*
X177985335Y-80751000D01*
X178262574Y-80695853D01*
X178523727Y-80587680D01*
X178758759Y-80430637D01*
X178958637Y-80230759D01*
X179115680Y-79995727D01*
X179223853Y-79734574D01*
X179279000Y-79457335D01*
X179279000Y-79174665D01*
X179223853Y-78897426D01*
X179115680Y-78636273D01*
X178958637Y-78401241D01*
X178758759Y-78201363D01*
X178523727Y-78044320D01*
X178262574Y-77936147D01*
X177985335Y-77881000D01*
X177702665Y-77881000D01*
X177425426Y-77936147D01*
X177164273Y-78044320D01*
X176929241Y-78201363D01*
X176729363Y-78401241D01*
X176572320Y-78636273D01*
X176464147Y-78897426D01*
X176409000Y-79174665D01*
X170660000Y-79174665D01*
X170660000Y-60398061D01*
X170965000Y-60398061D01*
X170965000Y-60601939D01*
X171004774Y-60801898D01*
X171082795Y-60990256D01*
X171196063Y-61159774D01*
X171340226Y-61303937D01*
X171509744Y-61417205D01*
X171698102Y-61495226D01*
X171898061Y-61535000D01*
X172101939Y-61535000D01*
X172301898Y-61495226D01*
X172490256Y-61417205D01*
X172659774Y-61303937D01*
X172703711Y-61260000D01*
X177792678Y-61260000D01*
X177830000Y-61263676D01*
X177867322Y-61260000D01*
X177867333Y-61260000D01*
X177978986Y-61249003D01*
X178122247Y-61205546D01*
X178254276Y-61134974D01*
X178370001Y-61040001D01*
X178393804Y-61010997D01*
X180416438Y-58988365D01*
X180499506Y-59056537D01*
X180609820Y-59115502D01*
X180729518Y-59151812D01*
X180737961Y-59152643D01*
X180539363Y-59351241D01*
X180382320Y-59586273D01*
X180274147Y-59847426D01*
X180219000Y-60124665D01*
X180219000Y-60407335D01*
X180255312Y-60589886D01*
X178658004Y-62187195D01*
X178629000Y-62210998D01*
X178592057Y-62256014D01*
X178534027Y-62326723D01*
X178479116Y-62429454D01*
X178463455Y-62458753D01*
X178419998Y-62602014D01*
X178409001Y-62713667D01*
X178409001Y-62713677D01*
X178405325Y-62750999D01*
X178409001Y-62788321D01*
X178409001Y-64026799D01*
X178262574Y-63966147D01*
X177985335Y-63911000D01*
X177702665Y-63911000D01*
X177425426Y-63966147D01*
X177164273Y-64074320D01*
X176929241Y-64231363D01*
X176729363Y-64431241D01*
X176572320Y-64666273D01*
X176464147Y-64927426D01*
X176409000Y-65204665D01*
X176409000Y-65487335D01*
X176464147Y-65764574D01*
X176572320Y-66025727D01*
X176729363Y-66260759D01*
X176929241Y-66460637D01*
X177084000Y-66564044D01*
X177084001Y-68971091D01*
X177069537Y-68977082D01*
X176801748Y-69156013D01*
X176574013Y-69383748D01*
X176395082Y-69651537D01*
X176271832Y-69949088D01*
X176209000Y-70264967D01*
X176209000Y-70587033D01*
X176271832Y-70902912D01*
X176395082Y-71200463D01*
X176574013Y-71468252D01*
X176801748Y-71695987D01*
X177069537Y-71874918D01*
X177367088Y-71998168D01*
X177682967Y-72061000D01*
X178005033Y-72061000D01*
X178320912Y-71998168D01*
X178409002Y-71961680D01*
X178409002Y-73786195D01*
X178335375Y-73859823D01*
X178320912Y-73853832D01*
X178005033Y-73791000D01*
X177682967Y-73791000D01*
X177367088Y-73853832D01*
X177069537Y-73977082D01*
X176801748Y-74156013D01*
X176574013Y-74383748D01*
X176395082Y-74651537D01*
X176271832Y-74949088D01*
X176209000Y-75264967D01*
X176209000Y-75587033D01*
X176271832Y-75902912D01*
X176395082Y-76200463D01*
X176574013Y-76468252D01*
X176801748Y-76695987D01*
X177069537Y-76874918D01*
X177367088Y-76998168D01*
X177682967Y-77061000D01*
X178005033Y-77061000D01*
X178320912Y-76998168D01*
X178618463Y-76874918D01*
X178886252Y-76695987D01*
X179113987Y-76468252D01*
X179292918Y-76200463D01*
X179416168Y-75902912D01*
X179479000Y-75587033D01*
X179479000Y-75264967D01*
X179416168Y-74949088D01*
X179410177Y-74934625D01*
X179680009Y-74664794D01*
X179709002Y-74641000D01*
X179732796Y-74612007D01*
X179732800Y-74612003D01*
X179803974Y-74525276D01*
X179832985Y-74471001D01*
X179874547Y-74393246D01*
X179918004Y-74249985D01*
X179929001Y-74138332D01*
X179929001Y-74138323D01*
X179932677Y-74101000D01*
X179929001Y-74063677D01*
X179929001Y-63065800D01*
X180219000Y-62775801D01*
X180219000Y-62947335D01*
X180274147Y-63224574D01*
X180382320Y-63485727D01*
X180539363Y-63720759D01*
X180739241Y-63920637D01*
X180971759Y-64076000D01*
X180739241Y-64231363D01*
X180539363Y-64431241D01*
X180382320Y-64666273D01*
X180274147Y-64927426D01*
X180219000Y-65204665D01*
X180219000Y-65487335D01*
X180274147Y-65764574D01*
X180382320Y-66025727D01*
X180539363Y-66260759D01*
X180739241Y-66460637D01*
X180974273Y-66617680D01*
X181235426Y-66725853D01*
X181512665Y-66781000D01*
X181795335Y-66781000D01*
X182072574Y-66725853D01*
X182333727Y-66617680D01*
X182568759Y-66460637D01*
X182768637Y-66260759D01*
X182924978Y-66026778D01*
X183434001Y-66535802D01*
X183434000Y-68971091D01*
X183419537Y-68977082D01*
X183151748Y-69156013D01*
X182924013Y-69383748D01*
X182745082Y-69651537D01*
X182621832Y-69949088D01*
X182559000Y-70264967D01*
X182559000Y-70587033D01*
X182621832Y-70902912D01*
X182745082Y-71200463D01*
X182924013Y-71468252D01*
X183151748Y-71695987D01*
X183419537Y-71874918D01*
X183569264Y-71936937D01*
X181088002Y-74418199D01*
X181058998Y-74442002D01*
X181003870Y-74509177D01*
X180964025Y-74557727D01*
X180913882Y-74651537D01*
X180893453Y-74689757D01*
X180849996Y-74833018D01*
X180838999Y-74944671D01*
X180838999Y-74944681D01*
X180835323Y-74982003D01*
X180838999Y-75019326D01*
X180839000Y-81201196D01*
X176208002Y-85832195D01*
X176178998Y-85855998D01*
X176123870Y-85923173D01*
X176084025Y-85971723D01*
X176038877Y-86056188D01*
X176013453Y-86103753D01*
X175969996Y-86247014D01*
X175958999Y-86358667D01*
X175958999Y-86358677D01*
X175955323Y-86395999D01*
X175958999Y-86433322D01*
X175959000Y-87438669D01*
X175955323Y-87476001D01*
X175959000Y-87513334D01*
X175969997Y-87624987D01*
X175973558Y-87636725D01*
X176013453Y-87768247D01*
X176084025Y-87900277D01*
X176155200Y-87987003D01*
X176178999Y-88016002D01*
X176207997Y-88039800D01*
X176740199Y-88572003D01*
X176763998Y-88601002D01*
X176792996Y-88624800D01*
X176879722Y-88695975D01*
X176955608Y-88736537D01*
X177011752Y-88766547D01*
X177155013Y-88810004D01*
X177266666Y-88821001D01*
X177266676Y-88821001D01*
X177303999Y-88824677D01*
X177341322Y-88821001D01*
X191762677Y-88821001D01*
X191799999Y-88824677D01*
X191837321Y-88821001D01*
X191837332Y-88821001D01*
X191948985Y-88810004D01*
X192092246Y-88766547D01*
X192224275Y-88695975D01*
X192340000Y-88601002D01*
X192363803Y-88571999D01*
X192789058Y-88146743D01*
X192805431Y-88150000D01*
X193044569Y-88150000D01*
X193279111Y-88103347D01*
X193500045Y-88011833D01*
X193698880Y-87878975D01*
X193867975Y-87709880D01*
X194000833Y-87511045D01*
X194092347Y-87290111D01*
X194139000Y-87055569D01*
X194139000Y-86816431D01*
X199649000Y-86816431D01*
X199649000Y-87055569D01*
X199695653Y-87290111D01*
X199787167Y-87511045D01*
X199920025Y-87709880D01*
X200089120Y-87878975D01*
X200287955Y-88011833D01*
X200508889Y-88103347D01*
X200743431Y-88150000D01*
X200982569Y-88150000D01*
X201217111Y-88103347D01*
X201294206Y-88071413D01*
X203408192Y-88071413D01*
X203503956Y-88335814D01*
X203793571Y-88476704D01*
X204105108Y-88558384D01*
X204426595Y-88577718D01*
X204745675Y-88533961D01*
X205050088Y-88428795D01*
X205224044Y-88335814D01*
X205319808Y-88071413D01*
X209908192Y-88071413D01*
X210003956Y-88335814D01*
X210293571Y-88476704D01*
X210605108Y-88558384D01*
X210926595Y-88577718D01*
X211245675Y-88533961D01*
X211550088Y-88428795D01*
X211724044Y-88335814D01*
X211819808Y-88071413D01*
X210864000Y-87115605D01*
X209908192Y-88071413D01*
X205319808Y-88071413D01*
X204364000Y-87115605D01*
X203408192Y-88071413D01*
X201294206Y-88071413D01*
X201438045Y-88011833D01*
X201636880Y-87878975D01*
X201805975Y-87709880D01*
X201938833Y-87511045D01*
X202030347Y-87290111D01*
X202077000Y-87055569D01*
X202077000Y-86998595D01*
X202722282Y-86998595D01*
X202766039Y-87317675D01*
X202871205Y-87622088D01*
X202964186Y-87796044D01*
X203228587Y-87891808D01*
X204184395Y-86936000D01*
X204543605Y-86936000D01*
X205499413Y-87891808D01*
X205763814Y-87796044D01*
X205904704Y-87506429D01*
X205986384Y-87194892D01*
X205998189Y-86998595D01*
X209222282Y-86998595D01*
X209266039Y-87317675D01*
X209371205Y-87622088D01*
X209464186Y-87796044D01*
X209728587Y-87891808D01*
X210684395Y-86936000D01*
X211043605Y-86936000D01*
X211999413Y-87891808D01*
X212263814Y-87796044D01*
X212404704Y-87506429D01*
X212486384Y-87194892D01*
X212505718Y-86873405D01*
X212479470Y-86682000D01*
X214599928Y-86682000D01*
X214599928Y-88206000D01*
X214612188Y-88330482D01*
X214648498Y-88450180D01*
X214707463Y-88560494D01*
X214786815Y-88657185D01*
X214883506Y-88736537D01*
X214993820Y-88795502D01*
X215113518Y-88831812D01*
X215238000Y-88844072D01*
X216762000Y-88844072D01*
X216886482Y-88831812D01*
X217006180Y-88795502D01*
X217116494Y-88736537D01*
X217213185Y-88657185D01*
X217292537Y-88560494D01*
X217351502Y-88450180D01*
X217387812Y-88330482D01*
X217400072Y-88206000D01*
X217400072Y-86682000D01*
X217387812Y-86557518D01*
X217351502Y-86437820D01*
X217292537Y-86327506D01*
X217213185Y-86230815D01*
X217116494Y-86151463D01*
X217006180Y-86092498D01*
X216886482Y-86056188D01*
X216762000Y-86043928D01*
X216737317Y-86043928D01*
X216785960Y-85869565D01*
X216000000Y-85083605D01*
X215214040Y-85869565D01*
X215262683Y-86043928D01*
X215238000Y-86043928D01*
X215113518Y-86056188D01*
X214993820Y-86092498D01*
X214883506Y-86151463D01*
X214786815Y-86230815D01*
X214707463Y-86327506D01*
X214648498Y-86437820D01*
X214612188Y-86557518D01*
X214599928Y-86682000D01*
X212479470Y-86682000D01*
X212461961Y-86554325D01*
X212356795Y-86249912D01*
X212263814Y-86075956D01*
X211999413Y-85980192D01*
X211043605Y-86936000D01*
X210684395Y-86936000D01*
X209728587Y-85980192D01*
X209464186Y-86075956D01*
X209323296Y-86365571D01*
X209241616Y-86677108D01*
X209222282Y-86998595D01*
X205998189Y-86998595D01*
X206005718Y-86873405D01*
X205961961Y-86554325D01*
X205856795Y-86249912D01*
X205763814Y-86075956D01*
X205499413Y-85980192D01*
X204543605Y-86936000D01*
X204184395Y-86936000D01*
X203228587Y-85980192D01*
X202964186Y-86075956D01*
X202823296Y-86365571D01*
X202741616Y-86677108D01*
X202722282Y-86998595D01*
X202077000Y-86998595D01*
X202077000Y-86816431D01*
X202030347Y-86581889D01*
X201938833Y-86360955D01*
X201805975Y-86162120D01*
X201636880Y-85993025D01*
X201438045Y-85860167D01*
X201294207Y-85800587D01*
X203408192Y-85800587D01*
X204364000Y-86756395D01*
X205319808Y-85800587D01*
X209908192Y-85800587D01*
X210864000Y-86756395D01*
X211819808Y-85800587D01*
X211724044Y-85536186D01*
X211434429Y-85395296D01*
X211122892Y-85313616D01*
X210801405Y-85294282D01*
X210482325Y-85338039D01*
X210177912Y-85443205D01*
X210003956Y-85536186D01*
X209908192Y-85800587D01*
X205319808Y-85800587D01*
X205224044Y-85536186D01*
X204934429Y-85395296D01*
X204622892Y-85313616D01*
X204301405Y-85294282D01*
X203982325Y-85338039D01*
X203677912Y-85443205D01*
X203503956Y-85536186D01*
X203408192Y-85800587D01*
X201294207Y-85800587D01*
X201217111Y-85768653D01*
X200982569Y-85722000D01*
X200743431Y-85722000D01*
X200508889Y-85768653D01*
X200287955Y-85860167D01*
X200089120Y-85993025D01*
X199920025Y-86162120D01*
X199787167Y-86360955D01*
X199695653Y-86581889D01*
X199649000Y-86816431D01*
X194139000Y-86816431D01*
X194092347Y-86581889D01*
X194000833Y-86360955D01*
X193867975Y-86162120D01*
X193698880Y-85993025D01*
X193500045Y-85860167D01*
X193279111Y-85768653D01*
X193044569Y-85722000D01*
X192805431Y-85722000D01*
X192570889Y-85768653D01*
X192349955Y-85860167D01*
X192151120Y-85993025D01*
X191982025Y-86162120D01*
X191849167Y-86360955D01*
X191757653Y-86581889D01*
X191711000Y-86816431D01*
X191711000Y-87055569D01*
X191714257Y-87071942D01*
X191485198Y-87301001D01*
X190758968Y-87301001D01*
X190872918Y-87130463D01*
X190996168Y-86832912D01*
X191059000Y-86517033D01*
X191059000Y-86194967D01*
X190996168Y-85879088D01*
X190990177Y-85864624D01*
X191863022Y-84991780D01*
X191982025Y-85169880D01*
X192151120Y-85338975D01*
X192349955Y-85471833D01*
X192570889Y-85563347D01*
X192805431Y-85610000D01*
X193044569Y-85610000D01*
X193279111Y-85563347D01*
X193500045Y-85471833D01*
X193698880Y-85338975D01*
X193867975Y-85169880D01*
X194000833Y-84971045D01*
X194092347Y-84750111D01*
X194139000Y-84515569D01*
X194139000Y-84276431D01*
X194135743Y-84260059D01*
X194199804Y-84195999D01*
X199664999Y-84195999D01*
X199649000Y-84276431D01*
X199649000Y-84515569D01*
X199695653Y-84750111D01*
X199787167Y-84971045D01*
X199920025Y-85169880D01*
X200089120Y-85338975D01*
X200287955Y-85471833D01*
X200508889Y-85563347D01*
X200743431Y-85610000D01*
X200982569Y-85610000D01*
X201217111Y-85563347D01*
X201438045Y-85471833D01*
X201636880Y-85338975D01*
X201805975Y-85169880D01*
X201935510Y-84976017D01*
X214598090Y-84976017D01*
X214639078Y-85248133D01*
X214732364Y-85507023D01*
X214794344Y-85622980D01*
X215034435Y-85689960D01*
X215820395Y-84904000D01*
X216179605Y-84904000D01*
X216965565Y-85689960D01*
X217205656Y-85622980D01*
X217322756Y-85373952D01*
X217389023Y-85106865D01*
X217401910Y-84831983D01*
X217360922Y-84559867D01*
X217267636Y-84300977D01*
X217205656Y-84185020D01*
X216965565Y-84118040D01*
X216179605Y-84904000D01*
X215820395Y-84904000D01*
X215034435Y-84118040D01*
X214794344Y-84185020D01*
X214677244Y-84434048D01*
X214610977Y-84701135D01*
X214598090Y-84976017D01*
X201935510Y-84976017D01*
X201938833Y-84971045D01*
X202030347Y-84750111D01*
X202077000Y-84515569D01*
X202077000Y-84276431D01*
X202061001Y-84195999D01*
X203326679Y-84195999D01*
X203364001Y-84199675D01*
X203401323Y-84195999D01*
X203401334Y-84195999D01*
X203512987Y-84185002D01*
X203656248Y-84141545D01*
X203788277Y-84070973D01*
X203872279Y-84002034D01*
X203887088Y-84008168D01*
X204202967Y-84071000D01*
X204525033Y-84071000D01*
X204840912Y-84008168D01*
X205138463Y-83884918D01*
X205406252Y-83705987D01*
X205633987Y-83478252D01*
X205812918Y-83210463D01*
X205818909Y-83196000D01*
X209409091Y-83196000D01*
X209415082Y-83210463D01*
X209594013Y-83478252D01*
X209821748Y-83705987D01*
X210089537Y-83884918D01*
X210387088Y-84008168D01*
X210702967Y-84071000D01*
X211025033Y-84071000D01*
X211340912Y-84008168D01*
X211638463Y-83884918D01*
X211906252Y-83705987D01*
X212133987Y-83478252D01*
X212312918Y-83210463D01*
X212436168Y-82912912D01*
X212499000Y-82597033D01*
X212499000Y-82274967D01*
X212489342Y-82226408D01*
X214603000Y-82226408D01*
X214603000Y-82501592D01*
X214656686Y-82771490D01*
X214761995Y-83025727D01*
X214914880Y-83254535D01*
X215109465Y-83449120D01*
X215338273Y-83602005D01*
X215409943Y-83631692D01*
X215396977Y-83636364D01*
X215281020Y-83698344D01*
X215214040Y-83938435D01*
X216000000Y-84724395D01*
X216785960Y-83938435D01*
X216718980Y-83698344D01*
X216583240Y-83634515D01*
X216661727Y-83602005D01*
X216890535Y-83449120D01*
X217085120Y-83254535D01*
X217238005Y-83025727D01*
X217343314Y-82771490D01*
X217397000Y-82501592D01*
X217397000Y-82226408D01*
X217395701Y-82219878D01*
X217807050Y-81808529D01*
X217840818Y-81780816D01*
X217877245Y-81736431D01*
X217951411Y-81646059D01*
X217977576Y-81597108D01*
X218033590Y-81492312D01*
X218084196Y-81325489D01*
X218097001Y-81195476D01*
X218097001Y-81195466D01*
X218101282Y-81152000D01*
X218097001Y-81108534D01*
X218097001Y-60255466D01*
X218101282Y-60212000D01*
X218097001Y-60168534D01*
X218097001Y-60168524D01*
X218084196Y-60038511D01*
X218033590Y-59871688D01*
X217951412Y-59717942D01*
X217926462Y-59687540D01*
X217868533Y-59616954D01*
X217868531Y-59616952D01*
X217840818Y-59583184D01*
X217807051Y-59555472D01*
X217006535Y-58754957D01*
X216995226Y-58698102D01*
X216917205Y-58509744D01*
X216803937Y-58340226D01*
X216659774Y-58196063D01*
X216490256Y-58082795D01*
X216301898Y-58004774D01*
X216101939Y-57965000D01*
X215898061Y-57965000D01*
X215698102Y-58004774D01*
X215509744Y-58082795D01*
X215340226Y-58196063D01*
X215196063Y-58340226D01*
X215082795Y-58509744D01*
X215004774Y-58698102D01*
X214965000Y-58898061D01*
X214965000Y-59101939D01*
X215004774Y-59301898D01*
X215082795Y-59490256D01*
X215196063Y-59659774D01*
X215340226Y-59803937D01*
X215509744Y-59917205D01*
X215698102Y-59995226D01*
X215754957Y-60006535D01*
X216327001Y-60578580D01*
X216327002Y-80785419D01*
X216144122Y-80968299D01*
X216137592Y-80967000D01*
X215862408Y-80967000D01*
X215592510Y-81020686D01*
X215338273Y-81125995D01*
X215109465Y-81278880D01*
X214914880Y-81473465D01*
X214761995Y-81702273D01*
X214656686Y-81956510D01*
X214603000Y-82226408D01*
X212489342Y-82226408D01*
X212436168Y-81959088D01*
X212312918Y-81661537D01*
X212133987Y-81393748D01*
X211906252Y-81166013D01*
X211638463Y-80987082D01*
X211340912Y-80863832D01*
X211025033Y-80801000D01*
X210702967Y-80801000D01*
X210387088Y-80863832D01*
X210089537Y-80987082D01*
X209821748Y-81166013D01*
X209594013Y-81393748D01*
X209415082Y-81661537D01*
X209409091Y-81676000D01*
X205818909Y-81676000D01*
X205812918Y-81661537D01*
X205633987Y-81393748D01*
X205406252Y-81166013D01*
X205138463Y-80987082D01*
X204840912Y-80863832D01*
X204525033Y-80801000D01*
X204202967Y-80801000D01*
X203887088Y-80863832D01*
X203589537Y-80987082D01*
X203321748Y-81166013D01*
X203094013Y-81393748D01*
X202915082Y-81661537D01*
X202791832Y-81959088D01*
X202729000Y-82274967D01*
X202729000Y-82597033D01*
X202744707Y-82675999D01*
X201759856Y-82675999D01*
X201805975Y-82629880D01*
X201938833Y-82431045D01*
X202030347Y-82210111D01*
X202077000Y-81975569D01*
X202077000Y-81736431D01*
X202030347Y-81501889D01*
X201938833Y-81280955D01*
X201805975Y-81082120D01*
X201636880Y-80913025D01*
X201438045Y-80780167D01*
X201217111Y-80688653D01*
X200982569Y-80642000D01*
X200743431Y-80642000D01*
X200508889Y-80688653D01*
X200287955Y-80780167D01*
X200089120Y-80913025D01*
X199920025Y-81082120D01*
X199787167Y-81280955D01*
X199695653Y-81501889D01*
X199649000Y-81736431D01*
X199649000Y-81975569D01*
X199695653Y-82210111D01*
X199787167Y-82431045D01*
X199920025Y-82629880D01*
X199966144Y-82675999D01*
X193922323Y-82675999D01*
X193885000Y-82672323D01*
X193847677Y-82675999D01*
X193847668Y-82675999D01*
X193819036Y-82678819D01*
X193867975Y-82629880D01*
X194000833Y-82431045D01*
X194092347Y-82210111D01*
X194139000Y-81975569D01*
X194139000Y-81736431D01*
X194092347Y-81501889D01*
X194000833Y-81280955D01*
X193867975Y-81082120D01*
X193698880Y-80913025D01*
X193500045Y-80780167D01*
X193279111Y-80688653D01*
X193044569Y-80642000D01*
X192805431Y-80642000D01*
X192570889Y-80688653D01*
X192349955Y-80780167D01*
X192151120Y-80913025D01*
X191982025Y-81082120D01*
X191849167Y-81280955D01*
X191757653Y-81501889D01*
X191711000Y-81736431D01*
X191711000Y-81975569D01*
X191757653Y-82210111D01*
X191849167Y-82431045D01*
X191982025Y-82629880D01*
X192028672Y-82676527D01*
X189915376Y-84789823D01*
X189900912Y-84783832D01*
X189585033Y-84721000D01*
X189262967Y-84721000D01*
X188947088Y-84783832D01*
X188649537Y-84907082D01*
X188381748Y-85086013D01*
X188154013Y-85313748D01*
X187975082Y-85581537D01*
X187969091Y-85596000D01*
X184378909Y-85596000D01*
X184372918Y-85581537D01*
X184193987Y-85313748D01*
X183966252Y-85086013D01*
X183698463Y-84907082D01*
X183400912Y-84783832D01*
X183085033Y-84721000D01*
X182762967Y-84721000D01*
X182447088Y-84783832D01*
X182149537Y-84907082D01*
X181881748Y-85086013D01*
X181654013Y-85313748D01*
X181475082Y-85581537D01*
X181469091Y-85596000D01*
X178593799Y-85596000D01*
X181198386Y-82991413D01*
X181968192Y-82991413D01*
X182063956Y-83255814D01*
X182353571Y-83396704D01*
X182665108Y-83478384D01*
X182986595Y-83497718D01*
X183305675Y-83453961D01*
X183610088Y-83348795D01*
X183784044Y-83255814D01*
X183879808Y-82991413D01*
X188468192Y-82991413D01*
X188563956Y-83255814D01*
X188853571Y-83396704D01*
X189165108Y-83478384D01*
X189486595Y-83497718D01*
X189805675Y-83453961D01*
X190110088Y-83348795D01*
X190284044Y-83255814D01*
X190379808Y-82991413D01*
X189424000Y-82035605D01*
X188468192Y-82991413D01*
X183879808Y-82991413D01*
X182924000Y-82035605D01*
X181968192Y-82991413D01*
X181198386Y-82991413D01*
X181506620Y-82683180D01*
X181524186Y-82716044D01*
X181788587Y-82811808D01*
X182744395Y-81856000D01*
X183103605Y-81856000D01*
X184059413Y-82811808D01*
X184323814Y-82716044D01*
X184464704Y-82426429D01*
X184546384Y-82114892D01*
X184558189Y-81918595D01*
X187782282Y-81918595D01*
X187826039Y-82237675D01*
X187931205Y-82542088D01*
X188024186Y-82716044D01*
X188288587Y-82811808D01*
X189244395Y-81856000D01*
X189603605Y-81856000D01*
X190559413Y-82811808D01*
X190823814Y-82716044D01*
X190964704Y-82426429D01*
X191046384Y-82114892D01*
X191065718Y-81793405D01*
X191021961Y-81474325D01*
X190916795Y-81169912D01*
X190823814Y-80995956D01*
X190559413Y-80900192D01*
X189603605Y-81856000D01*
X189244395Y-81856000D01*
X188288587Y-80900192D01*
X188024186Y-80995956D01*
X187883296Y-81285571D01*
X187801616Y-81597108D01*
X187782282Y-81918595D01*
X184558189Y-81918595D01*
X184565718Y-81793405D01*
X184521961Y-81474325D01*
X184416795Y-81169912D01*
X184323814Y-80995956D01*
X184059413Y-80900192D01*
X183103605Y-81856000D01*
X182744395Y-81856000D01*
X182730253Y-81841858D01*
X182909858Y-81662253D01*
X182924000Y-81676395D01*
X183879808Y-80720587D01*
X188468192Y-80720587D01*
X189424000Y-81676395D01*
X190379808Y-80720587D01*
X190284044Y-80456186D01*
X189994429Y-80315296D01*
X189682892Y-80233616D01*
X189361405Y-80214282D01*
X189042325Y-80258039D01*
X188737912Y-80363205D01*
X188563956Y-80456186D01*
X188468192Y-80720587D01*
X183879808Y-80720587D01*
X183784044Y-80456186D01*
X183494429Y-80315296D01*
X183182892Y-80233616D01*
X182861405Y-80214282D01*
X182542325Y-80258039D01*
X182358999Y-80321373D01*
X182358999Y-78600000D01*
X185761928Y-78600000D01*
X185774188Y-78724482D01*
X185810498Y-78844180D01*
X185869463Y-78954494D01*
X185948815Y-79051185D01*
X186045506Y-79130537D01*
X186155820Y-79189502D01*
X186275518Y-79225812D01*
X186400000Y-79238072D01*
X186714250Y-79235000D01*
X186873000Y-79076250D01*
X186873000Y-78127000D01*
X187127000Y-78127000D01*
X187127000Y-79076250D01*
X187285750Y-79235000D01*
X187600000Y-79238072D01*
X187724482Y-79225812D01*
X187821338Y-79196431D01*
X191711000Y-79196431D01*
X191711000Y-79435569D01*
X191757653Y-79670111D01*
X191849167Y-79891045D01*
X191982025Y-80089880D01*
X192151120Y-80258975D01*
X192349955Y-80391833D01*
X192570889Y-80483347D01*
X192805431Y-80530000D01*
X193044569Y-80530000D01*
X193279111Y-80483347D01*
X193500045Y-80391833D01*
X193698880Y-80258975D01*
X193867975Y-80089880D01*
X194000833Y-79891045D01*
X194092347Y-79670111D01*
X194139000Y-79435569D01*
X194139000Y-79196431D01*
X199649000Y-79196431D01*
X199649000Y-79435569D01*
X199695653Y-79670111D01*
X199787167Y-79891045D01*
X199920025Y-80089880D01*
X200089120Y-80258975D01*
X200287955Y-80391833D01*
X200508889Y-80483347D01*
X200743431Y-80530000D01*
X200982569Y-80530000D01*
X201217111Y-80483347D01*
X201438045Y-80391833D01*
X201636880Y-80258975D01*
X201805975Y-80089880D01*
X201938833Y-79891045D01*
X202030347Y-79670111D01*
X202077000Y-79435569D01*
X202077000Y-79196431D01*
X202030347Y-78961889D01*
X201938833Y-78740955D01*
X201805975Y-78542120D01*
X201636880Y-78373025D01*
X201438045Y-78240167D01*
X201217111Y-78148653D01*
X200982569Y-78102000D01*
X200743431Y-78102000D01*
X200508889Y-78148653D01*
X200287955Y-78240167D01*
X200089120Y-78373025D01*
X199920025Y-78542120D01*
X199787167Y-78740955D01*
X199695653Y-78961889D01*
X199649000Y-79196431D01*
X194139000Y-79196431D01*
X194092347Y-78961889D01*
X194000833Y-78740955D01*
X193867975Y-78542120D01*
X193698880Y-78373025D01*
X193500045Y-78240167D01*
X193279111Y-78148653D01*
X193044569Y-78102000D01*
X192805431Y-78102000D01*
X192570889Y-78148653D01*
X192349955Y-78240167D01*
X192151120Y-78373025D01*
X191982025Y-78542120D01*
X191849167Y-78740955D01*
X191757653Y-78961889D01*
X191711000Y-79196431D01*
X187821338Y-79196431D01*
X187844180Y-79189502D01*
X187954494Y-79130537D01*
X188051185Y-79051185D01*
X188130537Y-78954494D01*
X188189502Y-78844180D01*
X188225812Y-78724482D01*
X188238072Y-78600000D01*
X188235000Y-78285750D01*
X188076250Y-78127000D01*
X187127000Y-78127000D01*
X186873000Y-78127000D01*
X185923750Y-78127000D01*
X185765000Y-78285750D01*
X185761928Y-78600000D01*
X182358999Y-78600000D01*
X182358999Y-77400000D01*
X185761928Y-77400000D01*
X185765000Y-77714250D01*
X185923750Y-77873000D01*
X186873000Y-77873000D01*
X186873000Y-77853000D01*
X187127000Y-77853000D01*
X187127000Y-77873000D01*
X188076250Y-77873000D01*
X188235000Y-77714250D01*
X188238072Y-77400000D01*
X188225812Y-77275518D01*
X188189502Y-77155820D01*
X188130537Y-77045506D01*
X188117419Y-77029522D01*
X188187540Y-76860236D01*
X188228079Y-76656431D01*
X191711000Y-76656431D01*
X191711000Y-76895569D01*
X191757653Y-77130111D01*
X191849167Y-77351045D01*
X191982025Y-77549880D01*
X192151120Y-77718975D01*
X192349955Y-77851833D01*
X192570889Y-77943347D01*
X192805431Y-77990000D01*
X193044569Y-77990000D01*
X193279111Y-77943347D01*
X193500045Y-77851833D01*
X193698880Y-77718975D01*
X193867975Y-77549880D01*
X194000833Y-77351045D01*
X194092347Y-77130111D01*
X194139000Y-76895569D01*
X194139000Y-76656431D01*
X199649000Y-76656431D01*
X199649000Y-76895569D01*
X199695653Y-77130111D01*
X199787167Y-77351045D01*
X199920025Y-77549880D01*
X200089120Y-77718975D01*
X200287955Y-77851833D01*
X200508889Y-77943347D01*
X200743431Y-77990000D01*
X200982569Y-77990000D01*
X201217111Y-77943347D01*
X201438045Y-77851833D01*
X201636880Y-77718975D01*
X201805975Y-77549880D01*
X201938833Y-77351045D01*
X202030347Y-77130111D01*
X202077000Y-76895569D01*
X202077000Y-76656431D01*
X202065776Y-76600000D01*
X205761928Y-76600000D01*
X205774188Y-76724482D01*
X205810498Y-76844180D01*
X205869463Y-76954494D01*
X205882581Y-76970478D01*
X205812460Y-77139764D01*
X205765000Y-77378363D01*
X205765000Y-77621637D01*
X205812460Y-77860236D01*
X205905557Y-78084992D01*
X206040713Y-78287267D01*
X206212733Y-78459287D01*
X206415008Y-78594443D01*
X206639764Y-78687540D01*
X206878363Y-78735000D01*
X207121637Y-78735000D01*
X207360236Y-78687540D01*
X207584992Y-78594443D01*
X207787267Y-78459287D01*
X207959287Y-78287267D01*
X208094443Y-78084992D01*
X208187540Y-77860236D01*
X208235000Y-77621637D01*
X208235000Y-77378363D01*
X208187540Y-77139764D01*
X208117419Y-76970478D01*
X208130537Y-76954494D01*
X208189502Y-76844180D01*
X208225812Y-76724482D01*
X208234657Y-76634665D01*
X210953000Y-76634665D01*
X210953000Y-76917335D01*
X211008147Y-77194574D01*
X211116320Y-77455727D01*
X211273363Y-77690759D01*
X211473241Y-77890637D01*
X211708273Y-78047680D01*
X211969426Y-78155853D01*
X212246665Y-78211000D01*
X212529335Y-78211000D01*
X212806574Y-78155853D01*
X213067727Y-78047680D01*
X213302759Y-77890637D01*
X213502637Y-77690759D01*
X213659680Y-77455727D01*
X213767853Y-77194574D01*
X213823000Y-76917335D01*
X213823000Y-76634665D01*
X213767853Y-76357426D01*
X213659680Y-76096273D01*
X213502637Y-75861241D01*
X213302759Y-75661363D01*
X213067727Y-75504320D01*
X212806574Y-75396147D01*
X212529335Y-75341000D01*
X212246665Y-75341000D01*
X211969426Y-75396147D01*
X211708273Y-75504320D01*
X211473241Y-75661363D01*
X211273363Y-75861241D01*
X211116320Y-76096273D01*
X211008147Y-76357426D01*
X210953000Y-76634665D01*
X208234657Y-76634665D01*
X208238072Y-76600000D01*
X208235000Y-76285750D01*
X208076250Y-76127000D01*
X207127000Y-76127000D01*
X207127000Y-76147000D01*
X206873000Y-76147000D01*
X206873000Y-76127000D01*
X205923750Y-76127000D01*
X205765000Y-76285750D01*
X205761928Y-76600000D01*
X202065776Y-76600000D01*
X202030347Y-76421889D01*
X201938833Y-76200955D01*
X201805975Y-76002120D01*
X201636880Y-75833025D01*
X201438045Y-75700167D01*
X201217111Y-75608653D01*
X200982569Y-75562000D01*
X200743431Y-75562000D01*
X200508889Y-75608653D01*
X200287955Y-75700167D01*
X200089120Y-75833025D01*
X199920025Y-76002120D01*
X199787167Y-76200955D01*
X199695653Y-76421889D01*
X199649000Y-76656431D01*
X194139000Y-76656431D01*
X194092347Y-76421889D01*
X194000833Y-76200955D01*
X193867975Y-76002120D01*
X193698880Y-75833025D01*
X193500045Y-75700167D01*
X193279111Y-75608653D01*
X193044569Y-75562000D01*
X192805431Y-75562000D01*
X192570889Y-75608653D01*
X192349955Y-75700167D01*
X192151120Y-75833025D01*
X191982025Y-76002120D01*
X191849167Y-76200955D01*
X191757653Y-76421889D01*
X191711000Y-76656431D01*
X188228079Y-76656431D01*
X188235000Y-76621637D01*
X188235000Y-76378363D01*
X188187540Y-76139764D01*
X188094443Y-75915008D01*
X187959287Y-75712733D01*
X187787267Y-75540713D01*
X187584992Y-75405557D01*
X187360236Y-75312460D01*
X187121637Y-75265000D01*
X186878363Y-75265000D01*
X186639764Y-75312460D01*
X186415008Y-75405557D01*
X186212733Y-75540713D01*
X186040713Y-75712733D01*
X185905557Y-75915008D01*
X185812460Y-76139764D01*
X185765000Y-76378363D01*
X185765000Y-76621637D01*
X185812460Y-76860236D01*
X185882581Y-77029522D01*
X185869463Y-77045506D01*
X185810498Y-77155820D01*
X185774188Y-77275518D01*
X185761928Y-77400000D01*
X182358999Y-77400000D01*
X182358999Y-75296804D01*
X183539372Y-74116431D01*
X191711000Y-74116431D01*
X191711000Y-74355569D01*
X191757653Y-74590111D01*
X191849167Y-74811045D01*
X191982025Y-75009880D01*
X192151120Y-75178975D01*
X192349955Y-75311833D01*
X192570889Y-75403347D01*
X192805431Y-75450000D01*
X193044569Y-75450000D01*
X193279111Y-75403347D01*
X193500045Y-75311833D01*
X193698880Y-75178975D01*
X193807118Y-75070737D01*
X200207868Y-75070737D01*
X200252618Y-75292185D01*
X200470397Y-75390970D01*
X200703265Y-75445370D01*
X200942270Y-75453295D01*
X201178230Y-75414440D01*
X201216645Y-75400000D01*
X205761928Y-75400000D01*
X205765000Y-75714250D01*
X205923750Y-75873000D01*
X206873000Y-75873000D01*
X206873000Y-74923750D01*
X207127000Y-74923750D01*
X207127000Y-75873000D01*
X208076250Y-75873000D01*
X208235000Y-75714250D01*
X208238072Y-75400000D01*
X208225812Y-75275518D01*
X208189502Y-75155820D01*
X208130537Y-75045506D01*
X208051185Y-74948815D01*
X207954494Y-74869463D01*
X207844180Y-74810498D01*
X207724482Y-74774188D01*
X207600000Y-74761928D01*
X207285750Y-74765000D01*
X207127000Y-74923750D01*
X206873000Y-74923750D01*
X206714250Y-74765000D01*
X206400000Y-74761928D01*
X206275518Y-74774188D01*
X206155820Y-74810498D01*
X206045506Y-74869463D01*
X205948815Y-74948815D01*
X205869463Y-75045506D01*
X205810498Y-75155820D01*
X205774188Y-75275518D01*
X205761928Y-75400000D01*
X201216645Y-75400000D01*
X201402075Y-75330298D01*
X201473382Y-75292185D01*
X201518132Y-75070737D01*
X200863000Y-74415605D01*
X200207868Y-75070737D01*
X193807118Y-75070737D01*
X193867975Y-75009880D01*
X194000833Y-74811045D01*
X194092347Y-74590111D01*
X194139000Y-74355569D01*
X194139000Y-74315270D01*
X199645705Y-74315270D01*
X199684560Y-74551230D01*
X199768702Y-74775075D01*
X199806815Y-74846382D01*
X200028263Y-74891132D01*
X200683395Y-74236000D01*
X201042605Y-74236000D01*
X201697737Y-74891132D01*
X201919185Y-74846382D01*
X202017970Y-74628603D01*
X202072370Y-74395735D01*
X202080295Y-74156730D01*
X202041440Y-73920770D01*
X201957298Y-73696925D01*
X201919185Y-73625618D01*
X201697737Y-73580868D01*
X201042605Y-74236000D01*
X200683395Y-74236000D01*
X200028263Y-73580868D01*
X199806815Y-73625618D01*
X199708030Y-73843397D01*
X199653630Y-74076265D01*
X199645705Y-74315270D01*
X194139000Y-74315270D01*
X194139000Y-74116431D01*
X194092347Y-73881889D01*
X194000833Y-73660955D01*
X193867975Y-73462120D01*
X193807118Y-73401263D01*
X200207868Y-73401263D01*
X200863000Y-74056395D01*
X201518132Y-73401263D01*
X201473382Y-73179815D01*
X201255603Y-73081030D01*
X201022735Y-73026630D01*
X200783730Y-73018705D01*
X200547770Y-73057560D01*
X200323925Y-73141702D01*
X200252618Y-73179815D01*
X200207868Y-73401263D01*
X193807118Y-73401263D01*
X193698880Y-73293025D01*
X193500045Y-73160167D01*
X193279111Y-73068653D01*
X193044569Y-73022000D01*
X192805431Y-73022000D01*
X192570889Y-73068653D01*
X192349955Y-73160167D01*
X192151120Y-73293025D01*
X191982025Y-73462120D01*
X191849167Y-73660955D01*
X191757653Y-73881889D01*
X191711000Y-74116431D01*
X183539372Y-74116431D01*
X187600755Y-70055048D01*
X187559000Y-70264967D01*
X187559000Y-70587033D01*
X187621832Y-70902912D01*
X187745082Y-71200463D01*
X187924013Y-71468252D01*
X188151748Y-71695987D01*
X188419537Y-71874918D01*
X188717088Y-71998168D01*
X189032967Y-72061000D01*
X189355033Y-72061000D01*
X189670912Y-71998168D01*
X189968463Y-71874918D01*
X190236252Y-71695987D01*
X190355808Y-71576431D01*
X191711000Y-71576431D01*
X191711000Y-71815569D01*
X191757653Y-72050111D01*
X191849167Y-72271045D01*
X191982025Y-72469880D01*
X192151120Y-72638975D01*
X192349955Y-72771833D01*
X192570889Y-72863347D01*
X192805431Y-72910000D01*
X193044569Y-72910000D01*
X193279111Y-72863347D01*
X193500045Y-72771833D01*
X193698880Y-72638975D01*
X193867975Y-72469880D01*
X194000833Y-72271045D01*
X194092347Y-72050111D01*
X194139000Y-71815569D01*
X194139000Y-71576431D01*
X194092347Y-71341889D01*
X194000833Y-71120955D01*
X193867975Y-70922120D01*
X193698880Y-70753025D01*
X193500045Y-70620167D01*
X193279111Y-70528653D01*
X193044569Y-70482000D01*
X192805431Y-70482000D01*
X192570889Y-70528653D01*
X192349955Y-70620167D01*
X192151120Y-70753025D01*
X191982025Y-70922120D01*
X191849167Y-71120955D01*
X191757653Y-71341889D01*
X191711000Y-71576431D01*
X190355808Y-71576431D01*
X190463987Y-71468252D01*
X190642918Y-71200463D01*
X190766168Y-70902912D01*
X190829000Y-70587033D01*
X190829000Y-70264967D01*
X190766168Y-69949088D01*
X190642918Y-69651537D01*
X190463987Y-69383748D01*
X190236252Y-69156013D01*
X190057286Y-69036431D01*
X191711000Y-69036431D01*
X191711000Y-69275569D01*
X191757653Y-69510111D01*
X191849167Y-69731045D01*
X191982025Y-69929880D01*
X192151120Y-70098975D01*
X192349955Y-70231833D01*
X192570889Y-70323347D01*
X192805431Y-70370000D01*
X193044569Y-70370000D01*
X193279111Y-70323347D01*
X193500045Y-70231833D01*
X193698880Y-70098975D01*
X193867975Y-69929880D01*
X194000833Y-69731045D01*
X194092347Y-69510111D01*
X194139000Y-69275569D01*
X194139000Y-69036431D01*
X194092347Y-68801889D01*
X194000833Y-68580955D01*
X193867975Y-68382120D01*
X193698880Y-68213025D01*
X193500045Y-68080167D01*
X193279111Y-67988653D01*
X193044569Y-67942000D01*
X192805431Y-67942000D01*
X192570889Y-67988653D01*
X192349955Y-68080167D01*
X192151120Y-68213025D01*
X191982025Y-68382120D01*
X191849167Y-68580955D01*
X191757653Y-68801889D01*
X191711000Y-69036431D01*
X190057286Y-69036431D01*
X189968463Y-68977082D01*
X189670912Y-68853832D01*
X189355033Y-68791000D01*
X189032967Y-68791000D01*
X188823049Y-68832755D01*
X189785003Y-67870801D01*
X189814001Y-67847003D01*
X189908974Y-67731278D01*
X189979546Y-67599249D01*
X190023003Y-67455988D01*
X190034000Y-67344335D01*
X190037677Y-67307002D01*
X190034000Y-67269669D01*
X190034000Y-66564043D01*
X190135189Y-66496431D01*
X191711000Y-66496431D01*
X191711000Y-66735569D01*
X191757653Y-66970111D01*
X191849167Y-67191045D01*
X191982025Y-67389880D01*
X192151120Y-67558975D01*
X192349955Y-67691833D01*
X192570889Y-67783347D01*
X192805431Y-67830000D01*
X193044569Y-67830000D01*
X193279111Y-67783347D01*
X193500045Y-67691833D01*
X193698880Y-67558975D01*
X193867975Y-67389880D01*
X194000833Y-67191045D01*
X194092347Y-66970111D01*
X194139000Y-66735569D01*
X194139000Y-66496431D01*
X194092347Y-66261889D01*
X194000833Y-66040955D01*
X193867975Y-65842120D01*
X193698880Y-65673025D01*
X193500045Y-65540167D01*
X193279111Y-65448653D01*
X193044569Y-65402000D01*
X192805431Y-65402000D01*
X192570889Y-65448653D01*
X192349955Y-65540167D01*
X192151120Y-65673025D01*
X191982025Y-65842120D01*
X191849167Y-66040955D01*
X191757653Y-66261889D01*
X191711000Y-66496431D01*
X190135189Y-66496431D01*
X190188759Y-66460637D01*
X190388637Y-66260759D01*
X190545680Y-66025727D01*
X190653853Y-65764574D01*
X190709000Y-65487335D01*
X190709000Y-65204665D01*
X190653853Y-64927426D01*
X190545680Y-64666273D01*
X190388637Y-64431241D01*
X190188759Y-64231363D01*
X189956241Y-64076000D01*
X190135189Y-63956431D01*
X191711000Y-63956431D01*
X191711000Y-64195569D01*
X191757653Y-64430111D01*
X191849167Y-64651045D01*
X191982025Y-64849880D01*
X192151120Y-65018975D01*
X192349955Y-65151833D01*
X192570889Y-65243347D01*
X192805431Y-65290000D01*
X193044569Y-65290000D01*
X193279111Y-65243347D01*
X193500045Y-65151833D01*
X193698880Y-65018975D01*
X193867975Y-64849880D01*
X194000833Y-64651045D01*
X194092347Y-64430111D01*
X194139000Y-64195569D01*
X194139000Y-63956431D01*
X199649000Y-63956431D01*
X199649000Y-64195569D01*
X199695653Y-64430111D01*
X199787167Y-64651045D01*
X199920025Y-64849880D01*
X200089120Y-65018975D01*
X200287955Y-65151833D01*
X200508889Y-65243347D01*
X200743431Y-65290000D01*
X200982569Y-65290000D01*
X200998941Y-65286743D01*
X201007002Y-65294804D01*
X201007002Y-65406860D01*
X200982569Y-65402000D01*
X200743431Y-65402000D01*
X200508889Y-65448653D01*
X200287955Y-65540167D01*
X200089120Y-65673025D01*
X199920025Y-65842120D01*
X199787167Y-66040955D01*
X199695653Y-66261889D01*
X199649000Y-66496431D01*
X199649000Y-66735569D01*
X199695653Y-66970111D01*
X199787167Y-67191045D01*
X199920025Y-67389880D01*
X200089120Y-67558975D01*
X200287955Y-67691833D01*
X200508889Y-67783347D01*
X200743431Y-67830000D01*
X200982569Y-67830000D01*
X201217111Y-67783347D01*
X201438045Y-67691833D01*
X201447518Y-67685503D01*
X204998942Y-71236928D01*
X204745000Y-71236928D01*
X204620518Y-71249188D01*
X204500820Y-71285498D01*
X204390506Y-71344463D01*
X204293815Y-71423815D01*
X204254059Y-71472258D01*
X202073743Y-69291942D01*
X202077000Y-69275569D01*
X202077000Y-69036431D01*
X202030347Y-68801889D01*
X201938833Y-68580955D01*
X201805975Y-68382120D01*
X201636880Y-68213025D01*
X201438045Y-68080167D01*
X201217111Y-67988653D01*
X200982569Y-67942000D01*
X200743431Y-67942000D01*
X200508889Y-67988653D01*
X200287955Y-68080167D01*
X200089120Y-68213025D01*
X199920025Y-68382120D01*
X199787167Y-68580955D01*
X199695653Y-68801889D01*
X199649000Y-69036431D01*
X199649000Y-69275569D01*
X199695653Y-69510111D01*
X199787167Y-69731045D01*
X199920025Y-69929880D01*
X200089120Y-70098975D01*
X200287955Y-70231833D01*
X200508889Y-70323347D01*
X200743431Y-70370000D01*
X200982569Y-70370000D01*
X200998942Y-70366743D01*
X201146883Y-70514684D01*
X200982569Y-70482000D01*
X200743431Y-70482000D01*
X200508889Y-70528653D01*
X200287955Y-70620167D01*
X200089120Y-70753025D01*
X199920025Y-70922120D01*
X199787167Y-71120955D01*
X199695653Y-71341889D01*
X199649000Y-71576431D01*
X199649000Y-71815569D01*
X199695653Y-72050111D01*
X199787167Y-72271045D01*
X199920025Y-72469880D01*
X200089120Y-72638975D01*
X200287955Y-72771833D01*
X200508889Y-72863347D01*
X200743431Y-72910000D01*
X200982569Y-72910000D01*
X201217111Y-72863347D01*
X201438045Y-72771833D01*
X201636880Y-72638975D01*
X201805975Y-72469880D01*
X201938833Y-72271045D01*
X202030347Y-72050111D01*
X202077000Y-71815569D01*
X202077000Y-71576431D01*
X202044316Y-71412118D01*
X203793201Y-73161003D01*
X203816999Y-73190001D01*
X203932724Y-73284974D01*
X204064753Y-73355546D01*
X204106928Y-73368339D01*
X204106928Y-73425000D01*
X204119188Y-73549482D01*
X204155498Y-73669180D01*
X204214463Y-73779494D01*
X204293815Y-73876185D01*
X204390506Y-73955537D01*
X204500820Y-74014502D01*
X204620518Y-74050812D01*
X204745000Y-74063072D01*
X205445000Y-74063072D01*
X205569482Y-74050812D01*
X205689180Y-74014502D01*
X205730000Y-73992683D01*
X205770820Y-74014502D01*
X205890518Y-74050812D01*
X206015000Y-74063072D01*
X206715000Y-74063072D01*
X206839482Y-74050812D01*
X206959180Y-74014502D01*
X207000000Y-73992683D01*
X207040820Y-74014502D01*
X207160518Y-74050812D01*
X207285000Y-74063072D01*
X207349250Y-74060000D01*
X207508000Y-73901250D01*
X207508000Y-72777000D01*
X207488000Y-72777000D01*
X207488000Y-72523000D01*
X207508000Y-72523000D01*
X207508000Y-71398750D01*
X207762000Y-71398750D01*
X207762000Y-72523000D01*
X207782000Y-72523000D01*
X207782000Y-72777000D01*
X207762000Y-72777000D01*
X207762000Y-73901250D01*
X207920750Y-74060000D01*
X207985000Y-74063072D01*
X208109482Y-74050812D01*
X208229180Y-74014502D01*
X208270000Y-73992683D01*
X208310820Y-74014502D01*
X208430518Y-74050812D01*
X208555000Y-74063072D01*
X209255000Y-74063072D01*
X209379482Y-74050812D01*
X209499180Y-74014502D01*
X209609494Y-73955537D01*
X209695444Y-73885000D01*
X211461546Y-73885000D01*
X211509744Y-73917205D01*
X211698102Y-73995226D01*
X211898061Y-74035000D01*
X212101939Y-74035000D01*
X212301898Y-73995226D01*
X212490256Y-73917205D01*
X212659774Y-73803937D01*
X212803937Y-73659774D01*
X212917205Y-73490256D01*
X212995226Y-73301898D01*
X213035000Y-73101939D01*
X213035000Y-72898061D01*
X212995226Y-72698102D01*
X212917205Y-72509744D01*
X212803937Y-72340226D01*
X212659774Y-72196063D01*
X212490256Y-72082795D01*
X212301898Y-72004774D01*
X212101939Y-71965000D01*
X211898061Y-71965000D01*
X211698102Y-72004774D01*
X211509744Y-72082795D01*
X211461546Y-72115000D01*
X209893072Y-72115000D01*
X209893072Y-71875000D01*
X209880812Y-71750518D01*
X209844502Y-71630820D01*
X209785537Y-71520506D01*
X209706185Y-71423815D01*
X209609494Y-71344463D01*
X209499180Y-71285498D01*
X209379482Y-71249188D01*
X209255000Y-71236928D01*
X208555000Y-71236928D01*
X208430518Y-71249188D01*
X208310820Y-71285498D01*
X208270000Y-71307317D01*
X208229180Y-71285498D01*
X208109482Y-71249188D01*
X207985000Y-71236928D01*
X207920750Y-71240000D01*
X207762000Y-71398750D01*
X207508000Y-71398750D01*
X207349250Y-71240000D01*
X207285000Y-71236928D01*
X207160518Y-71249188D01*
X207081808Y-71273064D01*
X207070546Y-71235937D01*
X206999974Y-71103908D01*
X206928799Y-71017181D01*
X206905001Y-70988183D01*
X206876003Y-70964385D01*
X204926283Y-69014665D01*
X210953000Y-69014665D01*
X210953000Y-69297335D01*
X211008147Y-69574574D01*
X211116320Y-69835727D01*
X211273363Y-70070759D01*
X211473241Y-70270637D01*
X211708273Y-70427680D01*
X211969426Y-70535853D01*
X212246665Y-70591000D01*
X212529335Y-70591000D01*
X212806574Y-70535853D01*
X213067727Y-70427680D01*
X213302759Y-70270637D01*
X213502637Y-70070759D01*
X213659680Y-69835727D01*
X213767853Y-69574574D01*
X213823000Y-69297335D01*
X213823000Y-69014665D01*
X213767853Y-68737426D01*
X213659680Y-68476273D01*
X213502637Y-68241241D01*
X213302759Y-68041363D01*
X213067727Y-67884320D01*
X212806574Y-67776147D01*
X212529335Y-67721000D01*
X212246665Y-67721000D01*
X211969426Y-67776147D01*
X211708273Y-67884320D01*
X211473241Y-68041363D01*
X211273363Y-68241241D01*
X211116320Y-68476273D01*
X211008147Y-68737426D01*
X210953000Y-69014665D01*
X204926283Y-69014665D01*
X202527001Y-66615384D01*
X202527001Y-66125000D01*
X204106928Y-66125000D01*
X204119188Y-66249482D01*
X204155498Y-66369180D01*
X204214463Y-66479494D01*
X204293815Y-66576185D01*
X204390506Y-66655537D01*
X204500820Y-66714502D01*
X204620518Y-66750812D01*
X204745000Y-66763072D01*
X204809250Y-66760000D01*
X204968000Y-66601250D01*
X204968000Y-65477000D01*
X205222000Y-65477000D01*
X205222000Y-66601250D01*
X205380750Y-66760000D01*
X205445000Y-66763072D01*
X205569482Y-66750812D01*
X205689180Y-66714502D01*
X205730000Y-66692683D01*
X205770820Y-66714502D01*
X205890518Y-66750812D01*
X206015000Y-66763072D01*
X206079250Y-66760000D01*
X206238000Y-66601250D01*
X206238000Y-65477000D01*
X205222000Y-65477000D01*
X204968000Y-65477000D01*
X204268750Y-65477000D01*
X204110000Y-65635750D01*
X204106928Y-66125000D01*
X202527001Y-66125000D01*
X202527001Y-65017323D01*
X202530677Y-64980000D01*
X202527001Y-64942677D01*
X202527001Y-64942668D01*
X202516004Y-64831015D01*
X202472547Y-64687754D01*
X202412278Y-64575000D01*
X204106928Y-64575000D01*
X204110000Y-65064250D01*
X204268750Y-65223000D01*
X204968000Y-65223000D01*
X204968000Y-64098750D01*
X205222000Y-64098750D01*
X205222000Y-65223000D01*
X206238000Y-65223000D01*
X206238000Y-64098750D01*
X206079250Y-63940000D01*
X206015000Y-63936928D01*
X205890518Y-63949188D01*
X205770820Y-63985498D01*
X205730000Y-64007317D01*
X205689180Y-63985498D01*
X205569482Y-63949188D01*
X205445000Y-63936928D01*
X205380750Y-63940000D01*
X205222000Y-64098750D01*
X204968000Y-64098750D01*
X204809250Y-63940000D01*
X204745000Y-63936928D01*
X204620518Y-63949188D01*
X204500820Y-63985498D01*
X204390506Y-64044463D01*
X204293815Y-64123815D01*
X204214463Y-64220506D01*
X204155498Y-64330820D01*
X204119188Y-64450518D01*
X204106928Y-64575000D01*
X202412278Y-64575000D01*
X202401975Y-64555725D01*
X202388812Y-64539686D01*
X202330800Y-64468997D01*
X202330796Y-64468993D01*
X202307002Y-64440000D01*
X202278009Y-64416206D01*
X202073743Y-64211941D01*
X202077000Y-64195569D01*
X202077000Y-63956431D01*
X202030347Y-63721889D01*
X201938833Y-63500955D01*
X201805975Y-63302120D01*
X201636880Y-63133025D01*
X201438045Y-63000167D01*
X201217111Y-62908653D01*
X201163862Y-62898061D01*
X206465000Y-62898061D01*
X206465000Y-63101939D01*
X206504774Y-63301898D01*
X206582795Y-63490256D01*
X206696063Y-63659774D01*
X206840226Y-63803937D01*
X206875001Y-63827173D01*
X206875001Y-63959962D01*
X206839482Y-63949188D01*
X206715000Y-63936928D01*
X206650750Y-63940000D01*
X206492000Y-64098750D01*
X206492000Y-65223000D01*
X206512000Y-65223000D01*
X206512000Y-65477000D01*
X206492000Y-65477000D01*
X206492000Y-66601250D01*
X206650750Y-66760000D01*
X206715000Y-66763072D01*
X206839482Y-66750812D01*
X206959180Y-66714502D01*
X207000000Y-66692683D01*
X207040820Y-66714502D01*
X207160518Y-66750812D01*
X207285000Y-66763072D01*
X207985000Y-66763072D01*
X208109482Y-66750812D01*
X208229180Y-66714502D01*
X208270000Y-66692683D01*
X208310820Y-66714502D01*
X208430518Y-66750812D01*
X208555000Y-66763072D01*
X209255000Y-66763072D01*
X209379482Y-66750812D01*
X209499180Y-66714502D01*
X209609494Y-66655537D01*
X209706185Y-66576185D01*
X209785537Y-66479494D01*
X209844502Y-66369180D01*
X209880812Y-66249482D01*
X209893072Y-66125000D01*
X209893072Y-64575000D01*
X209880812Y-64450518D01*
X209844502Y-64330820D01*
X209785537Y-64220506D01*
X209706185Y-64123815D01*
X209665000Y-64090015D01*
X209665000Y-62442322D01*
X209668676Y-62404999D01*
X209665000Y-62367676D01*
X209665000Y-62367667D01*
X209654003Y-62256014D01*
X209610546Y-62112753D01*
X209539974Y-61980724D01*
X209535000Y-61974663D01*
X209535000Y-61898061D01*
X209495226Y-61698102D01*
X209417205Y-61509744D01*
X209303937Y-61340226D01*
X209159774Y-61196063D01*
X208990256Y-61082795D01*
X208801898Y-61004774D01*
X208601939Y-60965000D01*
X208398061Y-60965000D01*
X208198102Y-61004774D01*
X208009744Y-61082795D01*
X207840226Y-61196063D01*
X207696063Y-61340226D01*
X207582795Y-61509744D01*
X207504774Y-61698102D01*
X207465000Y-61898061D01*
X207465000Y-61965000D01*
X207398061Y-61965000D01*
X207198102Y-62004774D01*
X207009744Y-62082795D01*
X206840226Y-62196063D01*
X206696063Y-62340226D01*
X206582795Y-62509744D01*
X206504774Y-62698102D01*
X206465000Y-62898061D01*
X201163862Y-62898061D01*
X200982569Y-62862000D01*
X200743431Y-62862000D01*
X200508889Y-62908653D01*
X200287955Y-63000167D01*
X200089120Y-63133025D01*
X199920025Y-63302120D01*
X199787167Y-63500955D01*
X199695653Y-63721889D01*
X199649000Y-63956431D01*
X194139000Y-63956431D01*
X194092347Y-63721889D01*
X194000833Y-63500955D01*
X193867975Y-63302120D01*
X193698880Y-63133025D01*
X193500045Y-63000167D01*
X193279111Y-62908653D01*
X193044569Y-62862000D01*
X192805431Y-62862000D01*
X192570889Y-62908653D01*
X192349955Y-63000167D01*
X192151120Y-63133025D01*
X191982025Y-63302120D01*
X191849167Y-63500955D01*
X191757653Y-63721889D01*
X191711000Y-63956431D01*
X190135189Y-63956431D01*
X190188759Y-63920637D01*
X190388637Y-63720759D01*
X190545680Y-63485727D01*
X190653853Y-63224574D01*
X190709000Y-62947335D01*
X190709000Y-62664665D01*
X190653853Y-62387426D01*
X190545680Y-62126273D01*
X190388637Y-61891241D01*
X190188759Y-61691363D01*
X189956241Y-61536000D01*
X190135189Y-61416431D01*
X191711000Y-61416431D01*
X191711000Y-61655569D01*
X191757653Y-61890111D01*
X191849167Y-62111045D01*
X191982025Y-62309880D01*
X192151120Y-62478975D01*
X192349955Y-62611833D01*
X192570889Y-62703347D01*
X192805431Y-62750000D01*
X193044569Y-62750000D01*
X193279111Y-62703347D01*
X193500045Y-62611833D01*
X193698880Y-62478975D01*
X193867975Y-62309880D01*
X194000833Y-62111045D01*
X194092347Y-61890111D01*
X194139000Y-61655569D01*
X194139000Y-61416431D01*
X199649000Y-61416431D01*
X199649000Y-61655569D01*
X199695653Y-61890111D01*
X199787167Y-62111045D01*
X199920025Y-62309880D01*
X200089120Y-62478975D01*
X200287955Y-62611833D01*
X200508889Y-62703347D01*
X200743431Y-62750000D01*
X200982569Y-62750000D01*
X201217111Y-62703347D01*
X201438045Y-62611833D01*
X201636880Y-62478975D01*
X201805975Y-62309880D01*
X201938833Y-62111045D01*
X202030347Y-61890111D01*
X202077000Y-61655569D01*
X202077000Y-61416431D01*
X202030347Y-61181889D01*
X201938833Y-60960955D01*
X201805975Y-60762120D01*
X201643855Y-60600000D01*
X204761928Y-60600000D01*
X204774188Y-60724482D01*
X204810498Y-60844180D01*
X204869463Y-60954494D01*
X204948815Y-61051185D01*
X205045506Y-61130537D01*
X205155820Y-61189502D01*
X205275518Y-61225812D01*
X205400000Y-61238072D01*
X205714250Y-61235000D01*
X205873000Y-61076250D01*
X205873000Y-60127000D01*
X206127000Y-60127000D01*
X206127000Y-61076250D01*
X206285750Y-61235000D01*
X206600000Y-61238072D01*
X206724482Y-61225812D01*
X206844180Y-61189502D01*
X206954494Y-61130537D01*
X207051185Y-61051185D01*
X207130537Y-60954494D01*
X207189502Y-60844180D01*
X207225812Y-60724482D01*
X207238072Y-60600000D01*
X207235000Y-60285750D01*
X207076250Y-60127000D01*
X206127000Y-60127000D01*
X205873000Y-60127000D01*
X204923750Y-60127000D01*
X204765000Y-60285750D01*
X204761928Y-60600000D01*
X201643855Y-60600000D01*
X201636880Y-60593025D01*
X201438045Y-60460167D01*
X201217111Y-60368653D01*
X200982569Y-60322000D01*
X200743431Y-60322000D01*
X200508889Y-60368653D01*
X200287955Y-60460167D01*
X200089120Y-60593025D01*
X199920025Y-60762120D01*
X199787167Y-60960955D01*
X199695653Y-61181889D01*
X199649000Y-61416431D01*
X194139000Y-61416431D01*
X194092347Y-61181889D01*
X194000833Y-60960955D01*
X193867975Y-60762120D01*
X193698880Y-60593025D01*
X193500045Y-60460167D01*
X193279111Y-60368653D01*
X193044569Y-60322000D01*
X192805431Y-60322000D01*
X192570889Y-60368653D01*
X192349955Y-60460167D01*
X192151120Y-60593025D01*
X191982025Y-60762120D01*
X191849167Y-60960955D01*
X191757653Y-61181889D01*
X191711000Y-61416431D01*
X190135189Y-61416431D01*
X190188759Y-61380637D01*
X190388637Y-61180759D01*
X190545680Y-60945727D01*
X190653853Y-60684574D01*
X190709000Y-60407335D01*
X190709000Y-60124665D01*
X190653853Y-59847426D01*
X190545680Y-59586273D01*
X190388637Y-59351241D01*
X190188759Y-59151363D01*
X189953727Y-58994320D01*
X189943135Y-58989933D01*
X190129131Y-58878385D01*
X190337519Y-58689414D01*
X190505037Y-58463420D01*
X190536035Y-58397835D01*
X191645203Y-59507003D01*
X191669001Y-59536001D01*
X191697999Y-59559799D01*
X191784726Y-59630974D01*
X191916755Y-59701546D01*
X191941351Y-59709007D01*
X191982025Y-59769880D01*
X192151120Y-59938975D01*
X192349955Y-60071833D01*
X192570889Y-60163347D01*
X192805431Y-60210000D01*
X193044569Y-60210000D01*
X193279111Y-60163347D01*
X193500045Y-60071833D01*
X193698880Y-59938975D01*
X193867975Y-59769880D01*
X194000833Y-59571045D01*
X194092347Y-59350111D01*
X194139000Y-59115569D01*
X194139000Y-58876431D01*
X199649000Y-58876431D01*
X199649000Y-59115569D01*
X199695653Y-59350111D01*
X199787167Y-59571045D01*
X199920025Y-59769880D01*
X200089120Y-59938975D01*
X200287955Y-60071833D01*
X200508889Y-60163347D01*
X200743431Y-60210000D01*
X200982569Y-60210000D01*
X201217111Y-60163347D01*
X201438045Y-60071833D01*
X201636880Y-59938975D01*
X201805975Y-59769880D01*
X201938833Y-59571045D01*
X202009682Y-59400000D01*
X204761928Y-59400000D01*
X204765000Y-59714250D01*
X204923750Y-59873000D01*
X205873000Y-59873000D01*
X205873000Y-59853000D01*
X206127000Y-59853000D01*
X206127000Y-59873000D01*
X207076250Y-59873000D01*
X207235000Y-59714250D01*
X207238072Y-59400000D01*
X207225812Y-59275518D01*
X207189502Y-59155820D01*
X207130537Y-59045506D01*
X207117419Y-59029522D01*
X207187540Y-58860236D01*
X207235000Y-58621637D01*
X207235000Y-58378363D01*
X207187540Y-58139764D01*
X207094443Y-57915008D01*
X206959287Y-57712733D01*
X206787267Y-57540713D01*
X206584992Y-57405557D01*
X206360236Y-57312460D01*
X206121637Y-57265000D01*
X205878363Y-57265000D01*
X205639764Y-57312460D01*
X205415008Y-57405557D01*
X205212733Y-57540713D01*
X205040713Y-57712733D01*
X204905557Y-57915008D01*
X204812460Y-58139764D01*
X204765000Y-58378363D01*
X204765000Y-58621637D01*
X204812460Y-58860236D01*
X204882581Y-59029522D01*
X204869463Y-59045506D01*
X204810498Y-59155820D01*
X204774188Y-59275518D01*
X204761928Y-59400000D01*
X202009682Y-59400000D01*
X202030347Y-59350111D01*
X202077000Y-59115569D01*
X202077000Y-58876431D01*
X202030347Y-58641889D01*
X201938833Y-58420955D01*
X201805975Y-58222120D01*
X201636880Y-58053025D01*
X201438045Y-57920167D01*
X201217111Y-57828653D01*
X200982569Y-57782000D01*
X200743431Y-57782000D01*
X200508889Y-57828653D01*
X200287955Y-57920167D01*
X200089120Y-58053025D01*
X199920025Y-58222120D01*
X199787167Y-58420955D01*
X199695653Y-58641889D01*
X199649000Y-58876431D01*
X194139000Y-58876431D01*
X194092347Y-58641889D01*
X194000833Y-58420955D01*
X193867975Y-58222120D01*
X193698880Y-58053025D01*
X193500045Y-57920167D01*
X193279111Y-57828653D01*
X193044569Y-57782000D01*
X192805431Y-57782000D01*
X192570889Y-57828653D01*
X192349955Y-57920167D01*
X192264842Y-57977038D01*
X190624235Y-56336431D01*
X191711000Y-56336431D01*
X191711000Y-56575569D01*
X191757653Y-56810111D01*
X191849167Y-57031045D01*
X191982025Y-57229880D01*
X192151120Y-57398975D01*
X192349955Y-57531833D01*
X192570889Y-57623347D01*
X192805431Y-57670000D01*
X193044569Y-57670000D01*
X193279111Y-57623347D01*
X193500045Y-57531833D01*
X193698880Y-57398975D01*
X193867975Y-57229880D01*
X194000833Y-57031045D01*
X194092347Y-56810111D01*
X194139000Y-56575569D01*
X194139000Y-56336431D01*
X199649000Y-56336431D01*
X199649000Y-56575569D01*
X199695653Y-56810111D01*
X199787167Y-57031045D01*
X199920025Y-57229880D01*
X200089120Y-57398975D01*
X200287955Y-57531833D01*
X200508889Y-57623347D01*
X200743431Y-57670000D01*
X200982569Y-57670000D01*
X201217111Y-57623347D01*
X201438045Y-57531833D01*
X201636880Y-57398975D01*
X201805975Y-57229880D01*
X201938833Y-57031045D01*
X202030347Y-56810111D01*
X202077000Y-56575569D01*
X202077000Y-56336431D01*
X202030347Y-56101889D01*
X201938833Y-55880955D01*
X201805975Y-55682120D01*
X201636880Y-55513025D01*
X201438045Y-55380167D01*
X201217111Y-55288653D01*
X200982569Y-55242000D01*
X200743431Y-55242000D01*
X200508889Y-55288653D01*
X200287955Y-55380167D01*
X200089120Y-55513025D01*
X199920025Y-55682120D01*
X199787167Y-55880955D01*
X199695653Y-56101889D01*
X199649000Y-56336431D01*
X194139000Y-56336431D01*
X194092347Y-56101889D01*
X194000833Y-55880955D01*
X193867975Y-55682120D01*
X193698880Y-55513025D01*
X193500045Y-55380167D01*
X193279111Y-55288653D01*
X193044569Y-55242000D01*
X192805431Y-55242000D01*
X192570889Y-55288653D01*
X192349955Y-55380167D01*
X192151120Y-55513025D01*
X191982025Y-55682120D01*
X191849167Y-55880955D01*
X191757653Y-56101889D01*
X191711000Y-56336431D01*
X190624235Y-56336431D01*
X189601727Y-55313924D01*
X189692574Y-55295853D01*
X189953727Y-55187680D01*
X190188759Y-55030637D01*
X190388637Y-54830759D01*
X190492043Y-54676000D01*
X191737333Y-54676000D01*
X191756498Y-54739180D01*
X191815463Y-54849494D01*
X191894815Y-54946185D01*
X191991506Y-55025537D01*
X192101820Y-55084502D01*
X192221518Y-55120812D01*
X192346000Y-55133072D01*
X193504000Y-55133072D01*
X193628482Y-55120812D01*
X193748180Y-55084502D01*
X193858494Y-55025537D01*
X193955185Y-54946185D01*
X194034537Y-54849494D01*
X194093502Y-54739180D01*
X194129812Y-54619482D01*
X194142072Y-54495000D01*
X194142072Y-53796431D01*
X199649000Y-53796431D01*
X199649000Y-54035569D01*
X199695653Y-54270111D01*
X199787167Y-54491045D01*
X199920025Y-54689880D01*
X200089120Y-54858975D01*
X200287955Y-54991833D01*
X200508889Y-55083347D01*
X200743431Y-55130000D01*
X200982569Y-55130000D01*
X201217111Y-55083347D01*
X201438045Y-54991833D01*
X201636880Y-54858975D01*
X201805975Y-54689880D01*
X201938833Y-54491045D01*
X202030347Y-54270111D01*
X202077000Y-54035569D01*
X202077000Y-53796431D01*
X202030347Y-53561889D01*
X201938833Y-53340955D01*
X201805975Y-53142120D01*
X201636880Y-52973025D01*
X201438045Y-52840167D01*
X201217111Y-52748653D01*
X200982569Y-52702000D01*
X200743431Y-52702000D01*
X200508889Y-52748653D01*
X200287955Y-52840167D01*
X200089120Y-52973025D01*
X199920025Y-53142120D01*
X199787167Y-53340955D01*
X199695653Y-53561889D01*
X199649000Y-53796431D01*
X194142072Y-53796431D01*
X194142072Y-53337000D01*
X194129812Y-53212518D01*
X194093502Y-53092820D01*
X194034537Y-52982506D01*
X193955185Y-52885815D01*
X193858494Y-52806463D01*
X193748180Y-52747498D01*
X193628482Y-52711188D01*
X193504000Y-52698928D01*
X192346000Y-52698928D01*
X192221518Y-52711188D01*
X192101820Y-52747498D01*
X191991506Y-52806463D01*
X191894815Y-52885815D01*
X191815463Y-52982506D01*
X191756498Y-53092820D01*
X191737333Y-53156000D01*
X190492043Y-53156000D01*
X190388637Y-53001241D01*
X190188759Y-52801363D01*
X189953727Y-52644320D01*
X189692574Y-52536147D01*
X189415335Y-52481000D01*
X189132665Y-52481000D01*
X188855426Y-52536147D01*
X188594273Y-52644320D01*
X188359241Y-52801363D01*
X188159363Y-53001241D01*
X188002320Y-53236273D01*
X187894147Y-53497426D01*
X187876076Y-53588273D01*
X186567805Y-52280002D01*
X186544002Y-52250998D01*
X186428277Y-52156025D01*
X186296248Y-52085453D01*
X186152987Y-52041996D01*
X186041334Y-52030999D01*
X186041323Y-52030999D01*
X186004001Y-52027323D01*
X185966679Y-52030999D01*
X181151322Y-52030999D01*
X181113999Y-52027323D01*
X181076676Y-52030999D01*
X181076666Y-52030999D01*
X180965013Y-52041996D01*
X180821752Y-52085453D01*
X180689722Y-52156025D01*
X180606082Y-52224667D01*
X180573998Y-52250998D01*
X180550200Y-52279996D01*
X178878451Y-53951745D01*
X178803937Y-53840226D01*
X178659774Y-53696063D01*
X178490256Y-53582795D01*
X178301898Y-53504774D01*
X178101939Y-53465000D01*
X177898061Y-53465000D01*
X177698102Y-53504774D01*
X177509744Y-53582795D01*
X177340226Y-53696063D01*
X177296289Y-53740000D01*
X175537333Y-53740000D01*
X175500000Y-53736323D01*
X175462667Y-53740000D01*
X175351014Y-53750997D01*
X175207753Y-53794454D01*
X175075724Y-53865026D01*
X174959999Y-53959999D01*
X174936201Y-53988997D01*
X173936201Y-54988998D01*
X173865026Y-55075724D01*
X173794454Y-55207754D01*
X173750998Y-55351015D01*
X173736324Y-55500000D01*
X173750998Y-55648985D01*
X173794454Y-55792246D01*
X173865026Y-55924276D01*
X173959999Y-56040001D01*
X174075724Y-56134974D01*
X174207754Y-56205546D01*
X174351015Y-56249002D01*
X174500000Y-56263676D01*
X174648985Y-56249002D01*
X174792246Y-56205546D01*
X174924276Y-56134974D01*
X175011002Y-56063799D01*
X175814802Y-55260000D01*
X177296289Y-55260000D01*
X177340226Y-55303937D01*
X177451745Y-55378452D01*
X177333003Y-55497194D01*
X177303999Y-55520997D01*
X177248871Y-55588172D01*
X177209026Y-55636722D01*
X177184760Y-55682120D01*
X177138454Y-55768752D01*
X177094997Y-55912013D01*
X177084000Y-56023666D01*
X177084000Y-56023676D01*
X177080324Y-56060998D01*
X177084000Y-56098321D01*
X177084000Y-56507956D01*
X176929241Y-56611363D01*
X176729363Y-56811241D01*
X176572320Y-57046273D01*
X176464147Y-57307426D01*
X176409000Y-57584665D01*
X176409000Y-57867335D01*
X176464147Y-58144574D01*
X176572320Y-58405727D01*
X176729363Y-58640759D01*
X176929241Y-58840637D01*
X177164273Y-58997680D01*
X177425426Y-59105853D01*
X177702665Y-59161000D01*
X177985335Y-59161000D01*
X178121230Y-59133968D01*
X177515199Y-59740000D01*
X172703711Y-59740000D01*
X172659774Y-59696063D01*
X172490256Y-59582795D01*
X172301898Y-59504774D01*
X172101939Y-59465000D01*
X171898061Y-59465000D01*
X171698102Y-59504774D01*
X171509744Y-59582795D01*
X171340226Y-59696063D01*
X171196063Y-59840226D01*
X171082795Y-60009744D01*
X171004774Y-60198102D01*
X170965000Y-60398061D01*
X170660000Y-60398061D01*
X170660000Y-50660000D01*
X219340000Y-50660000D01*
X219340001Y-89340000D01*
%TA.AperFunction,Conductor*%
D25*
G36*
X219340001Y-89340000D02*
G01*
X170660000Y-89340000D01*
X170660000Y-79174665D01*
X176409000Y-79174665D01*
X176409000Y-79457335D01*
X176464147Y-79734574D01*
X176572320Y-79995727D01*
X176729363Y-80230759D01*
X176929241Y-80430637D01*
X177164273Y-80587680D01*
X177425426Y-80695853D01*
X177702665Y-80751000D01*
X177985335Y-80751000D01*
X178262574Y-80695853D01*
X178523727Y-80587680D01*
X178758759Y-80430637D01*
X178958637Y-80230759D01*
X179115680Y-79995727D01*
X179223853Y-79734574D01*
X179279000Y-79457335D01*
X179279000Y-79174665D01*
X179223853Y-78897426D01*
X179115680Y-78636273D01*
X178958637Y-78401241D01*
X178758759Y-78201363D01*
X178523727Y-78044320D01*
X178262574Y-77936147D01*
X177985335Y-77881000D01*
X177702665Y-77881000D01*
X177425426Y-77936147D01*
X177164273Y-78044320D01*
X176929241Y-78201363D01*
X176729363Y-78401241D01*
X176572320Y-78636273D01*
X176464147Y-78897426D01*
X176409000Y-79174665D01*
X170660000Y-79174665D01*
X170660000Y-60398061D01*
X170965000Y-60398061D01*
X170965000Y-60601939D01*
X171004774Y-60801898D01*
X171082795Y-60990256D01*
X171196063Y-61159774D01*
X171340226Y-61303937D01*
X171509744Y-61417205D01*
X171698102Y-61495226D01*
X171898061Y-61535000D01*
X172101939Y-61535000D01*
X172301898Y-61495226D01*
X172490256Y-61417205D01*
X172659774Y-61303937D01*
X172703711Y-61260000D01*
X177792678Y-61260000D01*
X177830000Y-61263676D01*
X177867322Y-61260000D01*
X177867333Y-61260000D01*
X177978986Y-61249003D01*
X178122247Y-61205546D01*
X178254276Y-61134974D01*
X178370001Y-61040001D01*
X178393804Y-61010997D01*
X180416438Y-58988365D01*
X180499506Y-59056537D01*
X180609820Y-59115502D01*
X180729518Y-59151812D01*
X180737961Y-59152643D01*
X180539363Y-59351241D01*
X180382320Y-59586273D01*
X180274147Y-59847426D01*
X180219000Y-60124665D01*
X180219000Y-60407335D01*
X180255312Y-60589886D01*
X178658004Y-62187195D01*
X178629000Y-62210998D01*
X178592057Y-62256014D01*
X178534027Y-62326723D01*
X178479116Y-62429454D01*
X178463455Y-62458753D01*
X178419998Y-62602014D01*
X178409001Y-62713667D01*
X178409001Y-62713677D01*
X178405325Y-62750999D01*
X178409001Y-62788321D01*
X178409001Y-64026799D01*
X178262574Y-63966147D01*
X177985335Y-63911000D01*
X177702665Y-63911000D01*
X177425426Y-63966147D01*
X177164273Y-64074320D01*
X176929241Y-64231363D01*
X176729363Y-64431241D01*
X176572320Y-64666273D01*
X176464147Y-64927426D01*
X176409000Y-65204665D01*
X176409000Y-65487335D01*
X176464147Y-65764574D01*
X176572320Y-66025727D01*
X176729363Y-66260759D01*
X176929241Y-66460637D01*
X177084000Y-66564044D01*
X177084001Y-68971091D01*
X177069537Y-68977082D01*
X176801748Y-69156013D01*
X176574013Y-69383748D01*
X176395082Y-69651537D01*
X176271832Y-69949088D01*
X176209000Y-70264967D01*
X176209000Y-70587033D01*
X176271832Y-70902912D01*
X176395082Y-71200463D01*
X176574013Y-71468252D01*
X176801748Y-71695987D01*
X177069537Y-71874918D01*
X177367088Y-71998168D01*
X177682967Y-72061000D01*
X178005033Y-72061000D01*
X178320912Y-71998168D01*
X178409002Y-71961680D01*
X178409002Y-73786195D01*
X178335375Y-73859823D01*
X178320912Y-73853832D01*
X178005033Y-73791000D01*
X177682967Y-73791000D01*
X177367088Y-73853832D01*
X177069537Y-73977082D01*
X176801748Y-74156013D01*
X176574013Y-74383748D01*
X176395082Y-74651537D01*
X176271832Y-74949088D01*
X176209000Y-75264967D01*
X176209000Y-75587033D01*
X176271832Y-75902912D01*
X176395082Y-76200463D01*
X176574013Y-76468252D01*
X176801748Y-76695987D01*
X177069537Y-76874918D01*
X177367088Y-76998168D01*
X177682967Y-77061000D01*
X178005033Y-77061000D01*
X178320912Y-76998168D01*
X178618463Y-76874918D01*
X178886252Y-76695987D01*
X179113987Y-76468252D01*
X179292918Y-76200463D01*
X179416168Y-75902912D01*
X179479000Y-75587033D01*
X179479000Y-75264967D01*
X179416168Y-74949088D01*
X179410177Y-74934625D01*
X179680009Y-74664794D01*
X179709002Y-74641000D01*
X179732796Y-74612007D01*
X179732800Y-74612003D01*
X179803974Y-74525276D01*
X179832985Y-74471001D01*
X179874547Y-74393246D01*
X179918004Y-74249985D01*
X179929001Y-74138332D01*
X179929001Y-74138323D01*
X179932677Y-74101000D01*
X179929001Y-74063677D01*
X179929001Y-63065800D01*
X180219000Y-62775801D01*
X180219000Y-62947335D01*
X180274147Y-63224574D01*
X180382320Y-63485727D01*
X180539363Y-63720759D01*
X180739241Y-63920637D01*
X180971759Y-64076000D01*
X180739241Y-64231363D01*
X180539363Y-64431241D01*
X180382320Y-64666273D01*
X180274147Y-64927426D01*
X180219000Y-65204665D01*
X180219000Y-65487335D01*
X180274147Y-65764574D01*
X180382320Y-66025727D01*
X180539363Y-66260759D01*
X180739241Y-66460637D01*
X180974273Y-66617680D01*
X181235426Y-66725853D01*
X181512665Y-66781000D01*
X181795335Y-66781000D01*
X182072574Y-66725853D01*
X182333727Y-66617680D01*
X182568759Y-66460637D01*
X182768637Y-66260759D01*
X182924978Y-66026778D01*
X183434001Y-66535802D01*
X183434000Y-68971091D01*
X183419537Y-68977082D01*
X183151748Y-69156013D01*
X182924013Y-69383748D01*
X182745082Y-69651537D01*
X182621832Y-69949088D01*
X182559000Y-70264967D01*
X182559000Y-70587033D01*
X182621832Y-70902912D01*
X182745082Y-71200463D01*
X182924013Y-71468252D01*
X183151748Y-71695987D01*
X183419537Y-71874918D01*
X183569264Y-71936937D01*
X181088002Y-74418199D01*
X181058998Y-74442002D01*
X181003870Y-74509177D01*
X180964025Y-74557727D01*
X180913882Y-74651537D01*
X180893453Y-74689757D01*
X180849996Y-74833018D01*
X180838999Y-74944671D01*
X180838999Y-74944681D01*
X180835323Y-74982003D01*
X180838999Y-75019326D01*
X180839000Y-81201196D01*
X176208002Y-85832195D01*
X176178998Y-85855998D01*
X176123870Y-85923173D01*
X176084025Y-85971723D01*
X176038877Y-86056188D01*
X176013453Y-86103753D01*
X175969996Y-86247014D01*
X175958999Y-86358667D01*
X175958999Y-86358677D01*
X175955323Y-86395999D01*
X175958999Y-86433322D01*
X175959000Y-87438669D01*
X175955323Y-87476001D01*
X175959000Y-87513334D01*
X175969997Y-87624987D01*
X175973558Y-87636725D01*
X176013453Y-87768247D01*
X176084025Y-87900277D01*
X176155200Y-87987003D01*
X176178999Y-88016002D01*
X176207997Y-88039800D01*
X176740199Y-88572003D01*
X176763998Y-88601002D01*
X176792996Y-88624800D01*
X176879722Y-88695975D01*
X176955608Y-88736537D01*
X177011752Y-88766547D01*
X177155013Y-88810004D01*
X177266666Y-88821001D01*
X177266676Y-88821001D01*
X177303999Y-88824677D01*
X177341322Y-88821001D01*
X191762677Y-88821001D01*
X191799999Y-88824677D01*
X191837321Y-88821001D01*
X191837332Y-88821001D01*
X191948985Y-88810004D01*
X192092246Y-88766547D01*
X192224275Y-88695975D01*
X192340000Y-88601002D01*
X192363803Y-88571999D01*
X192789058Y-88146743D01*
X192805431Y-88150000D01*
X193044569Y-88150000D01*
X193279111Y-88103347D01*
X193500045Y-88011833D01*
X193698880Y-87878975D01*
X193867975Y-87709880D01*
X194000833Y-87511045D01*
X194092347Y-87290111D01*
X194139000Y-87055569D01*
X194139000Y-86816431D01*
X199649000Y-86816431D01*
X199649000Y-87055569D01*
X199695653Y-87290111D01*
X199787167Y-87511045D01*
X199920025Y-87709880D01*
X200089120Y-87878975D01*
X200287955Y-88011833D01*
X200508889Y-88103347D01*
X200743431Y-88150000D01*
X200982569Y-88150000D01*
X201217111Y-88103347D01*
X201294206Y-88071413D01*
X203408192Y-88071413D01*
X203503956Y-88335814D01*
X203793571Y-88476704D01*
X204105108Y-88558384D01*
X204426595Y-88577718D01*
X204745675Y-88533961D01*
X205050088Y-88428795D01*
X205224044Y-88335814D01*
X205319808Y-88071413D01*
X209908192Y-88071413D01*
X210003956Y-88335814D01*
X210293571Y-88476704D01*
X210605108Y-88558384D01*
X210926595Y-88577718D01*
X211245675Y-88533961D01*
X211550088Y-88428795D01*
X211724044Y-88335814D01*
X211819808Y-88071413D01*
X210864000Y-87115605D01*
X209908192Y-88071413D01*
X205319808Y-88071413D01*
X204364000Y-87115605D01*
X203408192Y-88071413D01*
X201294206Y-88071413D01*
X201438045Y-88011833D01*
X201636880Y-87878975D01*
X201805975Y-87709880D01*
X201938833Y-87511045D01*
X202030347Y-87290111D01*
X202077000Y-87055569D01*
X202077000Y-86998595D01*
X202722282Y-86998595D01*
X202766039Y-87317675D01*
X202871205Y-87622088D01*
X202964186Y-87796044D01*
X203228587Y-87891808D01*
X204184395Y-86936000D01*
X204543605Y-86936000D01*
X205499413Y-87891808D01*
X205763814Y-87796044D01*
X205904704Y-87506429D01*
X205986384Y-87194892D01*
X205998189Y-86998595D01*
X209222282Y-86998595D01*
X209266039Y-87317675D01*
X209371205Y-87622088D01*
X209464186Y-87796044D01*
X209728587Y-87891808D01*
X210684395Y-86936000D01*
X211043605Y-86936000D01*
X211999413Y-87891808D01*
X212263814Y-87796044D01*
X212404704Y-87506429D01*
X212486384Y-87194892D01*
X212505718Y-86873405D01*
X212479470Y-86682000D01*
X214599928Y-86682000D01*
X214599928Y-88206000D01*
X214612188Y-88330482D01*
X214648498Y-88450180D01*
X214707463Y-88560494D01*
X214786815Y-88657185D01*
X214883506Y-88736537D01*
X214993820Y-88795502D01*
X215113518Y-88831812D01*
X215238000Y-88844072D01*
X216762000Y-88844072D01*
X216886482Y-88831812D01*
X217006180Y-88795502D01*
X217116494Y-88736537D01*
X217213185Y-88657185D01*
X217292537Y-88560494D01*
X217351502Y-88450180D01*
X217387812Y-88330482D01*
X217400072Y-88206000D01*
X217400072Y-86682000D01*
X217387812Y-86557518D01*
X217351502Y-86437820D01*
X217292537Y-86327506D01*
X217213185Y-86230815D01*
X217116494Y-86151463D01*
X217006180Y-86092498D01*
X216886482Y-86056188D01*
X216762000Y-86043928D01*
X216737317Y-86043928D01*
X216785960Y-85869565D01*
X216000000Y-85083605D01*
X215214040Y-85869565D01*
X215262683Y-86043928D01*
X215238000Y-86043928D01*
X215113518Y-86056188D01*
X214993820Y-86092498D01*
X214883506Y-86151463D01*
X214786815Y-86230815D01*
X214707463Y-86327506D01*
X214648498Y-86437820D01*
X214612188Y-86557518D01*
X214599928Y-86682000D01*
X212479470Y-86682000D01*
X212461961Y-86554325D01*
X212356795Y-86249912D01*
X212263814Y-86075956D01*
X211999413Y-85980192D01*
X211043605Y-86936000D01*
X210684395Y-86936000D01*
X209728587Y-85980192D01*
X209464186Y-86075956D01*
X209323296Y-86365571D01*
X209241616Y-86677108D01*
X209222282Y-86998595D01*
X205998189Y-86998595D01*
X206005718Y-86873405D01*
X205961961Y-86554325D01*
X205856795Y-86249912D01*
X205763814Y-86075956D01*
X205499413Y-85980192D01*
X204543605Y-86936000D01*
X204184395Y-86936000D01*
X203228587Y-85980192D01*
X202964186Y-86075956D01*
X202823296Y-86365571D01*
X202741616Y-86677108D01*
X202722282Y-86998595D01*
X202077000Y-86998595D01*
X202077000Y-86816431D01*
X202030347Y-86581889D01*
X201938833Y-86360955D01*
X201805975Y-86162120D01*
X201636880Y-85993025D01*
X201438045Y-85860167D01*
X201294207Y-85800587D01*
X203408192Y-85800587D01*
X204364000Y-86756395D01*
X205319808Y-85800587D01*
X209908192Y-85800587D01*
X210864000Y-86756395D01*
X211819808Y-85800587D01*
X211724044Y-85536186D01*
X211434429Y-85395296D01*
X211122892Y-85313616D01*
X210801405Y-85294282D01*
X210482325Y-85338039D01*
X210177912Y-85443205D01*
X210003956Y-85536186D01*
X209908192Y-85800587D01*
X205319808Y-85800587D01*
X205224044Y-85536186D01*
X204934429Y-85395296D01*
X204622892Y-85313616D01*
X204301405Y-85294282D01*
X203982325Y-85338039D01*
X203677912Y-85443205D01*
X203503956Y-85536186D01*
X203408192Y-85800587D01*
X201294207Y-85800587D01*
X201217111Y-85768653D01*
X200982569Y-85722000D01*
X200743431Y-85722000D01*
X200508889Y-85768653D01*
X200287955Y-85860167D01*
X200089120Y-85993025D01*
X199920025Y-86162120D01*
X199787167Y-86360955D01*
X199695653Y-86581889D01*
X199649000Y-86816431D01*
X194139000Y-86816431D01*
X194092347Y-86581889D01*
X194000833Y-86360955D01*
X193867975Y-86162120D01*
X193698880Y-85993025D01*
X193500045Y-85860167D01*
X193279111Y-85768653D01*
X193044569Y-85722000D01*
X192805431Y-85722000D01*
X192570889Y-85768653D01*
X192349955Y-85860167D01*
X192151120Y-85993025D01*
X191982025Y-86162120D01*
X191849167Y-86360955D01*
X191757653Y-86581889D01*
X191711000Y-86816431D01*
X191711000Y-87055569D01*
X191714257Y-87071942D01*
X191485198Y-87301001D01*
X190758968Y-87301001D01*
X190872918Y-87130463D01*
X190996168Y-86832912D01*
X191059000Y-86517033D01*
X191059000Y-86194967D01*
X190996168Y-85879088D01*
X190990177Y-85864624D01*
X191863022Y-84991780D01*
X191982025Y-85169880D01*
X192151120Y-85338975D01*
X192349955Y-85471833D01*
X192570889Y-85563347D01*
X192805431Y-85610000D01*
X193044569Y-85610000D01*
X193279111Y-85563347D01*
X193500045Y-85471833D01*
X193698880Y-85338975D01*
X193867975Y-85169880D01*
X194000833Y-84971045D01*
X194092347Y-84750111D01*
X194139000Y-84515569D01*
X194139000Y-84276431D01*
X194135743Y-84260059D01*
X194199804Y-84195999D01*
X199664999Y-84195999D01*
X199649000Y-84276431D01*
X199649000Y-84515569D01*
X199695653Y-84750111D01*
X199787167Y-84971045D01*
X199920025Y-85169880D01*
X200089120Y-85338975D01*
X200287955Y-85471833D01*
X200508889Y-85563347D01*
X200743431Y-85610000D01*
X200982569Y-85610000D01*
X201217111Y-85563347D01*
X201438045Y-85471833D01*
X201636880Y-85338975D01*
X201805975Y-85169880D01*
X201935510Y-84976017D01*
X214598090Y-84976017D01*
X214639078Y-85248133D01*
X214732364Y-85507023D01*
X214794344Y-85622980D01*
X215034435Y-85689960D01*
X215820395Y-84904000D01*
X216179605Y-84904000D01*
X216965565Y-85689960D01*
X217205656Y-85622980D01*
X217322756Y-85373952D01*
X217389023Y-85106865D01*
X217401910Y-84831983D01*
X217360922Y-84559867D01*
X217267636Y-84300977D01*
X217205656Y-84185020D01*
X216965565Y-84118040D01*
X216179605Y-84904000D01*
X215820395Y-84904000D01*
X215034435Y-84118040D01*
X214794344Y-84185020D01*
X214677244Y-84434048D01*
X214610977Y-84701135D01*
X214598090Y-84976017D01*
X201935510Y-84976017D01*
X201938833Y-84971045D01*
X202030347Y-84750111D01*
X202077000Y-84515569D01*
X202077000Y-84276431D01*
X202061001Y-84195999D01*
X203326679Y-84195999D01*
X203364001Y-84199675D01*
X203401323Y-84195999D01*
X203401334Y-84195999D01*
X203512987Y-84185002D01*
X203656248Y-84141545D01*
X203788277Y-84070973D01*
X203872279Y-84002034D01*
X203887088Y-84008168D01*
X204202967Y-84071000D01*
X204525033Y-84071000D01*
X204840912Y-84008168D01*
X205138463Y-83884918D01*
X205406252Y-83705987D01*
X205633987Y-83478252D01*
X205812918Y-83210463D01*
X205818909Y-83196000D01*
X209409091Y-83196000D01*
X209415082Y-83210463D01*
X209594013Y-83478252D01*
X209821748Y-83705987D01*
X210089537Y-83884918D01*
X210387088Y-84008168D01*
X210702967Y-84071000D01*
X211025033Y-84071000D01*
X211340912Y-84008168D01*
X211638463Y-83884918D01*
X211906252Y-83705987D01*
X212133987Y-83478252D01*
X212312918Y-83210463D01*
X212436168Y-82912912D01*
X212499000Y-82597033D01*
X212499000Y-82274967D01*
X212489342Y-82226408D01*
X214603000Y-82226408D01*
X214603000Y-82501592D01*
X214656686Y-82771490D01*
X214761995Y-83025727D01*
X214914880Y-83254535D01*
X215109465Y-83449120D01*
X215338273Y-83602005D01*
X215409943Y-83631692D01*
X215396977Y-83636364D01*
X215281020Y-83698344D01*
X215214040Y-83938435D01*
X216000000Y-84724395D01*
X216785960Y-83938435D01*
X216718980Y-83698344D01*
X216583240Y-83634515D01*
X216661727Y-83602005D01*
X216890535Y-83449120D01*
X217085120Y-83254535D01*
X217238005Y-83025727D01*
X217343314Y-82771490D01*
X217397000Y-82501592D01*
X217397000Y-82226408D01*
X217395701Y-82219878D01*
X217807050Y-81808529D01*
X217840818Y-81780816D01*
X217877245Y-81736431D01*
X217951411Y-81646059D01*
X217977576Y-81597108D01*
X218033590Y-81492312D01*
X218084196Y-81325489D01*
X218097001Y-81195476D01*
X218097001Y-81195466D01*
X218101282Y-81152000D01*
X218097001Y-81108534D01*
X218097001Y-60255466D01*
X218101282Y-60212000D01*
X218097001Y-60168534D01*
X218097001Y-60168524D01*
X218084196Y-60038511D01*
X218033590Y-59871688D01*
X217951412Y-59717942D01*
X217926462Y-59687540D01*
X217868533Y-59616954D01*
X217868531Y-59616952D01*
X217840818Y-59583184D01*
X217807051Y-59555472D01*
X217006535Y-58754957D01*
X216995226Y-58698102D01*
X216917205Y-58509744D01*
X216803937Y-58340226D01*
X216659774Y-58196063D01*
X216490256Y-58082795D01*
X216301898Y-58004774D01*
X216101939Y-57965000D01*
X215898061Y-57965000D01*
X215698102Y-58004774D01*
X215509744Y-58082795D01*
X215340226Y-58196063D01*
X215196063Y-58340226D01*
X215082795Y-58509744D01*
X215004774Y-58698102D01*
X214965000Y-58898061D01*
X214965000Y-59101939D01*
X215004774Y-59301898D01*
X215082795Y-59490256D01*
X215196063Y-59659774D01*
X215340226Y-59803937D01*
X215509744Y-59917205D01*
X215698102Y-59995226D01*
X215754957Y-60006535D01*
X216327001Y-60578580D01*
X216327002Y-80785419D01*
X216144122Y-80968299D01*
X216137592Y-80967000D01*
X215862408Y-80967000D01*
X215592510Y-81020686D01*
X215338273Y-81125995D01*
X215109465Y-81278880D01*
X214914880Y-81473465D01*
X214761995Y-81702273D01*
X214656686Y-81956510D01*
X214603000Y-82226408D01*
X212489342Y-82226408D01*
X212436168Y-81959088D01*
X212312918Y-81661537D01*
X212133987Y-81393748D01*
X211906252Y-81166013D01*
X211638463Y-80987082D01*
X211340912Y-80863832D01*
X211025033Y-80801000D01*
X210702967Y-80801000D01*
X210387088Y-80863832D01*
X210089537Y-80987082D01*
X209821748Y-81166013D01*
X209594013Y-81393748D01*
X209415082Y-81661537D01*
X209409091Y-81676000D01*
X205818909Y-81676000D01*
X205812918Y-81661537D01*
X205633987Y-81393748D01*
X205406252Y-81166013D01*
X205138463Y-80987082D01*
X204840912Y-80863832D01*
X204525033Y-80801000D01*
X204202967Y-80801000D01*
X203887088Y-80863832D01*
X203589537Y-80987082D01*
X203321748Y-81166013D01*
X203094013Y-81393748D01*
X202915082Y-81661537D01*
X202791832Y-81959088D01*
X202729000Y-82274967D01*
X202729000Y-82597033D01*
X202744707Y-82675999D01*
X201759856Y-82675999D01*
X201805975Y-82629880D01*
X201938833Y-82431045D01*
X202030347Y-82210111D01*
X202077000Y-81975569D01*
X202077000Y-81736431D01*
X202030347Y-81501889D01*
X201938833Y-81280955D01*
X201805975Y-81082120D01*
X201636880Y-80913025D01*
X201438045Y-80780167D01*
X201217111Y-80688653D01*
X200982569Y-80642000D01*
X200743431Y-80642000D01*
X200508889Y-80688653D01*
X200287955Y-80780167D01*
X200089120Y-80913025D01*
X199920025Y-81082120D01*
X199787167Y-81280955D01*
X199695653Y-81501889D01*
X199649000Y-81736431D01*
X199649000Y-81975569D01*
X199695653Y-82210111D01*
X199787167Y-82431045D01*
X199920025Y-82629880D01*
X199966144Y-82675999D01*
X193922323Y-82675999D01*
X193885000Y-82672323D01*
X193847677Y-82675999D01*
X193847668Y-82675999D01*
X193819036Y-82678819D01*
X193867975Y-82629880D01*
X194000833Y-82431045D01*
X194092347Y-82210111D01*
X194139000Y-81975569D01*
X194139000Y-81736431D01*
X194092347Y-81501889D01*
X194000833Y-81280955D01*
X193867975Y-81082120D01*
X193698880Y-80913025D01*
X193500045Y-80780167D01*
X193279111Y-80688653D01*
X193044569Y-80642000D01*
X192805431Y-80642000D01*
X192570889Y-80688653D01*
X192349955Y-80780167D01*
X192151120Y-80913025D01*
X191982025Y-81082120D01*
X191849167Y-81280955D01*
X191757653Y-81501889D01*
X191711000Y-81736431D01*
X191711000Y-81975569D01*
X191757653Y-82210111D01*
X191849167Y-82431045D01*
X191982025Y-82629880D01*
X192028672Y-82676527D01*
X189915376Y-84789823D01*
X189900912Y-84783832D01*
X189585033Y-84721000D01*
X189262967Y-84721000D01*
X188947088Y-84783832D01*
X188649537Y-84907082D01*
X188381748Y-85086013D01*
X188154013Y-85313748D01*
X187975082Y-85581537D01*
X187969091Y-85596000D01*
X184378909Y-85596000D01*
X184372918Y-85581537D01*
X184193987Y-85313748D01*
X183966252Y-85086013D01*
X183698463Y-84907082D01*
X183400912Y-84783832D01*
X183085033Y-84721000D01*
X182762967Y-84721000D01*
X182447088Y-84783832D01*
X182149537Y-84907082D01*
X181881748Y-85086013D01*
X181654013Y-85313748D01*
X181475082Y-85581537D01*
X181469091Y-85596000D01*
X178593799Y-85596000D01*
X181198386Y-82991413D01*
X181968192Y-82991413D01*
X182063956Y-83255814D01*
X182353571Y-83396704D01*
X182665108Y-83478384D01*
X182986595Y-83497718D01*
X183305675Y-83453961D01*
X183610088Y-83348795D01*
X183784044Y-83255814D01*
X183879808Y-82991413D01*
X188468192Y-82991413D01*
X188563956Y-83255814D01*
X188853571Y-83396704D01*
X189165108Y-83478384D01*
X189486595Y-83497718D01*
X189805675Y-83453961D01*
X190110088Y-83348795D01*
X190284044Y-83255814D01*
X190379808Y-82991413D01*
X189424000Y-82035605D01*
X188468192Y-82991413D01*
X183879808Y-82991413D01*
X182924000Y-82035605D01*
X181968192Y-82991413D01*
X181198386Y-82991413D01*
X181506620Y-82683180D01*
X181524186Y-82716044D01*
X181788587Y-82811808D01*
X182744395Y-81856000D01*
X183103605Y-81856000D01*
X184059413Y-82811808D01*
X184323814Y-82716044D01*
X184464704Y-82426429D01*
X184546384Y-82114892D01*
X184558189Y-81918595D01*
X187782282Y-81918595D01*
X187826039Y-82237675D01*
X187931205Y-82542088D01*
X188024186Y-82716044D01*
X188288587Y-82811808D01*
X189244395Y-81856000D01*
X189603605Y-81856000D01*
X190559413Y-82811808D01*
X190823814Y-82716044D01*
X190964704Y-82426429D01*
X191046384Y-82114892D01*
X191065718Y-81793405D01*
X191021961Y-81474325D01*
X190916795Y-81169912D01*
X190823814Y-80995956D01*
X190559413Y-80900192D01*
X189603605Y-81856000D01*
X189244395Y-81856000D01*
X188288587Y-80900192D01*
X188024186Y-80995956D01*
X187883296Y-81285571D01*
X187801616Y-81597108D01*
X187782282Y-81918595D01*
X184558189Y-81918595D01*
X184565718Y-81793405D01*
X184521961Y-81474325D01*
X184416795Y-81169912D01*
X184323814Y-80995956D01*
X184059413Y-80900192D01*
X183103605Y-81856000D01*
X182744395Y-81856000D01*
X182730253Y-81841858D01*
X182909858Y-81662253D01*
X182924000Y-81676395D01*
X183879808Y-80720587D01*
X188468192Y-80720587D01*
X189424000Y-81676395D01*
X190379808Y-80720587D01*
X190284044Y-80456186D01*
X189994429Y-80315296D01*
X189682892Y-80233616D01*
X189361405Y-80214282D01*
X189042325Y-80258039D01*
X188737912Y-80363205D01*
X188563956Y-80456186D01*
X188468192Y-80720587D01*
X183879808Y-80720587D01*
X183784044Y-80456186D01*
X183494429Y-80315296D01*
X183182892Y-80233616D01*
X182861405Y-80214282D01*
X182542325Y-80258039D01*
X182358999Y-80321373D01*
X182358999Y-78600000D01*
X185761928Y-78600000D01*
X185774188Y-78724482D01*
X185810498Y-78844180D01*
X185869463Y-78954494D01*
X185948815Y-79051185D01*
X186045506Y-79130537D01*
X186155820Y-79189502D01*
X186275518Y-79225812D01*
X186400000Y-79238072D01*
X186714250Y-79235000D01*
X186873000Y-79076250D01*
X186873000Y-78127000D01*
X187127000Y-78127000D01*
X187127000Y-79076250D01*
X187285750Y-79235000D01*
X187600000Y-79238072D01*
X187724482Y-79225812D01*
X187821338Y-79196431D01*
X191711000Y-79196431D01*
X191711000Y-79435569D01*
X191757653Y-79670111D01*
X191849167Y-79891045D01*
X191982025Y-80089880D01*
X192151120Y-80258975D01*
X192349955Y-80391833D01*
X192570889Y-80483347D01*
X192805431Y-80530000D01*
X193044569Y-80530000D01*
X193279111Y-80483347D01*
X193500045Y-80391833D01*
X193698880Y-80258975D01*
X193867975Y-80089880D01*
X194000833Y-79891045D01*
X194092347Y-79670111D01*
X194139000Y-79435569D01*
X194139000Y-79196431D01*
X199649000Y-79196431D01*
X199649000Y-79435569D01*
X199695653Y-79670111D01*
X199787167Y-79891045D01*
X199920025Y-80089880D01*
X200089120Y-80258975D01*
X200287955Y-80391833D01*
X200508889Y-80483347D01*
X200743431Y-80530000D01*
X200982569Y-80530000D01*
X201217111Y-80483347D01*
X201438045Y-80391833D01*
X201636880Y-80258975D01*
X201805975Y-80089880D01*
X201938833Y-79891045D01*
X202030347Y-79670111D01*
X202077000Y-79435569D01*
X202077000Y-79196431D01*
X202030347Y-78961889D01*
X201938833Y-78740955D01*
X201805975Y-78542120D01*
X201636880Y-78373025D01*
X201438045Y-78240167D01*
X201217111Y-78148653D01*
X200982569Y-78102000D01*
X200743431Y-78102000D01*
X200508889Y-78148653D01*
X200287955Y-78240167D01*
X200089120Y-78373025D01*
X199920025Y-78542120D01*
X199787167Y-78740955D01*
X199695653Y-78961889D01*
X199649000Y-79196431D01*
X194139000Y-79196431D01*
X194092347Y-78961889D01*
X194000833Y-78740955D01*
X193867975Y-78542120D01*
X193698880Y-78373025D01*
X193500045Y-78240167D01*
X193279111Y-78148653D01*
X193044569Y-78102000D01*
X192805431Y-78102000D01*
X192570889Y-78148653D01*
X192349955Y-78240167D01*
X192151120Y-78373025D01*
X191982025Y-78542120D01*
X191849167Y-78740955D01*
X191757653Y-78961889D01*
X191711000Y-79196431D01*
X187821338Y-79196431D01*
X187844180Y-79189502D01*
X187954494Y-79130537D01*
X188051185Y-79051185D01*
X188130537Y-78954494D01*
X188189502Y-78844180D01*
X188225812Y-78724482D01*
X188238072Y-78600000D01*
X188235000Y-78285750D01*
X188076250Y-78127000D01*
X187127000Y-78127000D01*
X186873000Y-78127000D01*
X185923750Y-78127000D01*
X185765000Y-78285750D01*
X185761928Y-78600000D01*
X182358999Y-78600000D01*
X182358999Y-77400000D01*
X185761928Y-77400000D01*
X185765000Y-77714250D01*
X185923750Y-77873000D01*
X186873000Y-77873000D01*
X186873000Y-77853000D01*
X187127000Y-77853000D01*
X187127000Y-77873000D01*
X188076250Y-77873000D01*
X188235000Y-77714250D01*
X188238072Y-77400000D01*
X188225812Y-77275518D01*
X188189502Y-77155820D01*
X188130537Y-77045506D01*
X188117419Y-77029522D01*
X188187540Y-76860236D01*
X188228079Y-76656431D01*
X191711000Y-76656431D01*
X191711000Y-76895569D01*
X191757653Y-77130111D01*
X191849167Y-77351045D01*
X191982025Y-77549880D01*
X192151120Y-77718975D01*
X192349955Y-77851833D01*
X192570889Y-77943347D01*
X192805431Y-77990000D01*
X193044569Y-77990000D01*
X193279111Y-77943347D01*
X193500045Y-77851833D01*
X193698880Y-77718975D01*
X193867975Y-77549880D01*
X194000833Y-77351045D01*
X194092347Y-77130111D01*
X194139000Y-76895569D01*
X194139000Y-76656431D01*
X199649000Y-76656431D01*
X199649000Y-76895569D01*
X199695653Y-77130111D01*
X199787167Y-77351045D01*
X199920025Y-77549880D01*
X200089120Y-77718975D01*
X200287955Y-77851833D01*
X200508889Y-77943347D01*
X200743431Y-77990000D01*
X200982569Y-77990000D01*
X201217111Y-77943347D01*
X201438045Y-77851833D01*
X201636880Y-77718975D01*
X201805975Y-77549880D01*
X201938833Y-77351045D01*
X202030347Y-77130111D01*
X202077000Y-76895569D01*
X202077000Y-76656431D01*
X202065776Y-76600000D01*
X205761928Y-76600000D01*
X205774188Y-76724482D01*
X205810498Y-76844180D01*
X205869463Y-76954494D01*
X205882581Y-76970478D01*
X205812460Y-77139764D01*
X205765000Y-77378363D01*
X205765000Y-77621637D01*
X205812460Y-77860236D01*
X205905557Y-78084992D01*
X206040713Y-78287267D01*
X206212733Y-78459287D01*
X206415008Y-78594443D01*
X206639764Y-78687540D01*
X206878363Y-78735000D01*
X207121637Y-78735000D01*
X207360236Y-78687540D01*
X207584992Y-78594443D01*
X207787267Y-78459287D01*
X207959287Y-78287267D01*
X208094443Y-78084992D01*
X208187540Y-77860236D01*
X208235000Y-77621637D01*
X208235000Y-77378363D01*
X208187540Y-77139764D01*
X208117419Y-76970478D01*
X208130537Y-76954494D01*
X208189502Y-76844180D01*
X208225812Y-76724482D01*
X208234657Y-76634665D01*
X210953000Y-76634665D01*
X210953000Y-76917335D01*
X211008147Y-77194574D01*
X211116320Y-77455727D01*
X211273363Y-77690759D01*
X211473241Y-77890637D01*
X211708273Y-78047680D01*
X211969426Y-78155853D01*
X212246665Y-78211000D01*
X212529335Y-78211000D01*
X212806574Y-78155853D01*
X213067727Y-78047680D01*
X213302759Y-77890637D01*
X213502637Y-77690759D01*
X213659680Y-77455727D01*
X213767853Y-77194574D01*
X213823000Y-76917335D01*
X213823000Y-76634665D01*
X213767853Y-76357426D01*
X213659680Y-76096273D01*
X213502637Y-75861241D01*
X213302759Y-75661363D01*
X213067727Y-75504320D01*
X212806574Y-75396147D01*
X212529335Y-75341000D01*
X212246665Y-75341000D01*
X211969426Y-75396147D01*
X211708273Y-75504320D01*
X211473241Y-75661363D01*
X211273363Y-75861241D01*
X211116320Y-76096273D01*
X211008147Y-76357426D01*
X210953000Y-76634665D01*
X208234657Y-76634665D01*
X208238072Y-76600000D01*
X208235000Y-76285750D01*
X208076250Y-76127000D01*
X207127000Y-76127000D01*
X207127000Y-76147000D01*
X206873000Y-76147000D01*
X206873000Y-76127000D01*
X205923750Y-76127000D01*
X205765000Y-76285750D01*
X205761928Y-76600000D01*
X202065776Y-76600000D01*
X202030347Y-76421889D01*
X201938833Y-76200955D01*
X201805975Y-76002120D01*
X201636880Y-75833025D01*
X201438045Y-75700167D01*
X201217111Y-75608653D01*
X200982569Y-75562000D01*
X200743431Y-75562000D01*
X200508889Y-75608653D01*
X200287955Y-75700167D01*
X200089120Y-75833025D01*
X199920025Y-76002120D01*
X199787167Y-76200955D01*
X199695653Y-76421889D01*
X199649000Y-76656431D01*
X194139000Y-76656431D01*
X194092347Y-76421889D01*
X194000833Y-76200955D01*
X193867975Y-76002120D01*
X193698880Y-75833025D01*
X193500045Y-75700167D01*
X193279111Y-75608653D01*
X193044569Y-75562000D01*
X192805431Y-75562000D01*
X192570889Y-75608653D01*
X192349955Y-75700167D01*
X192151120Y-75833025D01*
X191982025Y-76002120D01*
X191849167Y-76200955D01*
X191757653Y-76421889D01*
X191711000Y-76656431D01*
X188228079Y-76656431D01*
X188235000Y-76621637D01*
X188235000Y-76378363D01*
X188187540Y-76139764D01*
X188094443Y-75915008D01*
X187959287Y-75712733D01*
X187787267Y-75540713D01*
X187584992Y-75405557D01*
X187360236Y-75312460D01*
X187121637Y-75265000D01*
X186878363Y-75265000D01*
X186639764Y-75312460D01*
X186415008Y-75405557D01*
X186212733Y-75540713D01*
X186040713Y-75712733D01*
X185905557Y-75915008D01*
X185812460Y-76139764D01*
X185765000Y-76378363D01*
X185765000Y-76621637D01*
X185812460Y-76860236D01*
X185882581Y-77029522D01*
X185869463Y-77045506D01*
X185810498Y-77155820D01*
X185774188Y-77275518D01*
X185761928Y-77400000D01*
X182358999Y-77400000D01*
X182358999Y-75296804D01*
X183539372Y-74116431D01*
X191711000Y-74116431D01*
X191711000Y-74355569D01*
X191757653Y-74590111D01*
X191849167Y-74811045D01*
X191982025Y-75009880D01*
X192151120Y-75178975D01*
X192349955Y-75311833D01*
X192570889Y-75403347D01*
X192805431Y-75450000D01*
X193044569Y-75450000D01*
X193279111Y-75403347D01*
X193500045Y-75311833D01*
X193698880Y-75178975D01*
X193807118Y-75070737D01*
X200207868Y-75070737D01*
X200252618Y-75292185D01*
X200470397Y-75390970D01*
X200703265Y-75445370D01*
X200942270Y-75453295D01*
X201178230Y-75414440D01*
X201216645Y-75400000D01*
X205761928Y-75400000D01*
X205765000Y-75714250D01*
X205923750Y-75873000D01*
X206873000Y-75873000D01*
X206873000Y-74923750D01*
X207127000Y-74923750D01*
X207127000Y-75873000D01*
X208076250Y-75873000D01*
X208235000Y-75714250D01*
X208238072Y-75400000D01*
X208225812Y-75275518D01*
X208189502Y-75155820D01*
X208130537Y-75045506D01*
X208051185Y-74948815D01*
X207954494Y-74869463D01*
X207844180Y-74810498D01*
X207724482Y-74774188D01*
X207600000Y-74761928D01*
X207285750Y-74765000D01*
X207127000Y-74923750D01*
X206873000Y-74923750D01*
X206714250Y-74765000D01*
X206400000Y-74761928D01*
X206275518Y-74774188D01*
X206155820Y-74810498D01*
X206045506Y-74869463D01*
X205948815Y-74948815D01*
X205869463Y-75045506D01*
X205810498Y-75155820D01*
X205774188Y-75275518D01*
X205761928Y-75400000D01*
X201216645Y-75400000D01*
X201402075Y-75330298D01*
X201473382Y-75292185D01*
X201518132Y-75070737D01*
X200863000Y-74415605D01*
X200207868Y-75070737D01*
X193807118Y-75070737D01*
X193867975Y-75009880D01*
X194000833Y-74811045D01*
X194092347Y-74590111D01*
X194139000Y-74355569D01*
X194139000Y-74315270D01*
X199645705Y-74315270D01*
X199684560Y-74551230D01*
X199768702Y-74775075D01*
X199806815Y-74846382D01*
X200028263Y-74891132D01*
X200683395Y-74236000D01*
X201042605Y-74236000D01*
X201697737Y-74891132D01*
X201919185Y-74846382D01*
X202017970Y-74628603D01*
X202072370Y-74395735D01*
X202080295Y-74156730D01*
X202041440Y-73920770D01*
X201957298Y-73696925D01*
X201919185Y-73625618D01*
X201697737Y-73580868D01*
X201042605Y-74236000D01*
X200683395Y-74236000D01*
X200028263Y-73580868D01*
X199806815Y-73625618D01*
X199708030Y-73843397D01*
X199653630Y-74076265D01*
X199645705Y-74315270D01*
X194139000Y-74315270D01*
X194139000Y-74116431D01*
X194092347Y-73881889D01*
X194000833Y-73660955D01*
X193867975Y-73462120D01*
X193807118Y-73401263D01*
X200207868Y-73401263D01*
X200863000Y-74056395D01*
X201518132Y-73401263D01*
X201473382Y-73179815D01*
X201255603Y-73081030D01*
X201022735Y-73026630D01*
X200783730Y-73018705D01*
X200547770Y-73057560D01*
X200323925Y-73141702D01*
X200252618Y-73179815D01*
X200207868Y-73401263D01*
X193807118Y-73401263D01*
X193698880Y-73293025D01*
X193500045Y-73160167D01*
X193279111Y-73068653D01*
X193044569Y-73022000D01*
X192805431Y-73022000D01*
X192570889Y-73068653D01*
X192349955Y-73160167D01*
X192151120Y-73293025D01*
X191982025Y-73462120D01*
X191849167Y-73660955D01*
X191757653Y-73881889D01*
X191711000Y-74116431D01*
X183539372Y-74116431D01*
X187600755Y-70055048D01*
X187559000Y-70264967D01*
X187559000Y-70587033D01*
X187621832Y-70902912D01*
X187745082Y-71200463D01*
X187924013Y-71468252D01*
X188151748Y-71695987D01*
X188419537Y-71874918D01*
X188717088Y-71998168D01*
X189032967Y-72061000D01*
X189355033Y-72061000D01*
X189670912Y-71998168D01*
X189968463Y-71874918D01*
X190236252Y-71695987D01*
X190355808Y-71576431D01*
X191711000Y-71576431D01*
X191711000Y-71815569D01*
X191757653Y-72050111D01*
X191849167Y-72271045D01*
X191982025Y-72469880D01*
X192151120Y-72638975D01*
X192349955Y-72771833D01*
X192570889Y-72863347D01*
X192805431Y-72910000D01*
X193044569Y-72910000D01*
X193279111Y-72863347D01*
X193500045Y-72771833D01*
X193698880Y-72638975D01*
X193867975Y-72469880D01*
X194000833Y-72271045D01*
X194092347Y-72050111D01*
X194139000Y-71815569D01*
X194139000Y-71576431D01*
X194092347Y-71341889D01*
X194000833Y-71120955D01*
X193867975Y-70922120D01*
X193698880Y-70753025D01*
X193500045Y-70620167D01*
X193279111Y-70528653D01*
X193044569Y-70482000D01*
X192805431Y-70482000D01*
X192570889Y-70528653D01*
X192349955Y-70620167D01*
X192151120Y-70753025D01*
X191982025Y-70922120D01*
X191849167Y-71120955D01*
X191757653Y-71341889D01*
X191711000Y-71576431D01*
X190355808Y-71576431D01*
X190463987Y-71468252D01*
X190642918Y-71200463D01*
X190766168Y-70902912D01*
X190829000Y-70587033D01*
X190829000Y-70264967D01*
X190766168Y-69949088D01*
X190642918Y-69651537D01*
X190463987Y-69383748D01*
X190236252Y-69156013D01*
X190057286Y-69036431D01*
X191711000Y-69036431D01*
X191711000Y-69275569D01*
X191757653Y-69510111D01*
X191849167Y-69731045D01*
X191982025Y-69929880D01*
X192151120Y-70098975D01*
X192349955Y-70231833D01*
X192570889Y-70323347D01*
X192805431Y-70370000D01*
X193044569Y-70370000D01*
X193279111Y-70323347D01*
X193500045Y-70231833D01*
X193698880Y-70098975D01*
X193867975Y-69929880D01*
X194000833Y-69731045D01*
X194092347Y-69510111D01*
X194139000Y-69275569D01*
X194139000Y-69036431D01*
X194092347Y-68801889D01*
X194000833Y-68580955D01*
X193867975Y-68382120D01*
X193698880Y-68213025D01*
X193500045Y-68080167D01*
X193279111Y-67988653D01*
X193044569Y-67942000D01*
X192805431Y-67942000D01*
X192570889Y-67988653D01*
X192349955Y-68080167D01*
X192151120Y-68213025D01*
X191982025Y-68382120D01*
X191849167Y-68580955D01*
X191757653Y-68801889D01*
X191711000Y-69036431D01*
X190057286Y-69036431D01*
X189968463Y-68977082D01*
X189670912Y-68853832D01*
X189355033Y-68791000D01*
X189032967Y-68791000D01*
X188823049Y-68832755D01*
X189785003Y-67870801D01*
X189814001Y-67847003D01*
X189908974Y-67731278D01*
X189979546Y-67599249D01*
X190023003Y-67455988D01*
X190034000Y-67344335D01*
X190037677Y-67307002D01*
X190034000Y-67269669D01*
X190034000Y-66564043D01*
X190135189Y-66496431D01*
X191711000Y-66496431D01*
X191711000Y-66735569D01*
X191757653Y-66970111D01*
X191849167Y-67191045D01*
X191982025Y-67389880D01*
X192151120Y-67558975D01*
X192349955Y-67691833D01*
X192570889Y-67783347D01*
X192805431Y-67830000D01*
X193044569Y-67830000D01*
X193279111Y-67783347D01*
X193500045Y-67691833D01*
X193698880Y-67558975D01*
X193867975Y-67389880D01*
X194000833Y-67191045D01*
X194092347Y-66970111D01*
X194139000Y-66735569D01*
X194139000Y-66496431D01*
X194092347Y-66261889D01*
X194000833Y-66040955D01*
X193867975Y-65842120D01*
X193698880Y-65673025D01*
X193500045Y-65540167D01*
X193279111Y-65448653D01*
X193044569Y-65402000D01*
X192805431Y-65402000D01*
X192570889Y-65448653D01*
X192349955Y-65540167D01*
X192151120Y-65673025D01*
X191982025Y-65842120D01*
X191849167Y-66040955D01*
X191757653Y-66261889D01*
X191711000Y-66496431D01*
X190135189Y-66496431D01*
X190188759Y-66460637D01*
X190388637Y-66260759D01*
X190545680Y-66025727D01*
X190653853Y-65764574D01*
X190709000Y-65487335D01*
X190709000Y-65204665D01*
X190653853Y-64927426D01*
X190545680Y-64666273D01*
X190388637Y-64431241D01*
X190188759Y-64231363D01*
X189956241Y-64076000D01*
X190135189Y-63956431D01*
X191711000Y-63956431D01*
X191711000Y-64195569D01*
X191757653Y-64430111D01*
X191849167Y-64651045D01*
X191982025Y-64849880D01*
X192151120Y-65018975D01*
X192349955Y-65151833D01*
X192570889Y-65243347D01*
X192805431Y-65290000D01*
X193044569Y-65290000D01*
X193279111Y-65243347D01*
X193500045Y-65151833D01*
X193698880Y-65018975D01*
X193867975Y-64849880D01*
X194000833Y-64651045D01*
X194092347Y-64430111D01*
X194139000Y-64195569D01*
X194139000Y-63956431D01*
X199649000Y-63956431D01*
X199649000Y-64195569D01*
X199695653Y-64430111D01*
X199787167Y-64651045D01*
X199920025Y-64849880D01*
X200089120Y-65018975D01*
X200287955Y-65151833D01*
X200508889Y-65243347D01*
X200743431Y-65290000D01*
X200982569Y-65290000D01*
X200998941Y-65286743D01*
X201007002Y-65294804D01*
X201007002Y-65406860D01*
X200982569Y-65402000D01*
X200743431Y-65402000D01*
X200508889Y-65448653D01*
X200287955Y-65540167D01*
X200089120Y-65673025D01*
X199920025Y-65842120D01*
X199787167Y-66040955D01*
X199695653Y-66261889D01*
X199649000Y-66496431D01*
X199649000Y-66735569D01*
X199695653Y-66970111D01*
X199787167Y-67191045D01*
X199920025Y-67389880D01*
X200089120Y-67558975D01*
X200287955Y-67691833D01*
X200508889Y-67783347D01*
X200743431Y-67830000D01*
X200982569Y-67830000D01*
X201217111Y-67783347D01*
X201438045Y-67691833D01*
X201447518Y-67685503D01*
X204998942Y-71236928D01*
X204745000Y-71236928D01*
X204620518Y-71249188D01*
X204500820Y-71285498D01*
X204390506Y-71344463D01*
X204293815Y-71423815D01*
X204254059Y-71472258D01*
X202073743Y-69291942D01*
X202077000Y-69275569D01*
X202077000Y-69036431D01*
X202030347Y-68801889D01*
X201938833Y-68580955D01*
X201805975Y-68382120D01*
X201636880Y-68213025D01*
X201438045Y-68080167D01*
X201217111Y-67988653D01*
X200982569Y-67942000D01*
X200743431Y-67942000D01*
X200508889Y-67988653D01*
X200287955Y-68080167D01*
X200089120Y-68213025D01*
X199920025Y-68382120D01*
X199787167Y-68580955D01*
X199695653Y-68801889D01*
X199649000Y-69036431D01*
X199649000Y-69275569D01*
X199695653Y-69510111D01*
X199787167Y-69731045D01*
X199920025Y-69929880D01*
X200089120Y-70098975D01*
X200287955Y-70231833D01*
X200508889Y-70323347D01*
X200743431Y-70370000D01*
X200982569Y-70370000D01*
X200998942Y-70366743D01*
X201146883Y-70514684D01*
X200982569Y-70482000D01*
X200743431Y-70482000D01*
X200508889Y-70528653D01*
X200287955Y-70620167D01*
X200089120Y-70753025D01*
X199920025Y-70922120D01*
X199787167Y-71120955D01*
X199695653Y-71341889D01*
X199649000Y-71576431D01*
X199649000Y-71815569D01*
X199695653Y-72050111D01*
X199787167Y-72271045D01*
X199920025Y-72469880D01*
X200089120Y-72638975D01*
X200287955Y-72771833D01*
X200508889Y-72863347D01*
X200743431Y-72910000D01*
X200982569Y-72910000D01*
X201217111Y-72863347D01*
X201438045Y-72771833D01*
X201636880Y-72638975D01*
X201805975Y-72469880D01*
X201938833Y-72271045D01*
X202030347Y-72050111D01*
X202077000Y-71815569D01*
X202077000Y-71576431D01*
X202044316Y-71412118D01*
X203793201Y-73161003D01*
X203816999Y-73190001D01*
X203932724Y-73284974D01*
X204064753Y-73355546D01*
X204106928Y-73368339D01*
X204106928Y-73425000D01*
X204119188Y-73549482D01*
X204155498Y-73669180D01*
X204214463Y-73779494D01*
X204293815Y-73876185D01*
X204390506Y-73955537D01*
X204500820Y-74014502D01*
X204620518Y-74050812D01*
X204745000Y-74063072D01*
X205445000Y-74063072D01*
X205569482Y-74050812D01*
X205689180Y-74014502D01*
X205730000Y-73992683D01*
X205770820Y-74014502D01*
X205890518Y-74050812D01*
X206015000Y-74063072D01*
X206715000Y-74063072D01*
X206839482Y-74050812D01*
X206959180Y-74014502D01*
X207000000Y-73992683D01*
X207040820Y-74014502D01*
X207160518Y-74050812D01*
X207285000Y-74063072D01*
X207349250Y-74060000D01*
X207508000Y-73901250D01*
X207508000Y-72777000D01*
X207488000Y-72777000D01*
X207488000Y-72523000D01*
X207508000Y-72523000D01*
X207508000Y-71398750D01*
X207762000Y-71398750D01*
X207762000Y-72523000D01*
X207782000Y-72523000D01*
X207782000Y-72777000D01*
X207762000Y-72777000D01*
X207762000Y-73901250D01*
X207920750Y-74060000D01*
X207985000Y-74063072D01*
X208109482Y-74050812D01*
X208229180Y-74014502D01*
X208270000Y-73992683D01*
X208310820Y-74014502D01*
X208430518Y-74050812D01*
X208555000Y-74063072D01*
X209255000Y-74063072D01*
X209379482Y-74050812D01*
X209499180Y-74014502D01*
X209609494Y-73955537D01*
X209695444Y-73885000D01*
X211461546Y-73885000D01*
X211509744Y-73917205D01*
X211698102Y-73995226D01*
X211898061Y-74035000D01*
X212101939Y-74035000D01*
X212301898Y-73995226D01*
X212490256Y-73917205D01*
X212659774Y-73803937D01*
X212803937Y-73659774D01*
X212917205Y-73490256D01*
X212995226Y-73301898D01*
X213035000Y-73101939D01*
X213035000Y-72898061D01*
X212995226Y-72698102D01*
X212917205Y-72509744D01*
X212803937Y-72340226D01*
X212659774Y-72196063D01*
X212490256Y-72082795D01*
X212301898Y-72004774D01*
X212101939Y-71965000D01*
X211898061Y-71965000D01*
X211698102Y-72004774D01*
X211509744Y-72082795D01*
X211461546Y-72115000D01*
X209893072Y-72115000D01*
X209893072Y-71875000D01*
X209880812Y-71750518D01*
X209844502Y-71630820D01*
X209785537Y-71520506D01*
X209706185Y-71423815D01*
X209609494Y-71344463D01*
X209499180Y-71285498D01*
X209379482Y-71249188D01*
X209255000Y-71236928D01*
X208555000Y-71236928D01*
X208430518Y-71249188D01*
X208310820Y-71285498D01*
X208270000Y-71307317D01*
X208229180Y-71285498D01*
X208109482Y-71249188D01*
X207985000Y-71236928D01*
X207920750Y-71240000D01*
X207762000Y-71398750D01*
X207508000Y-71398750D01*
X207349250Y-71240000D01*
X207285000Y-71236928D01*
X207160518Y-71249188D01*
X207081808Y-71273064D01*
X207070546Y-71235937D01*
X206999974Y-71103908D01*
X206928799Y-71017181D01*
X206905001Y-70988183D01*
X206876003Y-70964385D01*
X204926283Y-69014665D01*
X210953000Y-69014665D01*
X210953000Y-69297335D01*
X211008147Y-69574574D01*
X211116320Y-69835727D01*
X211273363Y-70070759D01*
X211473241Y-70270637D01*
X211708273Y-70427680D01*
X211969426Y-70535853D01*
X212246665Y-70591000D01*
X212529335Y-70591000D01*
X212806574Y-70535853D01*
X213067727Y-70427680D01*
X213302759Y-70270637D01*
X213502637Y-70070759D01*
X213659680Y-69835727D01*
X213767853Y-69574574D01*
X213823000Y-69297335D01*
X213823000Y-69014665D01*
X213767853Y-68737426D01*
X213659680Y-68476273D01*
X213502637Y-68241241D01*
X213302759Y-68041363D01*
X213067727Y-67884320D01*
X212806574Y-67776147D01*
X212529335Y-67721000D01*
X212246665Y-67721000D01*
X211969426Y-67776147D01*
X211708273Y-67884320D01*
X211473241Y-68041363D01*
X211273363Y-68241241D01*
X211116320Y-68476273D01*
X211008147Y-68737426D01*
X210953000Y-69014665D01*
X204926283Y-69014665D01*
X202527001Y-66615384D01*
X202527001Y-66125000D01*
X204106928Y-66125000D01*
X204119188Y-66249482D01*
X204155498Y-66369180D01*
X204214463Y-66479494D01*
X204293815Y-66576185D01*
X204390506Y-66655537D01*
X204500820Y-66714502D01*
X204620518Y-66750812D01*
X204745000Y-66763072D01*
X204809250Y-66760000D01*
X204968000Y-66601250D01*
X204968000Y-65477000D01*
X205222000Y-65477000D01*
X205222000Y-66601250D01*
X205380750Y-66760000D01*
X205445000Y-66763072D01*
X205569482Y-66750812D01*
X205689180Y-66714502D01*
X205730000Y-66692683D01*
X205770820Y-66714502D01*
X205890518Y-66750812D01*
X206015000Y-66763072D01*
X206079250Y-66760000D01*
X206238000Y-66601250D01*
X206238000Y-65477000D01*
X205222000Y-65477000D01*
X204968000Y-65477000D01*
X204268750Y-65477000D01*
X204110000Y-65635750D01*
X204106928Y-66125000D01*
X202527001Y-66125000D01*
X202527001Y-65017323D01*
X202530677Y-64980000D01*
X202527001Y-64942677D01*
X202527001Y-64942668D01*
X202516004Y-64831015D01*
X202472547Y-64687754D01*
X202412278Y-64575000D01*
X204106928Y-64575000D01*
X204110000Y-65064250D01*
X204268750Y-65223000D01*
X204968000Y-65223000D01*
X204968000Y-64098750D01*
X205222000Y-64098750D01*
X205222000Y-65223000D01*
X206238000Y-65223000D01*
X206238000Y-64098750D01*
X206079250Y-63940000D01*
X206015000Y-63936928D01*
X205890518Y-63949188D01*
X205770820Y-63985498D01*
X205730000Y-64007317D01*
X205689180Y-63985498D01*
X205569482Y-63949188D01*
X205445000Y-63936928D01*
X205380750Y-63940000D01*
X205222000Y-64098750D01*
X204968000Y-64098750D01*
X204809250Y-63940000D01*
X204745000Y-63936928D01*
X204620518Y-63949188D01*
X204500820Y-63985498D01*
X204390506Y-64044463D01*
X204293815Y-64123815D01*
X204214463Y-64220506D01*
X204155498Y-64330820D01*
X204119188Y-64450518D01*
X204106928Y-64575000D01*
X202412278Y-64575000D01*
X202401975Y-64555725D01*
X202388812Y-64539686D01*
X202330800Y-64468997D01*
X202330796Y-64468993D01*
X202307002Y-64440000D01*
X202278009Y-64416206D01*
X202073743Y-64211941D01*
X202077000Y-64195569D01*
X202077000Y-63956431D01*
X202030347Y-63721889D01*
X201938833Y-63500955D01*
X201805975Y-63302120D01*
X201636880Y-63133025D01*
X201438045Y-63000167D01*
X201217111Y-62908653D01*
X201163862Y-62898061D01*
X206465000Y-62898061D01*
X206465000Y-63101939D01*
X206504774Y-63301898D01*
X206582795Y-63490256D01*
X206696063Y-63659774D01*
X206840226Y-63803937D01*
X206875001Y-63827173D01*
X206875001Y-63959962D01*
X206839482Y-63949188D01*
X206715000Y-63936928D01*
X206650750Y-63940000D01*
X206492000Y-64098750D01*
X206492000Y-65223000D01*
X206512000Y-65223000D01*
X206512000Y-65477000D01*
X206492000Y-65477000D01*
X206492000Y-66601250D01*
X206650750Y-66760000D01*
X206715000Y-66763072D01*
X206839482Y-66750812D01*
X206959180Y-66714502D01*
X207000000Y-66692683D01*
X207040820Y-66714502D01*
X207160518Y-66750812D01*
X207285000Y-66763072D01*
X207985000Y-66763072D01*
X208109482Y-66750812D01*
X208229180Y-66714502D01*
X208270000Y-66692683D01*
X208310820Y-66714502D01*
X208430518Y-66750812D01*
X208555000Y-66763072D01*
X209255000Y-66763072D01*
X209379482Y-66750812D01*
X209499180Y-66714502D01*
X209609494Y-66655537D01*
X209706185Y-66576185D01*
X209785537Y-66479494D01*
X209844502Y-66369180D01*
X209880812Y-66249482D01*
X209893072Y-66125000D01*
X209893072Y-64575000D01*
X209880812Y-64450518D01*
X209844502Y-64330820D01*
X209785537Y-64220506D01*
X209706185Y-64123815D01*
X209665000Y-64090015D01*
X209665000Y-62442322D01*
X209668676Y-62404999D01*
X209665000Y-62367676D01*
X209665000Y-62367667D01*
X209654003Y-62256014D01*
X209610546Y-62112753D01*
X209539974Y-61980724D01*
X209535000Y-61974663D01*
X209535000Y-61898061D01*
X209495226Y-61698102D01*
X209417205Y-61509744D01*
X209303937Y-61340226D01*
X209159774Y-61196063D01*
X208990256Y-61082795D01*
X208801898Y-61004774D01*
X208601939Y-60965000D01*
X208398061Y-60965000D01*
X208198102Y-61004774D01*
X208009744Y-61082795D01*
X207840226Y-61196063D01*
X207696063Y-61340226D01*
X207582795Y-61509744D01*
X207504774Y-61698102D01*
X207465000Y-61898061D01*
X207465000Y-61965000D01*
X207398061Y-61965000D01*
X207198102Y-62004774D01*
X207009744Y-62082795D01*
X206840226Y-62196063D01*
X206696063Y-62340226D01*
X206582795Y-62509744D01*
X206504774Y-62698102D01*
X206465000Y-62898061D01*
X201163862Y-62898061D01*
X200982569Y-62862000D01*
X200743431Y-62862000D01*
X200508889Y-62908653D01*
X200287955Y-63000167D01*
X200089120Y-63133025D01*
X199920025Y-63302120D01*
X199787167Y-63500955D01*
X199695653Y-63721889D01*
X199649000Y-63956431D01*
X194139000Y-63956431D01*
X194092347Y-63721889D01*
X194000833Y-63500955D01*
X193867975Y-63302120D01*
X193698880Y-63133025D01*
X193500045Y-63000167D01*
X193279111Y-62908653D01*
X193044569Y-62862000D01*
X192805431Y-62862000D01*
X192570889Y-62908653D01*
X192349955Y-63000167D01*
X192151120Y-63133025D01*
X191982025Y-63302120D01*
X191849167Y-63500955D01*
X191757653Y-63721889D01*
X191711000Y-63956431D01*
X190135189Y-63956431D01*
X190188759Y-63920637D01*
X190388637Y-63720759D01*
X190545680Y-63485727D01*
X190653853Y-63224574D01*
X190709000Y-62947335D01*
X190709000Y-62664665D01*
X190653853Y-62387426D01*
X190545680Y-62126273D01*
X190388637Y-61891241D01*
X190188759Y-61691363D01*
X189956241Y-61536000D01*
X190135189Y-61416431D01*
X191711000Y-61416431D01*
X191711000Y-61655569D01*
X191757653Y-61890111D01*
X191849167Y-62111045D01*
X191982025Y-62309880D01*
X192151120Y-62478975D01*
X192349955Y-62611833D01*
X192570889Y-62703347D01*
X192805431Y-62750000D01*
X193044569Y-62750000D01*
X193279111Y-62703347D01*
X193500045Y-62611833D01*
X193698880Y-62478975D01*
X193867975Y-62309880D01*
X194000833Y-62111045D01*
X194092347Y-61890111D01*
X194139000Y-61655569D01*
X194139000Y-61416431D01*
X199649000Y-61416431D01*
X199649000Y-61655569D01*
X199695653Y-61890111D01*
X199787167Y-62111045D01*
X199920025Y-62309880D01*
X200089120Y-62478975D01*
X200287955Y-62611833D01*
X200508889Y-62703347D01*
X200743431Y-62750000D01*
X200982569Y-62750000D01*
X201217111Y-62703347D01*
X201438045Y-62611833D01*
X201636880Y-62478975D01*
X201805975Y-62309880D01*
X201938833Y-62111045D01*
X202030347Y-61890111D01*
X202077000Y-61655569D01*
X202077000Y-61416431D01*
X202030347Y-61181889D01*
X201938833Y-60960955D01*
X201805975Y-60762120D01*
X201643855Y-60600000D01*
X204761928Y-60600000D01*
X204774188Y-60724482D01*
X204810498Y-60844180D01*
X204869463Y-60954494D01*
X204948815Y-61051185D01*
X205045506Y-61130537D01*
X205155820Y-61189502D01*
X205275518Y-61225812D01*
X205400000Y-61238072D01*
X205714250Y-61235000D01*
X205873000Y-61076250D01*
X205873000Y-60127000D01*
X206127000Y-60127000D01*
X206127000Y-61076250D01*
X206285750Y-61235000D01*
X206600000Y-61238072D01*
X206724482Y-61225812D01*
X206844180Y-61189502D01*
X206954494Y-61130537D01*
X207051185Y-61051185D01*
X207130537Y-60954494D01*
X207189502Y-60844180D01*
X207225812Y-60724482D01*
X207238072Y-60600000D01*
X207235000Y-60285750D01*
X207076250Y-60127000D01*
X206127000Y-60127000D01*
X205873000Y-60127000D01*
X204923750Y-60127000D01*
X204765000Y-60285750D01*
X204761928Y-60600000D01*
X201643855Y-60600000D01*
X201636880Y-60593025D01*
X201438045Y-60460167D01*
X201217111Y-60368653D01*
X200982569Y-60322000D01*
X200743431Y-60322000D01*
X200508889Y-60368653D01*
X200287955Y-60460167D01*
X200089120Y-60593025D01*
X199920025Y-60762120D01*
X199787167Y-60960955D01*
X199695653Y-61181889D01*
X199649000Y-61416431D01*
X194139000Y-61416431D01*
X194092347Y-61181889D01*
X194000833Y-60960955D01*
X193867975Y-60762120D01*
X193698880Y-60593025D01*
X193500045Y-60460167D01*
X193279111Y-60368653D01*
X193044569Y-60322000D01*
X192805431Y-60322000D01*
X192570889Y-60368653D01*
X192349955Y-60460167D01*
X192151120Y-60593025D01*
X191982025Y-60762120D01*
X191849167Y-60960955D01*
X191757653Y-61181889D01*
X191711000Y-61416431D01*
X190135189Y-61416431D01*
X190188759Y-61380637D01*
X190388637Y-61180759D01*
X190545680Y-60945727D01*
X190653853Y-60684574D01*
X190709000Y-60407335D01*
X190709000Y-60124665D01*
X190653853Y-59847426D01*
X190545680Y-59586273D01*
X190388637Y-59351241D01*
X190188759Y-59151363D01*
X189953727Y-58994320D01*
X189943135Y-58989933D01*
X190129131Y-58878385D01*
X190337519Y-58689414D01*
X190505037Y-58463420D01*
X190536035Y-58397835D01*
X191645203Y-59507003D01*
X191669001Y-59536001D01*
X191697999Y-59559799D01*
X191784726Y-59630974D01*
X191916755Y-59701546D01*
X191941351Y-59709007D01*
X191982025Y-59769880D01*
X192151120Y-59938975D01*
X192349955Y-60071833D01*
X192570889Y-60163347D01*
X192805431Y-60210000D01*
X193044569Y-60210000D01*
X193279111Y-60163347D01*
X193500045Y-60071833D01*
X193698880Y-59938975D01*
X193867975Y-59769880D01*
X194000833Y-59571045D01*
X194092347Y-59350111D01*
X194139000Y-59115569D01*
X194139000Y-58876431D01*
X199649000Y-58876431D01*
X199649000Y-59115569D01*
X199695653Y-59350111D01*
X199787167Y-59571045D01*
X199920025Y-59769880D01*
X200089120Y-59938975D01*
X200287955Y-60071833D01*
X200508889Y-60163347D01*
X200743431Y-60210000D01*
X200982569Y-60210000D01*
X201217111Y-60163347D01*
X201438045Y-60071833D01*
X201636880Y-59938975D01*
X201805975Y-59769880D01*
X201938833Y-59571045D01*
X202009682Y-59400000D01*
X204761928Y-59400000D01*
X204765000Y-59714250D01*
X204923750Y-59873000D01*
X205873000Y-59873000D01*
X205873000Y-59853000D01*
X206127000Y-59853000D01*
X206127000Y-59873000D01*
X207076250Y-59873000D01*
X207235000Y-59714250D01*
X207238072Y-59400000D01*
X207225812Y-59275518D01*
X207189502Y-59155820D01*
X207130537Y-59045506D01*
X207117419Y-59029522D01*
X207187540Y-58860236D01*
X207235000Y-58621637D01*
X207235000Y-58378363D01*
X207187540Y-58139764D01*
X207094443Y-57915008D01*
X206959287Y-57712733D01*
X206787267Y-57540713D01*
X206584992Y-57405557D01*
X206360236Y-57312460D01*
X206121637Y-57265000D01*
X205878363Y-57265000D01*
X205639764Y-57312460D01*
X205415008Y-57405557D01*
X205212733Y-57540713D01*
X205040713Y-57712733D01*
X204905557Y-57915008D01*
X204812460Y-58139764D01*
X204765000Y-58378363D01*
X204765000Y-58621637D01*
X204812460Y-58860236D01*
X204882581Y-59029522D01*
X204869463Y-59045506D01*
X204810498Y-59155820D01*
X204774188Y-59275518D01*
X204761928Y-59400000D01*
X202009682Y-59400000D01*
X202030347Y-59350111D01*
X202077000Y-59115569D01*
X202077000Y-58876431D01*
X202030347Y-58641889D01*
X201938833Y-58420955D01*
X201805975Y-58222120D01*
X201636880Y-58053025D01*
X201438045Y-57920167D01*
X201217111Y-57828653D01*
X200982569Y-57782000D01*
X200743431Y-57782000D01*
X200508889Y-57828653D01*
X200287955Y-57920167D01*
X200089120Y-58053025D01*
X199920025Y-58222120D01*
X199787167Y-58420955D01*
X199695653Y-58641889D01*
X199649000Y-58876431D01*
X194139000Y-58876431D01*
X194092347Y-58641889D01*
X194000833Y-58420955D01*
X193867975Y-58222120D01*
X193698880Y-58053025D01*
X193500045Y-57920167D01*
X193279111Y-57828653D01*
X193044569Y-57782000D01*
X192805431Y-57782000D01*
X192570889Y-57828653D01*
X192349955Y-57920167D01*
X192264842Y-57977038D01*
X190624235Y-56336431D01*
X191711000Y-56336431D01*
X191711000Y-56575569D01*
X191757653Y-56810111D01*
X191849167Y-57031045D01*
X191982025Y-57229880D01*
X192151120Y-57398975D01*
X192349955Y-57531833D01*
X192570889Y-57623347D01*
X192805431Y-57670000D01*
X193044569Y-57670000D01*
X193279111Y-57623347D01*
X193500045Y-57531833D01*
X193698880Y-57398975D01*
X193867975Y-57229880D01*
X194000833Y-57031045D01*
X194092347Y-56810111D01*
X194139000Y-56575569D01*
X194139000Y-56336431D01*
X199649000Y-56336431D01*
X199649000Y-56575569D01*
X199695653Y-56810111D01*
X199787167Y-57031045D01*
X199920025Y-57229880D01*
X200089120Y-57398975D01*
X200287955Y-57531833D01*
X200508889Y-57623347D01*
X200743431Y-57670000D01*
X200982569Y-57670000D01*
X201217111Y-57623347D01*
X201438045Y-57531833D01*
X201636880Y-57398975D01*
X201805975Y-57229880D01*
X201938833Y-57031045D01*
X202030347Y-56810111D01*
X202077000Y-56575569D01*
X202077000Y-56336431D01*
X202030347Y-56101889D01*
X201938833Y-55880955D01*
X201805975Y-55682120D01*
X201636880Y-55513025D01*
X201438045Y-55380167D01*
X201217111Y-55288653D01*
X200982569Y-55242000D01*
X200743431Y-55242000D01*
X200508889Y-55288653D01*
X200287955Y-55380167D01*
X200089120Y-55513025D01*
X199920025Y-55682120D01*
X199787167Y-55880955D01*
X199695653Y-56101889D01*
X199649000Y-56336431D01*
X194139000Y-56336431D01*
X194092347Y-56101889D01*
X194000833Y-55880955D01*
X193867975Y-55682120D01*
X193698880Y-55513025D01*
X193500045Y-55380167D01*
X193279111Y-55288653D01*
X193044569Y-55242000D01*
X192805431Y-55242000D01*
X192570889Y-55288653D01*
X192349955Y-55380167D01*
X192151120Y-55513025D01*
X191982025Y-55682120D01*
X191849167Y-55880955D01*
X191757653Y-56101889D01*
X191711000Y-56336431D01*
X190624235Y-56336431D01*
X189601727Y-55313924D01*
X189692574Y-55295853D01*
X189953727Y-55187680D01*
X190188759Y-55030637D01*
X190388637Y-54830759D01*
X190492043Y-54676000D01*
X191737333Y-54676000D01*
X191756498Y-54739180D01*
X191815463Y-54849494D01*
X191894815Y-54946185D01*
X191991506Y-55025537D01*
X192101820Y-55084502D01*
X192221518Y-55120812D01*
X192346000Y-55133072D01*
X193504000Y-55133072D01*
X193628482Y-55120812D01*
X193748180Y-55084502D01*
X193858494Y-55025537D01*
X193955185Y-54946185D01*
X194034537Y-54849494D01*
X194093502Y-54739180D01*
X194129812Y-54619482D01*
X194142072Y-54495000D01*
X194142072Y-53796431D01*
X199649000Y-53796431D01*
X199649000Y-54035569D01*
X199695653Y-54270111D01*
X199787167Y-54491045D01*
X199920025Y-54689880D01*
X200089120Y-54858975D01*
X200287955Y-54991833D01*
X200508889Y-55083347D01*
X200743431Y-55130000D01*
X200982569Y-55130000D01*
X201217111Y-55083347D01*
X201438045Y-54991833D01*
X201636880Y-54858975D01*
X201805975Y-54689880D01*
X201938833Y-54491045D01*
X202030347Y-54270111D01*
X202077000Y-54035569D01*
X202077000Y-53796431D01*
X202030347Y-53561889D01*
X201938833Y-53340955D01*
X201805975Y-53142120D01*
X201636880Y-52973025D01*
X201438045Y-52840167D01*
X201217111Y-52748653D01*
X200982569Y-52702000D01*
X200743431Y-52702000D01*
X200508889Y-52748653D01*
X200287955Y-52840167D01*
X200089120Y-52973025D01*
X199920025Y-53142120D01*
X199787167Y-53340955D01*
X199695653Y-53561889D01*
X199649000Y-53796431D01*
X194142072Y-53796431D01*
X194142072Y-53337000D01*
X194129812Y-53212518D01*
X194093502Y-53092820D01*
X194034537Y-52982506D01*
X193955185Y-52885815D01*
X193858494Y-52806463D01*
X193748180Y-52747498D01*
X193628482Y-52711188D01*
X193504000Y-52698928D01*
X192346000Y-52698928D01*
X192221518Y-52711188D01*
X192101820Y-52747498D01*
X191991506Y-52806463D01*
X191894815Y-52885815D01*
X191815463Y-52982506D01*
X191756498Y-53092820D01*
X191737333Y-53156000D01*
X190492043Y-53156000D01*
X190388637Y-53001241D01*
X190188759Y-52801363D01*
X189953727Y-52644320D01*
X189692574Y-52536147D01*
X189415335Y-52481000D01*
X189132665Y-52481000D01*
X188855426Y-52536147D01*
X188594273Y-52644320D01*
X188359241Y-52801363D01*
X188159363Y-53001241D01*
X188002320Y-53236273D01*
X187894147Y-53497426D01*
X187876076Y-53588273D01*
X186567805Y-52280002D01*
X186544002Y-52250998D01*
X186428277Y-52156025D01*
X186296248Y-52085453D01*
X186152987Y-52041996D01*
X186041334Y-52030999D01*
X186041323Y-52030999D01*
X186004001Y-52027323D01*
X185966679Y-52030999D01*
X181151322Y-52030999D01*
X181113999Y-52027323D01*
X181076676Y-52030999D01*
X181076666Y-52030999D01*
X180965013Y-52041996D01*
X180821752Y-52085453D01*
X180689722Y-52156025D01*
X180606082Y-52224667D01*
X180573998Y-52250998D01*
X180550200Y-52279996D01*
X178878451Y-53951745D01*
X178803937Y-53840226D01*
X178659774Y-53696063D01*
X178490256Y-53582795D01*
X178301898Y-53504774D01*
X178101939Y-53465000D01*
X177898061Y-53465000D01*
X177698102Y-53504774D01*
X177509744Y-53582795D01*
X177340226Y-53696063D01*
X177296289Y-53740000D01*
X175537333Y-53740000D01*
X175500000Y-53736323D01*
X175462667Y-53740000D01*
X175351014Y-53750997D01*
X175207753Y-53794454D01*
X175075724Y-53865026D01*
X174959999Y-53959999D01*
X174936201Y-53988997D01*
X173936201Y-54988998D01*
X173865026Y-55075724D01*
X173794454Y-55207754D01*
X173750998Y-55351015D01*
X173736324Y-55500000D01*
X173750998Y-55648985D01*
X173794454Y-55792246D01*
X173865026Y-55924276D01*
X173959999Y-56040001D01*
X174075724Y-56134974D01*
X174207754Y-56205546D01*
X174351015Y-56249002D01*
X174500000Y-56263676D01*
X174648985Y-56249002D01*
X174792246Y-56205546D01*
X174924276Y-56134974D01*
X175011002Y-56063799D01*
X175814802Y-55260000D01*
X177296289Y-55260000D01*
X177340226Y-55303937D01*
X177451745Y-55378452D01*
X177333003Y-55497194D01*
X177303999Y-55520997D01*
X177248871Y-55588172D01*
X177209026Y-55636722D01*
X177184760Y-55682120D01*
X177138454Y-55768752D01*
X177094997Y-55912013D01*
X177084000Y-56023666D01*
X177084000Y-56023676D01*
X177080324Y-56060998D01*
X177084000Y-56098321D01*
X177084000Y-56507956D01*
X176929241Y-56611363D01*
X176729363Y-56811241D01*
X176572320Y-57046273D01*
X176464147Y-57307426D01*
X176409000Y-57584665D01*
X176409000Y-57867335D01*
X176464147Y-58144574D01*
X176572320Y-58405727D01*
X176729363Y-58640759D01*
X176929241Y-58840637D01*
X177164273Y-58997680D01*
X177425426Y-59105853D01*
X177702665Y-59161000D01*
X177985335Y-59161000D01*
X178121230Y-59133968D01*
X177515199Y-59740000D01*
X172703711Y-59740000D01*
X172659774Y-59696063D01*
X172490256Y-59582795D01*
X172301898Y-59504774D01*
X172101939Y-59465000D01*
X171898061Y-59465000D01*
X171698102Y-59504774D01*
X171509744Y-59582795D01*
X171340226Y-59696063D01*
X171196063Y-59840226D01*
X171082795Y-60009744D01*
X171004774Y-60198102D01*
X170965000Y-60398061D01*
X170660000Y-60398061D01*
X170660000Y-50660000D01*
X219340000Y-50660000D01*
X219340001Y-89340000D01*
G37*
%TD.AperFunction*%
D24*
X188601991Y-56463791D02*
X188418869Y-56573615D01*
X188210481Y-56762586D01*
X188042963Y-56988580D01*
X187922754Y-57242913D01*
X187882096Y-57376961D01*
X188004085Y-57599000D01*
X189147000Y-57599000D01*
X189147000Y-57579000D01*
X189401000Y-57579000D01*
X189401000Y-57599000D01*
X189421000Y-57599000D01*
X189421000Y-57853000D01*
X189401000Y-57853000D01*
X189401000Y-57873000D01*
X189147000Y-57873000D01*
X189147000Y-57853000D01*
X188004085Y-57853000D01*
X187882096Y-58075039D01*
X187922754Y-58209087D01*
X188042963Y-58463420D01*
X188210481Y-58689414D01*
X188418869Y-58878385D01*
X188604865Y-58989933D01*
X188594273Y-58994320D01*
X188359241Y-59151363D01*
X188159363Y-59351241D01*
X188002320Y-59586273D01*
X187894147Y-59847426D01*
X187839000Y-60124665D01*
X187839000Y-60407335D01*
X187894147Y-60684574D01*
X188002320Y-60945727D01*
X188159363Y-61180759D01*
X188359241Y-61380637D01*
X188591759Y-61536000D01*
X188359241Y-61691363D01*
X188159363Y-61891241D01*
X188002320Y-62126273D01*
X187894147Y-62387426D01*
X187839000Y-62664665D01*
X187839000Y-62947335D01*
X187894147Y-63224574D01*
X188002320Y-63485727D01*
X188159363Y-63720759D01*
X188359241Y-63920637D01*
X188591759Y-64076000D01*
X188359241Y-64231363D01*
X188159363Y-64431241D01*
X188002320Y-64666273D01*
X187894147Y-64927426D01*
X187839000Y-65204665D01*
X187839000Y-65487335D01*
X187894147Y-65764574D01*
X188002320Y-66025727D01*
X188159363Y-66260759D01*
X188359241Y-66460637D01*
X188514001Y-66564044D01*
X188514001Y-66992199D01*
X185704937Y-69801263D01*
X185642918Y-69651537D01*
X185463987Y-69383748D01*
X185236252Y-69156013D01*
X184968463Y-68977082D01*
X184954000Y-68971091D01*
X184954000Y-66258320D01*
X184957676Y-66220997D01*
X184954000Y-66183674D01*
X184954000Y-66183665D01*
X184943003Y-66072012D01*
X184899546Y-65928751D01*
X184828974Y-65796722D01*
X184802591Y-65764574D01*
X184757799Y-65709994D01*
X184757795Y-65709990D01*
X184734001Y-65680997D01*
X184705008Y-65657203D01*
X182768600Y-63720796D01*
X182768637Y-63720759D01*
X182925680Y-63485727D01*
X183033853Y-63224574D01*
X183089000Y-62947335D01*
X183089000Y-62664665D01*
X183033853Y-62387426D01*
X182925680Y-62126273D01*
X182768637Y-61891241D01*
X182568759Y-61691363D01*
X182336241Y-61536000D01*
X182568759Y-61380637D01*
X182768637Y-61180759D01*
X182925680Y-60945727D01*
X183033853Y-60684574D01*
X183089000Y-60407335D01*
X183089000Y-60124665D01*
X183033853Y-59847426D01*
X182925680Y-59586273D01*
X182768637Y-59351241D01*
X182570039Y-59152643D01*
X182578482Y-59151812D01*
X182698180Y-59115502D01*
X182808494Y-59056537D01*
X182905185Y-58977185D01*
X182984537Y-58880494D01*
X183043502Y-58770180D01*
X183079812Y-58650482D01*
X183092072Y-58526000D01*
X183092072Y-56926000D01*
X183079812Y-56801518D01*
X183043502Y-56681820D01*
X182984537Y-56571506D01*
X182905185Y-56474815D01*
X182808494Y-56395463D01*
X182698180Y-56336498D01*
X182578482Y-56300188D01*
X182454000Y-56287928D01*
X180854000Y-56287928D01*
X180729518Y-56300188D01*
X180609820Y-56336498D01*
X180499506Y-56395463D01*
X180402815Y-56474815D01*
X180323463Y-56571506D01*
X180264498Y-56681820D01*
X180228188Y-56801518D01*
X180215928Y-56926000D01*
X180215928Y-57071674D01*
X180179724Y-57091026D01*
X180179722Y-57091027D01*
X180179723Y-57091027D01*
X180092996Y-57162201D01*
X180092992Y-57162205D01*
X180063999Y-57185999D01*
X180040205Y-57214992D01*
X179251969Y-58003229D01*
X179279000Y-57867335D01*
X179279000Y-57584665D01*
X179223853Y-57307426D01*
X179115680Y-57046273D01*
X178958637Y-56811241D01*
X178758759Y-56611363D01*
X178604000Y-56507957D01*
X178604000Y-56375799D01*
X180071097Y-54908702D01*
X180840903Y-54908702D01*
X180912486Y-55152671D01*
X181167996Y-55273571D01*
X181442184Y-55342300D01*
X181724512Y-55356217D01*
X182004130Y-55314787D01*
X182270292Y-55219603D01*
X182395514Y-55152671D01*
X182467097Y-54908702D01*
X181654000Y-54095605D01*
X180840903Y-54908702D01*
X180071097Y-54908702D01*
X180384223Y-54595577D01*
X180417329Y-54657514D01*
X180661298Y-54729097D01*
X181474395Y-53916000D01*
X181460253Y-53901858D01*
X181639858Y-53722253D01*
X181654000Y-53736395D01*
X181668143Y-53722253D01*
X181847748Y-53901858D01*
X181833605Y-53916000D01*
X182646702Y-54729097D01*
X182890671Y-54657514D01*
X183011571Y-54402004D01*
X183080300Y-54127816D01*
X183094217Y-53845488D01*
X183052787Y-53565870D01*
X183047469Y-53550999D01*
X185689200Y-53550999D01*
X188601991Y-56463791D01*
%TA.AperFunction,Conductor*%
D25*
G36*
X188601991Y-56463791D02*
G01*
X188418869Y-56573615D01*
X188210481Y-56762586D01*
X188042963Y-56988580D01*
X187922754Y-57242913D01*
X187882096Y-57376961D01*
X188004085Y-57599000D01*
X189147000Y-57599000D01*
X189147000Y-57579000D01*
X189401000Y-57579000D01*
X189401000Y-57599000D01*
X189421000Y-57599000D01*
X189421000Y-57853000D01*
X189401000Y-57853000D01*
X189401000Y-57873000D01*
X189147000Y-57873000D01*
X189147000Y-57853000D01*
X188004085Y-57853000D01*
X187882096Y-58075039D01*
X187922754Y-58209087D01*
X188042963Y-58463420D01*
X188210481Y-58689414D01*
X188418869Y-58878385D01*
X188604865Y-58989933D01*
X188594273Y-58994320D01*
X188359241Y-59151363D01*
X188159363Y-59351241D01*
X188002320Y-59586273D01*
X187894147Y-59847426D01*
X187839000Y-60124665D01*
X187839000Y-60407335D01*
X187894147Y-60684574D01*
X188002320Y-60945727D01*
X188159363Y-61180759D01*
X188359241Y-61380637D01*
X188591759Y-61536000D01*
X188359241Y-61691363D01*
X188159363Y-61891241D01*
X188002320Y-62126273D01*
X187894147Y-62387426D01*
X187839000Y-62664665D01*
X187839000Y-62947335D01*
X187894147Y-63224574D01*
X188002320Y-63485727D01*
X188159363Y-63720759D01*
X188359241Y-63920637D01*
X188591759Y-64076000D01*
X188359241Y-64231363D01*
X188159363Y-64431241D01*
X188002320Y-64666273D01*
X187894147Y-64927426D01*
X187839000Y-65204665D01*
X187839000Y-65487335D01*
X187894147Y-65764574D01*
X188002320Y-66025727D01*
X188159363Y-66260759D01*
X188359241Y-66460637D01*
X188514001Y-66564044D01*
X188514001Y-66992199D01*
X185704937Y-69801263D01*
X185642918Y-69651537D01*
X185463987Y-69383748D01*
X185236252Y-69156013D01*
X184968463Y-68977082D01*
X184954000Y-68971091D01*
X184954000Y-66258320D01*
X184957676Y-66220997D01*
X184954000Y-66183674D01*
X184954000Y-66183665D01*
X184943003Y-66072012D01*
X184899546Y-65928751D01*
X184828974Y-65796722D01*
X184802591Y-65764574D01*
X184757799Y-65709994D01*
X184757795Y-65709990D01*
X184734001Y-65680997D01*
X184705008Y-65657203D01*
X182768600Y-63720796D01*
X182768637Y-63720759D01*
X182925680Y-63485727D01*
X183033853Y-63224574D01*
X183089000Y-62947335D01*
X183089000Y-62664665D01*
X183033853Y-62387426D01*
X182925680Y-62126273D01*
X182768637Y-61891241D01*
X182568759Y-61691363D01*
X182336241Y-61536000D01*
X182568759Y-61380637D01*
X182768637Y-61180759D01*
X182925680Y-60945727D01*
X183033853Y-60684574D01*
X183089000Y-60407335D01*
X183089000Y-60124665D01*
X183033853Y-59847426D01*
X182925680Y-59586273D01*
X182768637Y-59351241D01*
X182570039Y-59152643D01*
X182578482Y-59151812D01*
X182698180Y-59115502D01*
X182808494Y-59056537D01*
X182905185Y-58977185D01*
X182984537Y-58880494D01*
X183043502Y-58770180D01*
X183079812Y-58650482D01*
X183092072Y-58526000D01*
X183092072Y-56926000D01*
X183079812Y-56801518D01*
X183043502Y-56681820D01*
X182984537Y-56571506D01*
X182905185Y-56474815D01*
X182808494Y-56395463D01*
X182698180Y-56336498D01*
X182578482Y-56300188D01*
X182454000Y-56287928D01*
X180854000Y-56287928D01*
X180729518Y-56300188D01*
X180609820Y-56336498D01*
X180499506Y-56395463D01*
X180402815Y-56474815D01*
X180323463Y-56571506D01*
X180264498Y-56681820D01*
X180228188Y-56801518D01*
X180215928Y-56926000D01*
X180215928Y-57071674D01*
X180179724Y-57091026D01*
X180179722Y-57091027D01*
X180179723Y-57091027D01*
X180092996Y-57162201D01*
X180092992Y-57162205D01*
X180063999Y-57185999D01*
X180040205Y-57214992D01*
X179251969Y-58003229D01*
X179279000Y-57867335D01*
X179279000Y-57584665D01*
X179223853Y-57307426D01*
X179115680Y-57046273D01*
X178958637Y-56811241D01*
X178758759Y-56611363D01*
X178604000Y-56507957D01*
X178604000Y-56375799D01*
X180071097Y-54908702D01*
X180840903Y-54908702D01*
X180912486Y-55152671D01*
X181167996Y-55273571D01*
X181442184Y-55342300D01*
X181724512Y-55356217D01*
X182004130Y-55314787D01*
X182270292Y-55219603D01*
X182395514Y-55152671D01*
X182467097Y-54908702D01*
X181654000Y-54095605D01*
X180840903Y-54908702D01*
X180071097Y-54908702D01*
X180384223Y-54595577D01*
X180417329Y-54657514D01*
X180661298Y-54729097D01*
X181474395Y-53916000D01*
X181460253Y-53901858D01*
X181639858Y-53722253D01*
X181654000Y-53736395D01*
X181668143Y-53722253D01*
X181847748Y-53901858D01*
X181833605Y-53916000D01*
X182646702Y-54729097D01*
X182890671Y-54657514D01*
X183011571Y-54402004D01*
X183080300Y-54127816D01*
X183094217Y-53845488D01*
X183052787Y-53565870D01*
X183047469Y-53550999D01*
X185689200Y-53550999D01*
X188601991Y-56463791D01*
G37*
%TD.AperFunction*%
%TD*%
M02*
