%TF.GenerationSoftware,KiCad,Pcbnew,(5.1.9-0-10_14)*%
%TF.CreationDate,2021-04-15T17:53:14+09:00*%
%TF.ProjectId,RadioExercise,52616469-6f45-4786-9572-636973652e6b,rev?*%
%TF.SameCoordinates,Original*%
%TF.FileFunction,Legend,Bot*%
%TF.FilePolarity,Positive*%
%FSLAX46Y46*%
G04 Gerber Fmt 4.6, Leading zero omitted, Abs format (unit mm)*
G04 Created by KiCad (PCBNEW (5.1.9-0-10_14)) date 2021-04-15 17:53:14*
%MOMM*%
%LPD*%
G01*
G04 APERTURE LIST*
%ADD10C,0.150000*%
G04 APERTURE END LIST*
D10*
X216761904Y-64500000D02*
X216857142Y-64452380D01*
X217000000Y-64452380D01*
X217142857Y-64500000D01*
X217238095Y-64595238D01*
X217285714Y-64690476D01*
X217333333Y-64880952D01*
X217333333Y-65023809D01*
X217285714Y-65214285D01*
X217238095Y-65309523D01*
X217142857Y-65404761D01*
X217000000Y-65452380D01*
X216904761Y-65452380D01*
X216761904Y-65404761D01*
X216714285Y-65357142D01*
X216714285Y-65023809D01*
X216904761Y-65023809D01*
X216285714Y-65452380D02*
X216285714Y-64452380D01*
X215714285Y-65452380D01*
X215714285Y-64452380D01*
X215238095Y-65452380D02*
X215238095Y-64452380D01*
X215000000Y-64452380D01*
X214857142Y-64500000D01*
X214761904Y-64595238D01*
X214714285Y-64690476D01*
X214666666Y-64880952D01*
X214666666Y-65023809D01*
X214714285Y-65214285D01*
X214761904Y-65309523D01*
X214857142Y-65404761D01*
X215000000Y-65452380D01*
X215238095Y-65452380D01*
X217333333Y-52452380D02*
X217000000Y-53452380D01*
X216666666Y-52452380D01*
X215761904Y-53357142D02*
X215809523Y-53404761D01*
X215952380Y-53452380D01*
X216047619Y-53452380D01*
X216190476Y-53404761D01*
X216285714Y-53309523D01*
X216333333Y-53214285D01*
X216380952Y-53023809D01*
X216380952Y-52880952D01*
X216333333Y-52690476D01*
X216285714Y-52595238D01*
X216190476Y-52500000D01*
X216047619Y-52452380D01*
X215952380Y-52452380D01*
X215809523Y-52500000D01*
X215761904Y-52547619D01*
X214761904Y-53357142D02*
X214809523Y-53404761D01*
X214952380Y-53452380D01*
X215047619Y-53452380D01*
X215190476Y-53404761D01*
X215285714Y-53309523D01*
X215333333Y-53214285D01*
X215380952Y-53023809D01*
X215380952Y-52880952D01*
X215333333Y-52690476D01*
X215285714Y-52595238D01*
X215190476Y-52500000D01*
X215047619Y-52452380D01*
X214952380Y-52452380D01*
X214809523Y-52500000D01*
X214761904Y-52547619D01*
X175238095Y-65452380D02*
X175238095Y-64452380D01*
X174666666Y-65452380D01*
X174666666Y-64452380D01*
X174190476Y-64928571D02*
X173857142Y-64928571D01*
X173714285Y-65452380D02*
X174190476Y-65452380D01*
X174190476Y-64452380D01*
X173714285Y-64452380D01*
X172761904Y-64500000D02*
X172857142Y-64452380D01*
X173000000Y-64452380D01*
X173142857Y-64500000D01*
X173238095Y-64595238D01*
X173285714Y-64690476D01*
X173333333Y-64880952D01*
X173333333Y-65023809D01*
X173285714Y-65214285D01*
X173238095Y-65309523D01*
X173142857Y-65404761D01*
X173000000Y-65452380D01*
X172904761Y-65452380D01*
X172761904Y-65404761D01*
X172714285Y-65357142D01*
X172714285Y-65023809D01*
X172904761Y-65023809D01*
X175261904Y-53452380D02*
X175261904Y-52452380D01*
X174880952Y-52452380D01*
X174785714Y-52500000D01*
X174738095Y-52547619D01*
X174690476Y-52642857D01*
X174690476Y-52785714D01*
X174738095Y-52880952D01*
X174785714Y-52928571D01*
X174880952Y-52976190D01*
X175261904Y-52976190D01*
X174071428Y-52452380D02*
X173880952Y-52452380D01*
X173785714Y-52500000D01*
X173690476Y-52595238D01*
X173642857Y-52785714D01*
X173642857Y-53119047D01*
X173690476Y-53309523D01*
X173785714Y-53404761D01*
X173880952Y-53452380D01*
X174071428Y-53452380D01*
X174166666Y-53404761D01*
X174261904Y-53309523D01*
X174309523Y-53119047D01*
X174309523Y-52785714D01*
X174261904Y-52595238D01*
X174166666Y-52500000D01*
X174071428Y-52452380D01*
X173261904Y-53404761D02*
X173119047Y-53452380D01*
X172880952Y-53452380D01*
X172785714Y-53404761D01*
X172738095Y-53357142D01*
X172690476Y-53261904D01*
X172690476Y-53166666D01*
X172738095Y-53071428D01*
X172785714Y-53023809D01*
X172880952Y-52976190D01*
X173071428Y-52928571D01*
X173166666Y-52880952D01*
X173214285Y-52833333D01*
X173261904Y-52738095D01*
X173261904Y-52642857D01*
X173214285Y-52547619D01*
X173166666Y-52500000D01*
X173071428Y-52452380D01*
X172833333Y-52452380D01*
X172690476Y-52500000D01*
%TO.C,J1*%
X216491619Y-59143333D02*
X215777333Y-59143333D01*
X215634476Y-59190952D01*
X215539238Y-59286190D01*
X215491619Y-59429047D01*
X215491619Y-59524285D01*
X215491619Y-58143333D02*
X215491619Y-58714761D01*
X215491619Y-58429047D02*
X216491619Y-58429047D01*
X216348761Y-58524285D01*
X216253523Y-58619523D01*
X216205904Y-58714761D01*
%TO.C,LS1*%
X173581619Y-59638857D02*
X173581619Y-60115047D01*
X174581619Y-60115047D01*
X173629238Y-59353142D02*
X173581619Y-59210285D01*
X173581619Y-58972190D01*
X173629238Y-58876952D01*
X173676857Y-58829333D01*
X173772095Y-58781714D01*
X173867333Y-58781714D01*
X173962571Y-58829333D01*
X174010190Y-58876952D01*
X174057809Y-58972190D01*
X174105428Y-59162666D01*
X174153047Y-59257904D01*
X174200666Y-59305523D01*
X174295904Y-59353142D01*
X174391142Y-59353142D01*
X174486380Y-59305523D01*
X174534000Y-59257904D01*
X174581619Y-59162666D01*
X174581619Y-58924571D01*
X174534000Y-58781714D01*
X173581619Y-57829333D02*
X173581619Y-58400761D01*
X173581619Y-58115047D02*
X174581619Y-58115047D01*
X174438761Y-58210285D01*
X174343523Y-58305523D01*
X174295904Y-58400761D01*
%TD*%
M02*
