%TF.GenerationSoftware,KiCad,Pcbnew,(5.1.9-0-10_14)*%
%TF.CreationDate,2021-04-15T17:53:14+09:00*%
%TF.ProjectId,RadioExercise,52616469-6f45-4786-9572-636973652e6b,rev?*%
%TF.SameCoordinates,Original*%
%TF.FileFunction,Copper,L2,Bot*%
%TF.FilePolarity,Positive*%
%FSLAX46Y46*%
G04 Gerber Fmt 4.6, Leading zero omitted, Abs format (unit mm)*
G04 Created by KiCad (PCBNEW (5.1.9-0-10_14)) date 2021-04-15 17:53:14*
%MOMM*%
%LPD*%
G01*
G04 APERTURE LIST*
%TA.AperFunction,ComponentPad*%
%ADD10C,2.000000*%
%TD*%
%TA.AperFunction,ComponentPad*%
%ADD11C,1.200000*%
%TD*%
%TA.AperFunction,ComponentPad*%
%ADD12R,1.200000X1.200000*%
%TD*%
%TA.AperFunction,ComponentPad*%
%ADD13O,1.600000X1.600000*%
%TD*%
%TA.AperFunction,ComponentPad*%
%ADD14R,1.600000X1.600000*%
%TD*%
%TA.AperFunction,ComponentPad*%
%ADD15C,1.158000*%
%TD*%
%TA.AperFunction,ComponentPad*%
%ADD16R,1.158000X1.158000*%
%TD*%
%TA.AperFunction,SMDPad,CuDef*%
%ADD17O,3.000000X2.000000*%
%TD*%
%TA.AperFunction,ComponentPad*%
%ADD18C,1.600000*%
%TD*%
%TA.AperFunction,ComponentPad*%
%ADD19C,1.524000*%
%TD*%
%TA.AperFunction,ComponentPad*%
%ADD20R,1.524000X1.524000*%
%TD*%
%TA.AperFunction,ViaPad*%
%ADD21C,0.800000*%
%TD*%
%TA.AperFunction,Conductor*%
%ADD22C,0.500000*%
%TD*%
%TA.AperFunction,Conductor*%
%ADD23C,0.250000*%
%TD*%
%TA.AperFunction,Conductor*%
%ADD24C,0.254000*%
%TD*%
%TA.AperFunction,Conductor*%
%ADD25C,0.100000*%
%TD*%
G04 APERTURE END LIST*
D10*
%TO.P,C1,2*%
%TO.N,Net-(C1-Pad2)*%
X177844000Y-75426000D03*
%TO.P,C1,1*%
%TO.N,Net-(C1-Pad1)*%
X177844000Y-70426000D03*
%TD*%
D11*
%TO.P,C2,2*%
%TO.N,GND*%
X187000000Y-76500000D03*
D12*
%TO.P,C2,1*%
%TO.N,VDD*%
X187000000Y-78000000D03*
%TD*%
%TO.P,C3,1*%
%TO.N,VDD*%
X207000000Y-76000000D03*
D11*
%TO.P,C3,2*%
%TO.N,GND*%
X207000000Y-77500000D03*
%TD*%
D10*
%TO.P,C4,1*%
%TO.N,Net-(C4-Pad1)*%
X184194000Y-70426000D03*
%TO.P,C4,2*%
%TO.N,GND*%
X189194000Y-70426000D03*
%TD*%
D11*
%TO.P,C5,2*%
%TO.N,GND*%
X206000000Y-58500000D03*
D12*
%TO.P,C5,1*%
%TO.N,VDD*%
X206000000Y-60000000D03*
%TD*%
D13*
%TO.P,IC1,8*%
%TO.N,VDD*%
X189274000Y-57726000D03*
%TO.P,IC1,4*%
%TO.N,GND*%
X181654000Y-65346000D03*
%TO.P,IC1,7*%
%TO.N,Net-(IC1-Pad7)*%
X189274000Y-60266000D03*
%TO.P,IC1,3*%
%TO.N,Net-(C4-Pad1)*%
X181654000Y-62806000D03*
%TO.P,IC1,6*%
%TO.N,Net-(IC1-Pad6)*%
X189274000Y-62806000D03*
%TO.P,IC1,2*%
%TO.N,Net-(C1-Pad2)*%
X181654000Y-60266000D03*
%TO.P,IC1,5*%
%TO.N,Net-(IC1-Pad5)*%
X189274000Y-65346000D03*
D14*
%TO.P,IC1,1*%
%TO.N,Net-(IC1-Pad1)*%
X181654000Y-57726000D03*
%TD*%
D15*
%TO.P,IC2,28*%
%TO.N,Net-(IC2-Pad28)*%
X200863000Y-53916000D03*
%TO.P,IC2,27*%
%TO.N,Net-(IC2-Pad27)*%
X200863000Y-56456000D03*
%TO.P,IC2,26*%
%TO.N,Net-(IC2-Pad26)*%
X200863000Y-58996000D03*
%TO.P,IC2,25*%
%TO.N,Net-(IC2-Pad25)*%
X200863000Y-61536000D03*
%TO.P,IC2,24*%
%TO.N,Net-(IC2-Pad24)*%
X200863000Y-64076000D03*
%TO.P,IC2,23*%
%TO.N,Net-(IC2-Pad23)*%
X200863000Y-66616000D03*
%TO.P,IC2,22*%
%TO.N,Net-(IC2-Pad22)*%
X200863000Y-69156000D03*
%TO.P,IC2,21*%
%TO.N,Net-(IC2-Pad21)*%
X200863000Y-71696000D03*
%TO.P,IC2,20*%
%TO.N,VDD*%
X200863000Y-74236000D03*
%TO.P,IC2,19*%
%TO.N,GND*%
X200863000Y-76776000D03*
%TO.P,IC2,18*%
%TO.N,Net-(IC2-Pad18)*%
X200863000Y-79316000D03*
%TO.P,IC2,17*%
%TO.N,Net-(IC2-Pad17)*%
X200863000Y-81856000D03*
%TO.P,IC2,16*%
%TO.N,Net-(IC2-Pad16)*%
X200863000Y-84396000D03*
%TO.P,IC2,15*%
%TO.N,Net-(IC2-Pad15)*%
X200863000Y-86936000D03*
%TO.P,IC2,14*%
%TO.N,Net-(IC1-Pad5)*%
X192925000Y-86936000D03*
%TO.P,IC2,13*%
%TO.N,Net-(IC2-Pad13)*%
X192925000Y-84396000D03*
%TO.P,IC2,12*%
%TO.N,Net-(IC2-Pad12)*%
X192925000Y-81856000D03*
%TO.P,IC2,11*%
%TO.N,GND*%
X192925000Y-79316000D03*
%TO.P,IC2,10*%
%TO.N,Net-(IC2-Pad10)*%
X192925000Y-76776000D03*
%TO.P,IC2,9*%
%TO.N,Net-(IC2-Pad9)*%
X192925000Y-74236000D03*
%TO.P,IC2,8*%
%TO.N,GND*%
X192925000Y-71696000D03*
%TO.P,IC2,7*%
%TO.N,Net-(IC2-Pad7)*%
X192925000Y-69156000D03*
%TO.P,IC2,6*%
%TO.N,Net-(IC2-Pad6)*%
X192925000Y-66616000D03*
%TO.P,IC2,5*%
%TO.N,Net-(IC2-Pad5)*%
X192925000Y-64076000D03*
%TO.P,IC2,4*%
%TO.N,Net-(IC2-Pad4)*%
X192925000Y-61536000D03*
%TO.P,IC2,3*%
%TO.N,Net-(IC2-Pad3)*%
X192925000Y-58996000D03*
%TO.P,IC2,2*%
%TO.N,Net-(IC2-Pad2)*%
X192925000Y-56456000D03*
D16*
%TO.P,IC2,1*%
%TO.N,Net-(IC2-Pad1)*%
X192925000Y-53916000D03*
%TD*%
D17*
%TO.P,J1,1*%
%TO.N,GND*%
X215944000Y-62620000D03*
%TO.P,J1,2*%
%TO.N,Net-(J1-Pad2)*%
X215944000Y-55000000D03*
%TD*%
%TO.P,LS1,2*%
%TO.N,Net-(IC1-Pad7)*%
X174034000Y-55186000D03*
%TO.P,LS1,1*%
%TO.N,Net-(IC1-Pad1)*%
X174034000Y-62806000D03*
%TD*%
D18*
%TO.P,R2,1*%
%TO.N,Net-(IC2-Pad12)*%
X177844000Y-86936000D03*
D13*
%TO.P,R2,2*%
%TO.N,GND*%
X177844000Y-79316000D03*
%TD*%
%TO.P,R3,2*%
%TO.N,GND*%
X212388000Y-69156000D03*
D18*
%TO.P,R3,1*%
%TO.N,Net-(IC2-Pad13)*%
X212388000Y-76776000D03*
%TD*%
D13*
%TO.P,R4,2*%
%TO.N,Net-(C1-Pad1)*%
X177844000Y-65346000D03*
D18*
%TO.P,R4,1*%
%TO.N,Net-(IC2-Pad3)*%
X177844000Y-57726000D03*
%TD*%
%TO.P,R5,1*%
%TO.N,VDD*%
X181654000Y-53916000D03*
D13*
%TO.P,R5,2*%
%TO.N,Net-(IC2-Pad1)*%
X189274000Y-53916000D03*
%TD*%
D10*
%TO.P,SW1,1*%
%TO.N,VDD*%
X189424000Y-81856000D03*
%TO.P,SW1,2*%
%TO.N,Net-(IC2-Pad12)*%
X189424000Y-86356000D03*
%TO.P,SW1,1*%
%TO.N,VDD*%
X182924000Y-81856000D03*
%TO.P,SW1,2*%
%TO.N,Net-(IC2-Pad12)*%
X182924000Y-86356000D03*
%TD*%
%TO.P,SW2,2*%
%TO.N,Net-(IC2-Pad13)*%
X210864000Y-82436000D03*
%TO.P,SW2,1*%
%TO.N,VDD*%
X210864000Y-86936000D03*
%TO.P,SW2,2*%
%TO.N,Net-(IC2-Pad13)*%
X204364000Y-82436000D03*
%TO.P,SW2,1*%
%TO.N,VDD*%
X204364000Y-86936000D03*
%TD*%
D19*
%TO.P,SW5,3*%
%TO.N,Net-(J1-Pad2)*%
X216000000Y-82364000D03*
%TO.P,SW5,2*%
%TO.N,VDD*%
X216000000Y-84904000D03*
D20*
%TO.P,SW5,1*%
%TO.N,Net-(SW5-Pad1)*%
X216000000Y-87444000D03*
%TD*%
D21*
%TO.N,GND*%
X212000000Y-73000000D03*
%TO.N,Net-(IC1-Pad1)*%
X172000000Y-60500000D03*
%TO.N,Net-(IC1-Pad7)*%
X178000000Y-54500000D03*
%TO.N,Net-(IC2-Pad23)*%
X207500000Y-63000000D03*
%TO.N,Net-(IC2-Pad25)*%
X208500000Y-62000000D03*
%TO.N,Net-(J1-Pad2)*%
X216000000Y-59000000D03*
%TD*%
D22*
%TO.N,GND*%
X215944000Y-65600000D02*
X212388000Y-69156000D01*
X215944000Y-62620000D02*
X215944000Y-65600000D01*
X212388000Y-72612000D02*
X212000000Y-73000000D01*
X212388000Y-69156000D02*
X212388000Y-72612000D01*
X207500000Y-77500000D02*
X207000000Y-77500000D01*
X212000000Y-73000000D02*
X207500000Y-77500000D01*
X211824000Y-58500000D02*
X206000000Y-58500000D01*
X215944000Y-62620000D02*
X211824000Y-58500000D01*
X201587000Y-77500000D02*
X200863000Y-76776000D01*
X207000000Y-77500000D02*
X201587000Y-77500000D01*
X191655000Y-70426000D02*
X192925000Y-71696000D01*
X189194000Y-70426000D02*
X191655000Y-70426000D01*
X189194000Y-74306000D02*
X187000000Y-76500000D01*
X189194000Y-70426000D02*
X189194000Y-74306000D01*
X190109000Y-76500000D02*
X192925000Y-79316000D01*
X187000000Y-76500000D02*
X190109000Y-76500000D01*
X180660000Y-76500000D02*
X177844000Y-79316000D01*
X187000000Y-76500000D02*
X180660000Y-76500000D01*
X186734000Y-70426000D02*
X181654000Y-65346000D01*
X189194000Y-70426000D02*
X186734000Y-70426000D01*
X198323000Y-79316000D02*
X200863000Y-76776000D01*
X192925000Y-79316000D02*
X198323000Y-79316000D01*
D23*
%TO.N,Net-(IC1-Pad1)*%
X174034000Y-62534000D02*
X174034000Y-62806000D01*
X172000000Y-60500000D02*
X174034000Y-62534000D01*
%TO.N,Net-(IC1-Pad7)*%
X180593999Y-58851001D02*
X178000000Y-56257002D01*
X187859001Y-58851001D02*
X180593999Y-58851001D01*
X178000000Y-56257002D02*
X178000000Y-54500000D01*
X189274000Y-60266000D02*
X187859001Y-58851001D01*
%TO.N,Net-(IC2-Pad13)*%
X212388000Y-80912000D02*
X210864000Y-82436000D01*
X212388000Y-76776000D02*
X212388000Y-80912000D01*
X210864000Y-82436000D02*
X210564000Y-82436000D01*
%TO.N,Net-(IC2-Pad23)*%
X203884000Y-66616000D02*
X200863000Y-66616000D01*
X207500000Y-63000000D02*
X203884000Y-66616000D01*
%TO.N,Net-(IC2-Pad25)*%
X208036000Y-61536000D02*
X200863000Y-61536000D01*
X208500000Y-62000000D02*
X208036000Y-61536000D01*
D22*
%TO.N,Net-(J1-Pad2)*%
X215944000Y-58944000D02*
X216000000Y-59000000D01*
X215944000Y-55000000D02*
X215944000Y-58944000D01*
%TD*%
D24*
%TO.N,GND*%
X219340001Y-89340000D02*
X170660000Y-89340000D01*
X170660000Y-86794665D01*
X176409000Y-86794665D01*
X176409000Y-87077335D01*
X176464147Y-87354574D01*
X176572320Y-87615727D01*
X176729363Y-87850759D01*
X176929241Y-88050637D01*
X177164273Y-88207680D01*
X177425426Y-88315853D01*
X177702665Y-88371000D01*
X177985335Y-88371000D01*
X178262574Y-88315853D01*
X178523727Y-88207680D01*
X178758759Y-88050637D01*
X178958637Y-87850759D01*
X179115680Y-87615727D01*
X179223853Y-87354574D01*
X179279000Y-87077335D01*
X179279000Y-86794665D01*
X179223853Y-86517426D01*
X179115680Y-86256273D01*
X179074717Y-86194967D01*
X181289000Y-86194967D01*
X181289000Y-86517033D01*
X181351832Y-86832912D01*
X181475082Y-87130463D01*
X181654013Y-87398252D01*
X181881748Y-87625987D01*
X182149537Y-87804918D01*
X182447088Y-87928168D01*
X182762967Y-87991000D01*
X183085033Y-87991000D01*
X183400912Y-87928168D01*
X183698463Y-87804918D01*
X183966252Y-87625987D01*
X184193987Y-87398252D01*
X184372918Y-87130463D01*
X184496168Y-86832912D01*
X184559000Y-86517033D01*
X184559000Y-86194967D01*
X187789000Y-86194967D01*
X187789000Y-86517033D01*
X187851832Y-86832912D01*
X187975082Y-87130463D01*
X188154013Y-87398252D01*
X188381748Y-87625987D01*
X188649537Y-87804918D01*
X188947088Y-87928168D01*
X189262967Y-87991000D01*
X189585033Y-87991000D01*
X189900912Y-87928168D01*
X190198463Y-87804918D01*
X190466252Y-87625987D01*
X190693987Y-87398252D01*
X190872918Y-87130463D01*
X190996168Y-86832912D01*
X190999446Y-86816431D01*
X191711000Y-86816431D01*
X191711000Y-87055569D01*
X191757653Y-87290111D01*
X191849167Y-87511045D01*
X191982025Y-87709880D01*
X192151120Y-87878975D01*
X192349955Y-88011833D01*
X192570889Y-88103347D01*
X192805431Y-88150000D01*
X193044569Y-88150000D01*
X193279111Y-88103347D01*
X193500045Y-88011833D01*
X193698880Y-87878975D01*
X193867975Y-87709880D01*
X194000833Y-87511045D01*
X194092347Y-87290111D01*
X194139000Y-87055569D01*
X194139000Y-86816431D01*
X199649000Y-86816431D01*
X199649000Y-87055569D01*
X199695653Y-87290111D01*
X199787167Y-87511045D01*
X199920025Y-87709880D01*
X200089120Y-87878975D01*
X200287955Y-88011833D01*
X200508889Y-88103347D01*
X200743431Y-88150000D01*
X200982569Y-88150000D01*
X201217111Y-88103347D01*
X201438045Y-88011833D01*
X201636880Y-87878975D01*
X201805975Y-87709880D01*
X201938833Y-87511045D01*
X202030347Y-87290111D01*
X202077000Y-87055569D01*
X202077000Y-86816431D01*
X202068753Y-86774967D01*
X202729000Y-86774967D01*
X202729000Y-87097033D01*
X202791832Y-87412912D01*
X202915082Y-87710463D01*
X203094013Y-87978252D01*
X203321748Y-88205987D01*
X203589537Y-88384918D01*
X203887088Y-88508168D01*
X204202967Y-88571000D01*
X204525033Y-88571000D01*
X204840912Y-88508168D01*
X205138463Y-88384918D01*
X205406252Y-88205987D01*
X205633987Y-87978252D01*
X205812918Y-87710463D01*
X205936168Y-87412912D01*
X205999000Y-87097033D01*
X205999000Y-86774967D01*
X209229000Y-86774967D01*
X209229000Y-87097033D01*
X209291832Y-87412912D01*
X209415082Y-87710463D01*
X209594013Y-87978252D01*
X209821748Y-88205987D01*
X210089537Y-88384918D01*
X210387088Y-88508168D01*
X210702967Y-88571000D01*
X211025033Y-88571000D01*
X211340912Y-88508168D01*
X211638463Y-88384918D01*
X211906252Y-88205987D01*
X212133987Y-87978252D01*
X212312918Y-87710463D01*
X212436168Y-87412912D01*
X212499000Y-87097033D01*
X212499000Y-86774967D01*
X212480508Y-86682000D01*
X214599928Y-86682000D01*
X214599928Y-88206000D01*
X214612188Y-88330482D01*
X214648498Y-88450180D01*
X214707463Y-88560494D01*
X214786815Y-88657185D01*
X214883506Y-88736537D01*
X214993820Y-88795502D01*
X215113518Y-88831812D01*
X215238000Y-88844072D01*
X216762000Y-88844072D01*
X216886482Y-88831812D01*
X217006180Y-88795502D01*
X217116494Y-88736537D01*
X217213185Y-88657185D01*
X217292537Y-88560494D01*
X217351502Y-88450180D01*
X217387812Y-88330482D01*
X217400072Y-88206000D01*
X217400072Y-86682000D01*
X217387812Y-86557518D01*
X217351502Y-86437820D01*
X217292537Y-86327506D01*
X217213185Y-86230815D01*
X217116494Y-86151463D01*
X217006180Y-86092498D01*
X216886482Y-86056188D01*
X216802535Y-86047920D01*
X216890535Y-85989120D01*
X217085120Y-85794535D01*
X217238005Y-85565727D01*
X217343314Y-85311490D01*
X217397000Y-85041592D01*
X217397000Y-84766408D01*
X217343314Y-84496510D01*
X217238005Y-84242273D01*
X217085120Y-84013465D01*
X216890535Y-83818880D01*
X216661727Y-83665995D01*
X216584485Y-83634000D01*
X216661727Y-83602005D01*
X216890535Y-83449120D01*
X217085120Y-83254535D01*
X217238005Y-83025727D01*
X217343314Y-82771490D01*
X217397000Y-82501592D01*
X217397000Y-82226408D01*
X217343314Y-81956510D01*
X217238005Y-81702273D01*
X217085120Y-81473465D01*
X216890535Y-81278880D01*
X216661727Y-81125995D01*
X216407490Y-81020686D01*
X216137592Y-80967000D01*
X215862408Y-80967000D01*
X215592510Y-81020686D01*
X215338273Y-81125995D01*
X215109465Y-81278880D01*
X214914880Y-81473465D01*
X214761995Y-81702273D01*
X214656686Y-81956510D01*
X214603000Y-82226408D01*
X214603000Y-82501592D01*
X214656686Y-82771490D01*
X214761995Y-83025727D01*
X214914880Y-83254535D01*
X215109465Y-83449120D01*
X215338273Y-83602005D01*
X215415515Y-83634000D01*
X215338273Y-83665995D01*
X215109465Y-83818880D01*
X214914880Y-84013465D01*
X214761995Y-84242273D01*
X214656686Y-84496510D01*
X214603000Y-84766408D01*
X214603000Y-85041592D01*
X214656686Y-85311490D01*
X214761995Y-85565727D01*
X214914880Y-85794535D01*
X215109465Y-85989120D01*
X215197465Y-86047920D01*
X215113518Y-86056188D01*
X214993820Y-86092498D01*
X214883506Y-86151463D01*
X214786815Y-86230815D01*
X214707463Y-86327506D01*
X214648498Y-86437820D01*
X214612188Y-86557518D01*
X214599928Y-86682000D01*
X212480508Y-86682000D01*
X212436168Y-86459088D01*
X212312918Y-86161537D01*
X212133987Y-85893748D01*
X211906252Y-85666013D01*
X211638463Y-85487082D01*
X211340912Y-85363832D01*
X211025033Y-85301000D01*
X210702967Y-85301000D01*
X210387088Y-85363832D01*
X210089537Y-85487082D01*
X209821748Y-85666013D01*
X209594013Y-85893748D01*
X209415082Y-86161537D01*
X209291832Y-86459088D01*
X209229000Y-86774967D01*
X205999000Y-86774967D01*
X205936168Y-86459088D01*
X205812918Y-86161537D01*
X205633987Y-85893748D01*
X205406252Y-85666013D01*
X205138463Y-85487082D01*
X204840912Y-85363832D01*
X204525033Y-85301000D01*
X204202967Y-85301000D01*
X203887088Y-85363832D01*
X203589537Y-85487082D01*
X203321748Y-85666013D01*
X203094013Y-85893748D01*
X202915082Y-86161537D01*
X202791832Y-86459088D01*
X202729000Y-86774967D01*
X202068753Y-86774967D01*
X202030347Y-86581889D01*
X201938833Y-86360955D01*
X201805975Y-86162120D01*
X201636880Y-85993025D01*
X201438045Y-85860167D01*
X201217111Y-85768653D01*
X200982569Y-85722000D01*
X200743431Y-85722000D01*
X200508889Y-85768653D01*
X200287955Y-85860167D01*
X200089120Y-85993025D01*
X199920025Y-86162120D01*
X199787167Y-86360955D01*
X199695653Y-86581889D01*
X199649000Y-86816431D01*
X194139000Y-86816431D01*
X194092347Y-86581889D01*
X194000833Y-86360955D01*
X193867975Y-86162120D01*
X193698880Y-85993025D01*
X193500045Y-85860167D01*
X193279111Y-85768653D01*
X193044569Y-85722000D01*
X192805431Y-85722000D01*
X192570889Y-85768653D01*
X192349955Y-85860167D01*
X192151120Y-85993025D01*
X191982025Y-86162120D01*
X191849167Y-86360955D01*
X191757653Y-86581889D01*
X191711000Y-86816431D01*
X190999446Y-86816431D01*
X191059000Y-86517033D01*
X191059000Y-86194967D01*
X190996168Y-85879088D01*
X190872918Y-85581537D01*
X190693987Y-85313748D01*
X190466252Y-85086013D01*
X190198463Y-84907082D01*
X189900912Y-84783832D01*
X189585033Y-84721000D01*
X189262967Y-84721000D01*
X188947088Y-84783832D01*
X188649537Y-84907082D01*
X188381748Y-85086013D01*
X188154013Y-85313748D01*
X187975082Y-85581537D01*
X187851832Y-85879088D01*
X187789000Y-86194967D01*
X184559000Y-86194967D01*
X184496168Y-85879088D01*
X184372918Y-85581537D01*
X184193987Y-85313748D01*
X183966252Y-85086013D01*
X183698463Y-84907082D01*
X183400912Y-84783832D01*
X183085033Y-84721000D01*
X182762967Y-84721000D01*
X182447088Y-84783832D01*
X182149537Y-84907082D01*
X181881748Y-85086013D01*
X181654013Y-85313748D01*
X181475082Y-85581537D01*
X181351832Y-85879088D01*
X181289000Y-86194967D01*
X179074717Y-86194967D01*
X178958637Y-86021241D01*
X178758759Y-85821363D01*
X178523727Y-85664320D01*
X178262574Y-85556147D01*
X177985335Y-85501000D01*
X177702665Y-85501000D01*
X177425426Y-85556147D01*
X177164273Y-85664320D01*
X176929241Y-85821363D01*
X176729363Y-86021241D01*
X176572320Y-86256273D01*
X176464147Y-86517426D01*
X176409000Y-86794665D01*
X170660000Y-86794665D01*
X170660000Y-84276431D01*
X191711000Y-84276431D01*
X191711000Y-84515569D01*
X191757653Y-84750111D01*
X191849167Y-84971045D01*
X191982025Y-85169880D01*
X192151120Y-85338975D01*
X192349955Y-85471833D01*
X192570889Y-85563347D01*
X192805431Y-85610000D01*
X193044569Y-85610000D01*
X193279111Y-85563347D01*
X193500045Y-85471833D01*
X193698880Y-85338975D01*
X193867975Y-85169880D01*
X194000833Y-84971045D01*
X194092347Y-84750111D01*
X194139000Y-84515569D01*
X194139000Y-84276431D01*
X199649000Y-84276431D01*
X199649000Y-84515569D01*
X199695653Y-84750111D01*
X199787167Y-84971045D01*
X199920025Y-85169880D01*
X200089120Y-85338975D01*
X200287955Y-85471833D01*
X200508889Y-85563347D01*
X200743431Y-85610000D01*
X200982569Y-85610000D01*
X201217111Y-85563347D01*
X201438045Y-85471833D01*
X201636880Y-85338975D01*
X201805975Y-85169880D01*
X201938833Y-84971045D01*
X202030347Y-84750111D01*
X202077000Y-84515569D01*
X202077000Y-84276431D01*
X202030347Y-84041889D01*
X201938833Y-83820955D01*
X201805975Y-83622120D01*
X201636880Y-83453025D01*
X201438045Y-83320167D01*
X201217111Y-83228653D01*
X200982569Y-83182000D01*
X200743431Y-83182000D01*
X200508889Y-83228653D01*
X200287955Y-83320167D01*
X200089120Y-83453025D01*
X199920025Y-83622120D01*
X199787167Y-83820955D01*
X199695653Y-84041889D01*
X199649000Y-84276431D01*
X194139000Y-84276431D01*
X194092347Y-84041889D01*
X194000833Y-83820955D01*
X193867975Y-83622120D01*
X193698880Y-83453025D01*
X193500045Y-83320167D01*
X193279111Y-83228653D01*
X193044569Y-83182000D01*
X192805431Y-83182000D01*
X192570889Y-83228653D01*
X192349955Y-83320167D01*
X192151120Y-83453025D01*
X191982025Y-83622120D01*
X191849167Y-83820955D01*
X191757653Y-84041889D01*
X191711000Y-84276431D01*
X170660000Y-84276431D01*
X170660000Y-81694967D01*
X181289000Y-81694967D01*
X181289000Y-82017033D01*
X181351832Y-82332912D01*
X181475082Y-82630463D01*
X181654013Y-82898252D01*
X181881748Y-83125987D01*
X182149537Y-83304918D01*
X182447088Y-83428168D01*
X182762967Y-83491000D01*
X183085033Y-83491000D01*
X183400912Y-83428168D01*
X183698463Y-83304918D01*
X183966252Y-83125987D01*
X184193987Y-82898252D01*
X184372918Y-82630463D01*
X184496168Y-82332912D01*
X184559000Y-82017033D01*
X184559000Y-81694967D01*
X187789000Y-81694967D01*
X187789000Y-82017033D01*
X187851832Y-82332912D01*
X187975082Y-82630463D01*
X188154013Y-82898252D01*
X188381748Y-83125987D01*
X188649537Y-83304918D01*
X188947088Y-83428168D01*
X189262967Y-83491000D01*
X189585033Y-83491000D01*
X189900912Y-83428168D01*
X190198463Y-83304918D01*
X190466252Y-83125987D01*
X190693987Y-82898252D01*
X190872918Y-82630463D01*
X190996168Y-82332912D01*
X191059000Y-82017033D01*
X191059000Y-81736431D01*
X191711000Y-81736431D01*
X191711000Y-81975569D01*
X191757653Y-82210111D01*
X191849167Y-82431045D01*
X191982025Y-82629880D01*
X192151120Y-82798975D01*
X192349955Y-82931833D01*
X192570889Y-83023347D01*
X192805431Y-83070000D01*
X193044569Y-83070000D01*
X193279111Y-83023347D01*
X193500045Y-82931833D01*
X193698880Y-82798975D01*
X193867975Y-82629880D01*
X194000833Y-82431045D01*
X194092347Y-82210111D01*
X194139000Y-81975569D01*
X194139000Y-81736431D01*
X199649000Y-81736431D01*
X199649000Y-81975569D01*
X199695653Y-82210111D01*
X199787167Y-82431045D01*
X199920025Y-82629880D01*
X200089120Y-82798975D01*
X200287955Y-82931833D01*
X200508889Y-83023347D01*
X200743431Y-83070000D01*
X200982569Y-83070000D01*
X201217111Y-83023347D01*
X201438045Y-82931833D01*
X201636880Y-82798975D01*
X201805975Y-82629880D01*
X201938833Y-82431045D01*
X202003482Y-82274967D01*
X202729000Y-82274967D01*
X202729000Y-82597033D01*
X202791832Y-82912912D01*
X202915082Y-83210463D01*
X203094013Y-83478252D01*
X203321748Y-83705987D01*
X203589537Y-83884918D01*
X203887088Y-84008168D01*
X204202967Y-84071000D01*
X204525033Y-84071000D01*
X204840912Y-84008168D01*
X205138463Y-83884918D01*
X205406252Y-83705987D01*
X205633987Y-83478252D01*
X205812918Y-83210463D01*
X205936168Y-82912912D01*
X205999000Y-82597033D01*
X205999000Y-82274967D01*
X209229000Y-82274967D01*
X209229000Y-82597033D01*
X209291832Y-82912912D01*
X209415082Y-83210463D01*
X209594013Y-83478252D01*
X209821748Y-83705987D01*
X210089537Y-83884918D01*
X210387088Y-84008168D01*
X210702967Y-84071000D01*
X211025033Y-84071000D01*
X211340912Y-84008168D01*
X211638463Y-83884918D01*
X211906252Y-83705987D01*
X212133987Y-83478252D01*
X212312918Y-83210463D01*
X212436168Y-82912912D01*
X212499000Y-82597033D01*
X212499000Y-82274967D01*
X212436168Y-81959088D01*
X212430177Y-81944625D01*
X212899008Y-81475795D01*
X212928001Y-81452001D01*
X212951795Y-81423008D01*
X212951799Y-81423004D01*
X213022973Y-81336277D01*
X213022974Y-81336276D01*
X213093546Y-81204247D01*
X213137003Y-81060986D01*
X213148000Y-80949333D01*
X213148000Y-80949324D01*
X213151676Y-80912001D01*
X213148000Y-80874678D01*
X213148000Y-77994043D01*
X213302759Y-77890637D01*
X213502637Y-77690759D01*
X213659680Y-77455727D01*
X213767853Y-77194574D01*
X213823000Y-76917335D01*
X213823000Y-76634665D01*
X213767853Y-76357426D01*
X213659680Y-76096273D01*
X213502637Y-75861241D01*
X213302759Y-75661363D01*
X213067727Y-75504320D01*
X212806574Y-75396147D01*
X212529335Y-75341000D01*
X212246665Y-75341000D01*
X211969426Y-75396147D01*
X211708273Y-75504320D01*
X211473241Y-75661363D01*
X211273363Y-75861241D01*
X211116320Y-76096273D01*
X211008147Y-76357426D01*
X210953000Y-76634665D01*
X210953000Y-76917335D01*
X211008147Y-77194574D01*
X211116320Y-77455727D01*
X211273363Y-77690759D01*
X211473241Y-77890637D01*
X211628000Y-77994044D01*
X211628001Y-80597196D01*
X211355375Y-80869823D01*
X211340912Y-80863832D01*
X211025033Y-80801000D01*
X210702967Y-80801000D01*
X210387088Y-80863832D01*
X210089537Y-80987082D01*
X209821748Y-81166013D01*
X209594013Y-81393748D01*
X209415082Y-81661537D01*
X209291832Y-81959088D01*
X209229000Y-82274967D01*
X205999000Y-82274967D01*
X205936168Y-81959088D01*
X205812918Y-81661537D01*
X205633987Y-81393748D01*
X205406252Y-81166013D01*
X205138463Y-80987082D01*
X204840912Y-80863832D01*
X204525033Y-80801000D01*
X204202967Y-80801000D01*
X203887088Y-80863832D01*
X203589537Y-80987082D01*
X203321748Y-81166013D01*
X203094013Y-81393748D01*
X202915082Y-81661537D01*
X202791832Y-81959088D01*
X202729000Y-82274967D01*
X202003482Y-82274967D01*
X202030347Y-82210111D01*
X202077000Y-81975569D01*
X202077000Y-81736431D01*
X202030347Y-81501889D01*
X201938833Y-81280955D01*
X201805975Y-81082120D01*
X201636880Y-80913025D01*
X201438045Y-80780167D01*
X201217111Y-80688653D01*
X200982569Y-80642000D01*
X200743431Y-80642000D01*
X200508889Y-80688653D01*
X200287955Y-80780167D01*
X200089120Y-80913025D01*
X199920025Y-81082120D01*
X199787167Y-81280955D01*
X199695653Y-81501889D01*
X199649000Y-81736431D01*
X194139000Y-81736431D01*
X194092347Y-81501889D01*
X194000833Y-81280955D01*
X193867975Y-81082120D01*
X193698880Y-80913025D01*
X193500045Y-80780167D01*
X193279111Y-80688653D01*
X193044569Y-80642000D01*
X192805431Y-80642000D01*
X192570889Y-80688653D01*
X192349955Y-80780167D01*
X192151120Y-80913025D01*
X191982025Y-81082120D01*
X191849167Y-81280955D01*
X191757653Y-81501889D01*
X191711000Y-81736431D01*
X191059000Y-81736431D01*
X191059000Y-81694967D01*
X190996168Y-81379088D01*
X190872918Y-81081537D01*
X190693987Y-80813748D01*
X190466252Y-80586013D01*
X190198463Y-80407082D01*
X189900912Y-80283832D01*
X189585033Y-80221000D01*
X189262967Y-80221000D01*
X188947088Y-80283832D01*
X188649537Y-80407082D01*
X188381748Y-80586013D01*
X188154013Y-80813748D01*
X187975082Y-81081537D01*
X187851832Y-81379088D01*
X187789000Y-81694967D01*
X184559000Y-81694967D01*
X184496168Y-81379088D01*
X184372918Y-81081537D01*
X184193987Y-80813748D01*
X183966252Y-80586013D01*
X183698463Y-80407082D01*
X183400912Y-80283832D01*
X183085033Y-80221000D01*
X182762967Y-80221000D01*
X182447088Y-80283832D01*
X182149537Y-80407082D01*
X181881748Y-80586013D01*
X181654013Y-80813748D01*
X181475082Y-81081537D01*
X181351832Y-81379088D01*
X181289000Y-81694967D01*
X170660000Y-81694967D01*
X170660000Y-79665040D01*
X176452091Y-79665040D01*
X176546930Y-79929881D01*
X176691615Y-80171131D01*
X176880586Y-80379519D01*
X177106580Y-80547037D01*
X177360913Y-80667246D01*
X177494961Y-80707904D01*
X177717000Y-80585915D01*
X177717000Y-79443000D01*
X177971000Y-79443000D01*
X177971000Y-80585915D01*
X178193039Y-80707904D01*
X178327087Y-80667246D01*
X178581420Y-80547037D01*
X178807414Y-80379519D01*
X178996385Y-80171131D01*
X179008615Y-80150737D01*
X192269868Y-80150737D01*
X192314618Y-80372185D01*
X192532397Y-80470970D01*
X192765265Y-80525370D01*
X193004270Y-80533295D01*
X193240230Y-80494440D01*
X193464075Y-80410298D01*
X193535382Y-80372185D01*
X193580132Y-80150737D01*
X192925000Y-79495605D01*
X192269868Y-80150737D01*
X179008615Y-80150737D01*
X179141070Y-79929881D01*
X179235909Y-79665040D01*
X179114624Y-79443000D01*
X177971000Y-79443000D01*
X177717000Y-79443000D01*
X176573376Y-79443000D01*
X176452091Y-79665040D01*
X170660000Y-79665040D01*
X170660000Y-79395270D01*
X191707705Y-79395270D01*
X191746560Y-79631230D01*
X191830702Y-79855075D01*
X191868815Y-79926382D01*
X192090263Y-79971132D01*
X192745395Y-79316000D01*
X193104605Y-79316000D01*
X193759737Y-79971132D01*
X193981185Y-79926382D01*
X194079970Y-79708603D01*
X194134370Y-79475735D01*
X194142295Y-79236730D01*
X194135660Y-79196431D01*
X199649000Y-79196431D01*
X199649000Y-79435569D01*
X199695653Y-79670111D01*
X199787167Y-79891045D01*
X199920025Y-80089880D01*
X200089120Y-80258975D01*
X200287955Y-80391833D01*
X200508889Y-80483347D01*
X200743431Y-80530000D01*
X200982569Y-80530000D01*
X201217111Y-80483347D01*
X201438045Y-80391833D01*
X201636880Y-80258975D01*
X201805975Y-80089880D01*
X201938833Y-79891045D01*
X202030347Y-79670111D01*
X202077000Y-79435569D01*
X202077000Y-79196431D01*
X202030347Y-78961889D01*
X201938833Y-78740955D01*
X201805975Y-78542120D01*
X201636880Y-78373025D01*
X201602068Y-78349764D01*
X206329841Y-78349764D01*
X206377148Y-78573348D01*
X206598516Y-78674237D01*
X206835313Y-78730000D01*
X207078438Y-78738495D01*
X207318549Y-78699395D01*
X207546418Y-78614202D01*
X207622852Y-78573348D01*
X207670159Y-78349764D01*
X207000000Y-77679605D01*
X206329841Y-78349764D01*
X201602068Y-78349764D01*
X201438045Y-78240167D01*
X201217111Y-78148653D01*
X200982569Y-78102000D01*
X200743431Y-78102000D01*
X200508889Y-78148653D01*
X200287955Y-78240167D01*
X200089120Y-78373025D01*
X199920025Y-78542120D01*
X199787167Y-78740955D01*
X199695653Y-78961889D01*
X199649000Y-79196431D01*
X194135660Y-79196431D01*
X194103440Y-79000770D01*
X194019298Y-78776925D01*
X193981185Y-78705618D01*
X193759737Y-78660868D01*
X193104605Y-79316000D01*
X192745395Y-79316000D01*
X192090263Y-78660868D01*
X191868815Y-78705618D01*
X191770030Y-78923397D01*
X191715630Y-79156265D01*
X191707705Y-79395270D01*
X170660000Y-79395270D01*
X170660000Y-78966960D01*
X176452091Y-78966960D01*
X176573376Y-79189000D01*
X177717000Y-79189000D01*
X177717000Y-78046085D01*
X177971000Y-78046085D01*
X177971000Y-79189000D01*
X179114624Y-79189000D01*
X179235909Y-78966960D01*
X179141070Y-78702119D01*
X178996385Y-78460869D01*
X178807414Y-78252481D01*
X178581420Y-78084963D01*
X178327087Y-77964754D01*
X178193039Y-77924096D01*
X177971000Y-78046085D01*
X177717000Y-78046085D01*
X177494961Y-77924096D01*
X177360913Y-77964754D01*
X177106580Y-78084963D01*
X176880586Y-78252481D01*
X176691615Y-78460869D01*
X176546930Y-78702119D01*
X176452091Y-78966960D01*
X170660000Y-78966960D01*
X170660000Y-75264967D01*
X176209000Y-75264967D01*
X176209000Y-75587033D01*
X176271832Y-75902912D01*
X176395082Y-76200463D01*
X176574013Y-76468252D01*
X176801748Y-76695987D01*
X177069537Y-76874918D01*
X177367088Y-76998168D01*
X177682967Y-77061000D01*
X178005033Y-77061000D01*
X178320912Y-76998168D01*
X178618463Y-76874918D01*
X178886252Y-76695987D01*
X179003801Y-76578438D01*
X185761505Y-76578438D01*
X185800605Y-76818549D01*
X185880451Y-77032117D01*
X185869463Y-77045506D01*
X185810498Y-77155820D01*
X185774188Y-77275518D01*
X185761928Y-77400000D01*
X185761928Y-78600000D01*
X185774188Y-78724482D01*
X185810498Y-78844180D01*
X185869463Y-78954494D01*
X185948815Y-79051185D01*
X186045506Y-79130537D01*
X186155820Y-79189502D01*
X186275518Y-79225812D01*
X186400000Y-79238072D01*
X187600000Y-79238072D01*
X187724482Y-79225812D01*
X187844180Y-79189502D01*
X187954494Y-79130537D01*
X188051185Y-79051185D01*
X188130537Y-78954494D01*
X188189502Y-78844180D01*
X188225812Y-78724482D01*
X188238072Y-78600000D01*
X188238072Y-78481263D01*
X192269868Y-78481263D01*
X192925000Y-79136395D01*
X193580132Y-78481263D01*
X193535382Y-78259815D01*
X193317603Y-78161030D01*
X193084735Y-78106630D01*
X192845730Y-78098705D01*
X192609770Y-78137560D01*
X192385925Y-78221702D01*
X192314618Y-78259815D01*
X192269868Y-78481263D01*
X188238072Y-78481263D01*
X188238072Y-77400000D01*
X188225812Y-77275518D01*
X188189502Y-77155820D01*
X188130537Y-77045506D01*
X188116432Y-77028319D01*
X188174237Y-76901484D01*
X188230000Y-76664687D01*
X188230288Y-76656431D01*
X191711000Y-76656431D01*
X191711000Y-76895569D01*
X191757653Y-77130111D01*
X191849167Y-77351045D01*
X191982025Y-77549880D01*
X192151120Y-77718975D01*
X192349955Y-77851833D01*
X192570889Y-77943347D01*
X192805431Y-77990000D01*
X193044569Y-77990000D01*
X193279111Y-77943347D01*
X193500045Y-77851833D01*
X193698880Y-77718975D01*
X193807118Y-77610737D01*
X200207868Y-77610737D01*
X200252618Y-77832185D01*
X200470397Y-77930970D01*
X200703265Y-77985370D01*
X200942270Y-77993295D01*
X201178230Y-77954440D01*
X201402075Y-77870298D01*
X201473382Y-77832185D01*
X201518132Y-77610737D01*
X201485833Y-77578438D01*
X205761505Y-77578438D01*
X205800605Y-77818549D01*
X205885798Y-78046418D01*
X205926652Y-78122852D01*
X206150236Y-78170159D01*
X206820395Y-77500000D01*
X206806253Y-77485858D01*
X206985858Y-77306253D01*
X207000000Y-77320395D01*
X207014143Y-77306253D01*
X207193748Y-77485858D01*
X207179605Y-77500000D01*
X207849764Y-78170159D01*
X208073348Y-78122852D01*
X208174237Y-77901484D01*
X208230000Y-77664687D01*
X208238495Y-77421562D01*
X208199395Y-77181451D01*
X208119549Y-76967883D01*
X208130537Y-76954494D01*
X208189502Y-76844180D01*
X208225812Y-76724482D01*
X208238072Y-76600000D01*
X208238072Y-75400000D01*
X208225812Y-75275518D01*
X208189502Y-75155820D01*
X208130537Y-75045506D01*
X208051185Y-74948815D01*
X207954494Y-74869463D01*
X207844180Y-74810498D01*
X207724482Y-74774188D01*
X207600000Y-74761928D01*
X206400000Y-74761928D01*
X206275518Y-74774188D01*
X206155820Y-74810498D01*
X206045506Y-74869463D01*
X205948815Y-74948815D01*
X205869463Y-75045506D01*
X205810498Y-75155820D01*
X205774188Y-75275518D01*
X205761928Y-75400000D01*
X205761928Y-76600000D01*
X205774188Y-76724482D01*
X205810498Y-76844180D01*
X205869463Y-76954494D01*
X205883568Y-76971681D01*
X205825763Y-77098516D01*
X205770000Y-77335313D01*
X205761505Y-77578438D01*
X201485833Y-77578438D01*
X200863000Y-76955605D01*
X200207868Y-77610737D01*
X193807118Y-77610737D01*
X193867975Y-77549880D01*
X194000833Y-77351045D01*
X194092347Y-77130111D01*
X194139000Y-76895569D01*
X194139000Y-76855270D01*
X199645705Y-76855270D01*
X199684560Y-77091230D01*
X199768702Y-77315075D01*
X199806815Y-77386382D01*
X200028263Y-77431132D01*
X200683395Y-76776000D01*
X201042605Y-76776000D01*
X201697737Y-77431132D01*
X201919185Y-77386382D01*
X202017970Y-77168603D01*
X202072370Y-76935735D01*
X202080295Y-76696730D01*
X202041440Y-76460770D01*
X201957298Y-76236925D01*
X201919185Y-76165618D01*
X201697737Y-76120868D01*
X201042605Y-76776000D01*
X200683395Y-76776000D01*
X200028263Y-76120868D01*
X199806815Y-76165618D01*
X199708030Y-76383397D01*
X199653630Y-76616265D01*
X199645705Y-76855270D01*
X194139000Y-76855270D01*
X194139000Y-76656431D01*
X194092347Y-76421889D01*
X194000833Y-76200955D01*
X193867975Y-76002120D01*
X193807118Y-75941263D01*
X200207868Y-75941263D01*
X200863000Y-76596395D01*
X201518132Y-75941263D01*
X201473382Y-75719815D01*
X201255603Y-75621030D01*
X201022735Y-75566630D01*
X200783730Y-75558705D01*
X200547770Y-75597560D01*
X200323925Y-75681702D01*
X200252618Y-75719815D01*
X200207868Y-75941263D01*
X193807118Y-75941263D01*
X193698880Y-75833025D01*
X193500045Y-75700167D01*
X193279111Y-75608653D01*
X193044569Y-75562000D01*
X192805431Y-75562000D01*
X192570889Y-75608653D01*
X192349955Y-75700167D01*
X192151120Y-75833025D01*
X191982025Y-76002120D01*
X191849167Y-76200955D01*
X191757653Y-76421889D01*
X191711000Y-76656431D01*
X188230288Y-76656431D01*
X188238495Y-76421562D01*
X188199395Y-76181451D01*
X188114202Y-75953582D01*
X188073348Y-75877148D01*
X187849764Y-75829841D01*
X187179605Y-76500000D01*
X187193748Y-76514143D01*
X187014143Y-76693748D01*
X187000000Y-76679605D01*
X186985858Y-76693748D01*
X186806253Y-76514143D01*
X186820395Y-76500000D01*
X186150236Y-75829841D01*
X185926652Y-75877148D01*
X185825763Y-76098516D01*
X185770000Y-76335313D01*
X185761505Y-76578438D01*
X179003801Y-76578438D01*
X179113987Y-76468252D01*
X179292918Y-76200463D01*
X179416168Y-75902912D01*
X179466428Y-75650236D01*
X186329841Y-75650236D01*
X187000000Y-76320395D01*
X187670159Y-75650236D01*
X187622852Y-75426652D01*
X187401484Y-75325763D01*
X187164687Y-75270000D01*
X186921562Y-75261505D01*
X186681451Y-75300605D01*
X186453582Y-75385798D01*
X186377148Y-75426652D01*
X186329841Y-75650236D01*
X179466428Y-75650236D01*
X179479000Y-75587033D01*
X179479000Y-75264967D01*
X179416168Y-74949088D01*
X179292918Y-74651537D01*
X179113987Y-74383748D01*
X178886252Y-74156013D01*
X178827014Y-74116431D01*
X191711000Y-74116431D01*
X191711000Y-74355569D01*
X191757653Y-74590111D01*
X191849167Y-74811045D01*
X191982025Y-75009880D01*
X192151120Y-75178975D01*
X192349955Y-75311833D01*
X192570889Y-75403347D01*
X192805431Y-75450000D01*
X193044569Y-75450000D01*
X193279111Y-75403347D01*
X193500045Y-75311833D01*
X193698880Y-75178975D01*
X193867975Y-75009880D01*
X194000833Y-74811045D01*
X194092347Y-74590111D01*
X194139000Y-74355569D01*
X194139000Y-74116431D01*
X199649000Y-74116431D01*
X199649000Y-74355569D01*
X199695653Y-74590111D01*
X199787167Y-74811045D01*
X199920025Y-75009880D01*
X200089120Y-75178975D01*
X200287955Y-75311833D01*
X200508889Y-75403347D01*
X200743431Y-75450000D01*
X200982569Y-75450000D01*
X201217111Y-75403347D01*
X201438045Y-75311833D01*
X201636880Y-75178975D01*
X201805975Y-75009880D01*
X201938833Y-74811045D01*
X202030347Y-74590111D01*
X202077000Y-74355569D01*
X202077000Y-74116431D01*
X202030347Y-73881889D01*
X201938833Y-73660955D01*
X201805975Y-73462120D01*
X201636880Y-73293025D01*
X201438045Y-73160167D01*
X201217111Y-73068653D01*
X200982569Y-73022000D01*
X200743431Y-73022000D01*
X200508889Y-73068653D01*
X200287955Y-73160167D01*
X200089120Y-73293025D01*
X199920025Y-73462120D01*
X199787167Y-73660955D01*
X199695653Y-73881889D01*
X199649000Y-74116431D01*
X194139000Y-74116431D01*
X194092347Y-73881889D01*
X194000833Y-73660955D01*
X193867975Y-73462120D01*
X193698880Y-73293025D01*
X193500045Y-73160167D01*
X193279111Y-73068653D01*
X193044569Y-73022000D01*
X192805431Y-73022000D01*
X192570889Y-73068653D01*
X192349955Y-73160167D01*
X192151120Y-73293025D01*
X191982025Y-73462120D01*
X191849167Y-73660955D01*
X191757653Y-73881889D01*
X191711000Y-74116431D01*
X178827014Y-74116431D01*
X178618463Y-73977082D01*
X178320912Y-73853832D01*
X178005033Y-73791000D01*
X177682967Y-73791000D01*
X177367088Y-73853832D01*
X177069537Y-73977082D01*
X176801748Y-74156013D01*
X176574013Y-74383748D01*
X176395082Y-74651537D01*
X176271832Y-74949088D01*
X176209000Y-75264967D01*
X170660000Y-75264967D01*
X170660000Y-72530737D01*
X192269868Y-72530737D01*
X192314618Y-72752185D01*
X192532397Y-72850970D01*
X192765265Y-72905370D01*
X193004270Y-72913295D01*
X193240230Y-72874440D01*
X193464075Y-72790298D01*
X193535382Y-72752185D01*
X193580132Y-72530737D01*
X192925000Y-71875605D01*
X192269868Y-72530737D01*
X170660000Y-72530737D01*
X170660000Y-70264967D01*
X176209000Y-70264967D01*
X176209000Y-70587033D01*
X176271832Y-70902912D01*
X176395082Y-71200463D01*
X176574013Y-71468252D01*
X176801748Y-71695987D01*
X177069537Y-71874918D01*
X177367088Y-71998168D01*
X177682967Y-72061000D01*
X178005033Y-72061000D01*
X178320912Y-71998168D01*
X178618463Y-71874918D01*
X178886252Y-71695987D01*
X179113987Y-71468252D01*
X179292918Y-71200463D01*
X179416168Y-70902912D01*
X179479000Y-70587033D01*
X179479000Y-70264967D01*
X182559000Y-70264967D01*
X182559000Y-70587033D01*
X182621832Y-70902912D01*
X182745082Y-71200463D01*
X182924013Y-71468252D01*
X183151748Y-71695987D01*
X183419537Y-71874918D01*
X183717088Y-71998168D01*
X184032967Y-72061000D01*
X184355033Y-72061000D01*
X184670912Y-71998168D01*
X184968463Y-71874918D01*
X185236252Y-71695987D01*
X185370826Y-71561413D01*
X188238192Y-71561413D01*
X188333956Y-71825814D01*
X188623571Y-71966704D01*
X188935108Y-72048384D01*
X189256595Y-72067718D01*
X189575675Y-72023961D01*
X189880088Y-71918795D01*
X190054044Y-71825814D01*
X190072350Y-71775270D01*
X191707705Y-71775270D01*
X191746560Y-72011230D01*
X191830702Y-72235075D01*
X191868815Y-72306382D01*
X192090263Y-72351132D01*
X192745395Y-71696000D01*
X193104605Y-71696000D01*
X193759737Y-72351132D01*
X193981185Y-72306382D01*
X194079970Y-72088603D01*
X194134370Y-71855735D01*
X194142295Y-71616730D01*
X194135660Y-71576431D01*
X199649000Y-71576431D01*
X199649000Y-71815569D01*
X199695653Y-72050111D01*
X199787167Y-72271045D01*
X199920025Y-72469880D01*
X200089120Y-72638975D01*
X200287955Y-72771833D01*
X200508889Y-72863347D01*
X200743431Y-72910000D01*
X200982569Y-72910000D01*
X201217111Y-72863347D01*
X201438045Y-72771833D01*
X201636880Y-72638975D01*
X201805975Y-72469880D01*
X201938833Y-72271045D01*
X202030347Y-72050111D01*
X202077000Y-71815569D01*
X202077000Y-71576431D01*
X202030347Y-71341889D01*
X201938833Y-71120955D01*
X201805975Y-70922120D01*
X201636880Y-70753025D01*
X201438045Y-70620167D01*
X201217111Y-70528653D01*
X200982569Y-70482000D01*
X200743431Y-70482000D01*
X200508889Y-70528653D01*
X200287955Y-70620167D01*
X200089120Y-70753025D01*
X199920025Y-70922120D01*
X199787167Y-71120955D01*
X199695653Y-71341889D01*
X199649000Y-71576431D01*
X194135660Y-71576431D01*
X194103440Y-71380770D01*
X194019298Y-71156925D01*
X193981185Y-71085618D01*
X193759737Y-71040868D01*
X193104605Y-71696000D01*
X192745395Y-71696000D01*
X192090263Y-71040868D01*
X191868815Y-71085618D01*
X191770030Y-71303397D01*
X191715630Y-71536265D01*
X191707705Y-71775270D01*
X190072350Y-71775270D01*
X190149808Y-71561413D01*
X189194000Y-70605605D01*
X188238192Y-71561413D01*
X185370826Y-71561413D01*
X185463987Y-71468252D01*
X185642918Y-71200463D01*
X185766168Y-70902912D01*
X185829000Y-70587033D01*
X185829000Y-70488595D01*
X187552282Y-70488595D01*
X187596039Y-70807675D01*
X187701205Y-71112088D01*
X187794186Y-71286044D01*
X188058587Y-71381808D01*
X189014395Y-70426000D01*
X189373605Y-70426000D01*
X190329413Y-71381808D01*
X190593814Y-71286044D01*
X190734704Y-70996429D01*
X190770142Y-70861263D01*
X192269868Y-70861263D01*
X192925000Y-71516395D01*
X193580132Y-70861263D01*
X193535382Y-70639815D01*
X193317603Y-70541030D01*
X193084735Y-70486630D01*
X192845730Y-70478705D01*
X192609770Y-70517560D01*
X192385925Y-70601702D01*
X192314618Y-70639815D01*
X192269868Y-70861263D01*
X190770142Y-70861263D01*
X190816384Y-70684892D01*
X190835718Y-70363405D01*
X190791961Y-70044325D01*
X190686795Y-69739912D01*
X190593814Y-69565956D01*
X190329413Y-69470192D01*
X189373605Y-70426000D01*
X189014395Y-70426000D01*
X188058587Y-69470192D01*
X187794186Y-69565956D01*
X187653296Y-69855571D01*
X187571616Y-70167108D01*
X187552282Y-70488595D01*
X185829000Y-70488595D01*
X185829000Y-70264967D01*
X185766168Y-69949088D01*
X185642918Y-69651537D01*
X185463987Y-69383748D01*
X185370826Y-69290587D01*
X188238192Y-69290587D01*
X189194000Y-70246395D01*
X190149808Y-69290587D01*
X190057755Y-69036431D01*
X191711000Y-69036431D01*
X191711000Y-69275569D01*
X191757653Y-69510111D01*
X191849167Y-69731045D01*
X191982025Y-69929880D01*
X192151120Y-70098975D01*
X192349955Y-70231833D01*
X192570889Y-70323347D01*
X192805431Y-70370000D01*
X193044569Y-70370000D01*
X193279111Y-70323347D01*
X193500045Y-70231833D01*
X193698880Y-70098975D01*
X193867975Y-69929880D01*
X194000833Y-69731045D01*
X194092347Y-69510111D01*
X194139000Y-69275569D01*
X194139000Y-69036431D01*
X199649000Y-69036431D01*
X199649000Y-69275569D01*
X199695653Y-69510111D01*
X199787167Y-69731045D01*
X199920025Y-69929880D01*
X200089120Y-70098975D01*
X200287955Y-70231833D01*
X200508889Y-70323347D01*
X200743431Y-70370000D01*
X200982569Y-70370000D01*
X201217111Y-70323347D01*
X201438045Y-70231833D01*
X201636880Y-70098975D01*
X201805975Y-69929880D01*
X201938833Y-69731045D01*
X202030347Y-69510111D01*
X202031355Y-69505040D01*
X210996091Y-69505040D01*
X211090930Y-69769881D01*
X211235615Y-70011131D01*
X211424586Y-70219519D01*
X211650580Y-70387037D01*
X211904913Y-70507246D01*
X212038961Y-70547904D01*
X212261000Y-70425915D01*
X212261000Y-69283000D01*
X212515000Y-69283000D01*
X212515000Y-70425915D01*
X212737039Y-70547904D01*
X212871087Y-70507246D01*
X213125420Y-70387037D01*
X213351414Y-70219519D01*
X213540385Y-70011131D01*
X213685070Y-69769881D01*
X213779909Y-69505040D01*
X213658624Y-69283000D01*
X212515000Y-69283000D01*
X212261000Y-69283000D01*
X211117376Y-69283000D01*
X210996091Y-69505040D01*
X202031355Y-69505040D01*
X202077000Y-69275569D01*
X202077000Y-69036431D01*
X202031356Y-68806960D01*
X210996091Y-68806960D01*
X211117376Y-69029000D01*
X212261000Y-69029000D01*
X212261000Y-67886085D01*
X212515000Y-67886085D01*
X212515000Y-69029000D01*
X213658624Y-69029000D01*
X213779909Y-68806960D01*
X213685070Y-68542119D01*
X213540385Y-68300869D01*
X213351414Y-68092481D01*
X213125420Y-67924963D01*
X212871087Y-67804754D01*
X212737039Y-67764096D01*
X212515000Y-67886085D01*
X212261000Y-67886085D01*
X212038961Y-67764096D01*
X211904913Y-67804754D01*
X211650580Y-67924963D01*
X211424586Y-68092481D01*
X211235615Y-68300869D01*
X211090930Y-68542119D01*
X210996091Y-68806960D01*
X202031356Y-68806960D01*
X202030347Y-68801889D01*
X201938833Y-68580955D01*
X201805975Y-68382120D01*
X201636880Y-68213025D01*
X201438045Y-68080167D01*
X201217111Y-67988653D01*
X200982569Y-67942000D01*
X200743431Y-67942000D01*
X200508889Y-67988653D01*
X200287955Y-68080167D01*
X200089120Y-68213025D01*
X199920025Y-68382120D01*
X199787167Y-68580955D01*
X199695653Y-68801889D01*
X199649000Y-69036431D01*
X194139000Y-69036431D01*
X194092347Y-68801889D01*
X194000833Y-68580955D01*
X193867975Y-68382120D01*
X193698880Y-68213025D01*
X193500045Y-68080167D01*
X193279111Y-67988653D01*
X193044569Y-67942000D01*
X192805431Y-67942000D01*
X192570889Y-67988653D01*
X192349955Y-68080167D01*
X192151120Y-68213025D01*
X191982025Y-68382120D01*
X191849167Y-68580955D01*
X191757653Y-68801889D01*
X191711000Y-69036431D01*
X190057755Y-69036431D01*
X190054044Y-69026186D01*
X189764429Y-68885296D01*
X189452892Y-68803616D01*
X189131405Y-68784282D01*
X188812325Y-68828039D01*
X188507912Y-68933205D01*
X188333956Y-69026186D01*
X188238192Y-69290587D01*
X185370826Y-69290587D01*
X185236252Y-69156013D01*
X184968463Y-68977082D01*
X184670912Y-68853832D01*
X184355033Y-68791000D01*
X184032967Y-68791000D01*
X183717088Y-68853832D01*
X183419537Y-68977082D01*
X183151748Y-69156013D01*
X182924013Y-69383748D01*
X182745082Y-69651537D01*
X182621832Y-69949088D01*
X182559000Y-70264967D01*
X179479000Y-70264967D01*
X179416168Y-69949088D01*
X179292918Y-69651537D01*
X179113987Y-69383748D01*
X178886252Y-69156013D01*
X178618463Y-68977082D01*
X178320912Y-68853832D01*
X178005033Y-68791000D01*
X177682967Y-68791000D01*
X177367088Y-68853832D01*
X177069537Y-68977082D01*
X176801748Y-69156013D01*
X176574013Y-69383748D01*
X176395082Y-69651537D01*
X176271832Y-69949088D01*
X176209000Y-70264967D01*
X170660000Y-70264967D01*
X170660000Y-65204665D01*
X176409000Y-65204665D01*
X176409000Y-65487335D01*
X176464147Y-65764574D01*
X176572320Y-66025727D01*
X176729363Y-66260759D01*
X176929241Y-66460637D01*
X177164273Y-66617680D01*
X177425426Y-66725853D01*
X177702665Y-66781000D01*
X177985335Y-66781000D01*
X178262574Y-66725853D01*
X178523727Y-66617680D01*
X178758759Y-66460637D01*
X178958637Y-66260759D01*
X179115680Y-66025727D01*
X179223853Y-65764574D01*
X179237684Y-65695039D01*
X180262096Y-65695039D01*
X180302754Y-65829087D01*
X180422963Y-66083420D01*
X180590481Y-66309414D01*
X180798869Y-66498385D01*
X181040119Y-66643070D01*
X181304960Y-66737909D01*
X181527000Y-66616624D01*
X181527000Y-65473000D01*
X181781000Y-65473000D01*
X181781000Y-66616624D01*
X182003040Y-66737909D01*
X182267881Y-66643070D01*
X182509131Y-66498385D01*
X182717519Y-66309414D01*
X182885037Y-66083420D01*
X183005246Y-65829087D01*
X183045904Y-65695039D01*
X182923915Y-65473000D01*
X181781000Y-65473000D01*
X181527000Y-65473000D01*
X180384085Y-65473000D01*
X180262096Y-65695039D01*
X179237684Y-65695039D01*
X179279000Y-65487335D01*
X179279000Y-65204665D01*
X179223853Y-64927426D01*
X179115680Y-64666273D01*
X178958637Y-64431241D01*
X178758759Y-64231363D01*
X178523727Y-64074320D01*
X178262574Y-63966147D01*
X177985335Y-63911000D01*
X177702665Y-63911000D01*
X177425426Y-63966147D01*
X177164273Y-64074320D01*
X176929241Y-64231363D01*
X176729363Y-64431241D01*
X176572320Y-64666273D01*
X176464147Y-64927426D01*
X176409000Y-65204665D01*
X170660000Y-65204665D01*
X170660000Y-60398061D01*
X170965000Y-60398061D01*
X170965000Y-60601939D01*
X171004774Y-60801898D01*
X171082795Y-60990256D01*
X171196063Y-61159774D01*
X171340226Y-61303937D01*
X171509744Y-61417205D01*
X171698102Y-61495226D01*
X171898061Y-61535000D01*
X171960198Y-61535000D01*
X172235797Y-61810599D01*
X172167969Y-61893248D01*
X172016148Y-62177285D01*
X171922657Y-62485484D01*
X171891089Y-62806000D01*
X171922657Y-63126516D01*
X172016148Y-63434715D01*
X172167969Y-63718752D01*
X172372286Y-63967714D01*
X172621248Y-64172031D01*
X172905285Y-64323852D01*
X173213484Y-64417343D01*
X173453678Y-64441000D01*
X174614322Y-64441000D01*
X174854516Y-64417343D01*
X175162715Y-64323852D01*
X175446752Y-64172031D01*
X175695714Y-63967714D01*
X175900031Y-63718752D01*
X176051852Y-63434715D01*
X176145343Y-63126516D01*
X176176911Y-62806000D01*
X176145343Y-62485484D01*
X176051852Y-62177285D01*
X175900031Y-61893248D01*
X175695714Y-61644286D01*
X175446752Y-61439969D01*
X175162715Y-61288148D01*
X174854516Y-61194657D01*
X174614322Y-61171000D01*
X173745802Y-61171000D01*
X173035000Y-60460198D01*
X173035000Y-60398061D01*
X172995226Y-60198102D01*
X172917205Y-60009744D01*
X172803937Y-59840226D01*
X172659774Y-59696063D01*
X172490256Y-59582795D01*
X172301898Y-59504774D01*
X172101939Y-59465000D01*
X171898061Y-59465000D01*
X171698102Y-59504774D01*
X171509744Y-59582795D01*
X171340226Y-59696063D01*
X171196063Y-59840226D01*
X171082795Y-60009744D01*
X171004774Y-60198102D01*
X170965000Y-60398061D01*
X170660000Y-60398061D01*
X170660000Y-57584665D01*
X176409000Y-57584665D01*
X176409000Y-57867335D01*
X176464147Y-58144574D01*
X176572320Y-58405727D01*
X176729363Y-58640759D01*
X176929241Y-58840637D01*
X177164273Y-58997680D01*
X177425426Y-59105853D01*
X177702665Y-59161000D01*
X177985335Y-59161000D01*
X178262574Y-59105853D01*
X178523727Y-58997680D01*
X178758759Y-58840637D01*
X178958637Y-58640759D01*
X179098955Y-58430758D01*
X180030199Y-59362003D01*
X180053998Y-59391002D01*
X180082996Y-59414800D01*
X180169723Y-59485975D01*
X180301752Y-59556547D01*
X180385257Y-59581878D01*
X180382320Y-59586273D01*
X180274147Y-59847426D01*
X180219000Y-60124665D01*
X180219000Y-60407335D01*
X180274147Y-60684574D01*
X180382320Y-60945727D01*
X180539363Y-61180759D01*
X180739241Y-61380637D01*
X180971759Y-61536000D01*
X180739241Y-61691363D01*
X180539363Y-61891241D01*
X180382320Y-62126273D01*
X180274147Y-62387426D01*
X180219000Y-62664665D01*
X180219000Y-62947335D01*
X180274147Y-63224574D01*
X180382320Y-63485727D01*
X180539363Y-63720759D01*
X180739241Y-63920637D01*
X180974273Y-64077680D01*
X180984865Y-64082067D01*
X180798869Y-64193615D01*
X180590481Y-64382586D01*
X180422963Y-64608580D01*
X180302754Y-64862913D01*
X180262096Y-64996961D01*
X180384085Y-65219000D01*
X181527000Y-65219000D01*
X181527000Y-65199000D01*
X181781000Y-65199000D01*
X181781000Y-65219000D01*
X182923915Y-65219000D01*
X183045904Y-64996961D01*
X183005246Y-64862913D01*
X182885037Y-64608580D01*
X182717519Y-64382586D01*
X182509131Y-64193615D01*
X182323135Y-64082067D01*
X182333727Y-64077680D01*
X182568759Y-63920637D01*
X182768637Y-63720759D01*
X182925680Y-63485727D01*
X183033853Y-63224574D01*
X183089000Y-62947335D01*
X183089000Y-62664665D01*
X183033853Y-62387426D01*
X182925680Y-62126273D01*
X182768637Y-61891241D01*
X182568759Y-61691363D01*
X182336241Y-61536000D01*
X182568759Y-61380637D01*
X182768637Y-61180759D01*
X182925680Y-60945727D01*
X183033853Y-60684574D01*
X183089000Y-60407335D01*
X183089000Y-60124665D01*
X183033853Y-59847426D01*
X182935923Y-59611001D01*
X187544200Y-59611001D01*
X187875312Y-59942114D01*
X187839000Y-60124665D01*
X187839000Y-60407335D01*
X187894147Y-60684574D01*
X188002320Y-60945727D01*
X188159363Y-61180759D01*
X188359241Y-61380637D01*
X188591759Y-61536000D01*
X188359241Y-61691363D01*
X188159363Y-61891241D01*
X188002320Y-62126273D01*
X187894147Y-62387426D01*
X187839000Y-62664665D01*
X187839000Y-62947335D01*
X187894147Y-63224574D01*
X188002320Y-63485727D01*
X188159363Y-63720759D01*
X188359241Y-63920637D01*
X188591759Y-64076000D01*
X188359241Y-64231363D01*
X188159363Y-64431241D01*
X188002320Y-64666273D01*
X187894147Y-64927426D01*
X187839000Y-65204665D01*
X187839000Y-65487335D01*
X187894147Y-65764574D01*
X188002320Y-66025727D01*
X188159363Y-66260759D01*
X188359241Y-66460637D01*
X188594273Y-66617680D01*
X188855426Y-66725853D01*
X189132665Y-66781000D01*
X189415335Y-66781000D01*
X189692574Y-66725853D01*
X189953727Y-66617680D01*
X190135189Y-66496431D01*
X191711000Y-66496431D01*
X191711000Y-66735569D01*
X191757653Y-66970111D01*
X191849167Y-67191045D01*
X191982025Y-67389880D01*
X192151120Y-67558975D01*
X192349955Y-67691833D01*
X192570889Y-67783347D01*
X192805431Y-67830000D01*
X193044569Y-67830000D01*
X193279111Y-67783347D01*
X193500045Y-67691833D01*
X193698880Y-67558975D01*
X193867975Y-67389880D01*
X194000833Y-67191045D01*
X194092347Y-66970111D01*
X194139000Y-66735569D01*
X194139000Y-66496431D01*
X194092347Y-66261889D01*
X194000833Y-66040955D01*
X193867975Y-65842120D01*
X193698880Y-65673025D01*
X193500045Y-65540167D01*
X193279111Y-65448653D01*
X193044569Y-65402000D01*
X192805431Y-65402000D01*
X192570889Y-65448653D01*
X192349955Y-65540167D01*
X192151120Y-65673025D01*
X191982025Y-65842120D01*
X191849167Y-66040955D01*
X191757653Y-66261889D01*
X191711000Y-66496431D01*
X190135189Y-66496431D01*
X190188759Y-66460637D01*
X190388637Y-66260759D01*
X190545680Y-66025727D01*
X190653853Y-65764574D01*
X190709000Y-65487335D01*
X190709000Y-65204665D01*
X190653853Y-64927426D01*
X190545680Y-64666273D01*
X190388637Y-64431241D01*
X190188759Y-64231363D01*
X189956241Y-64076000D01*
X190135189Y-63956431D01*
X191711000Y-63956431D01*
X191711000Y-64195569D01*
X191757653Y-64430111D01*
X191849167Y-64651045D01*
X191982025Y-64849880D01*
X192151120Y-65018975D01*
X192349955Y-65151833D01*
X192570889Y-65243347D01*
X192805431Y-65290000D01*
X193044569Y-65290000D01*
X193279111Y-65243347D01*
X193500045Y-65151833D01*
X193698880Y-65018975D01*
X193867975Y-64849880D01*
X194000833Y-64651045D01*
X194092347Y-64430111D01*
X194139000Y-64195569D01*
X194139000Y-63956431D01*
X199649000Y-63956431D01*
X199649000Y-64195569D01*
X199695653Y-64430111D01*
X199787167Y-64651045D01*
X199920025Y-64849880D01*
X200089120Y-65018975D01*
X200287955Y-65151833D01*
X200508889Y-65243347D01*
X200743431Y-65290000D01*
X200982569Y-65290000D01*
X201217111Y-65243347D01*
X201438045Y-65151833D01*
X201636880Y-65018975D01*
X201805975Y-64849880D01*
X201938833Y-64651045D01*
X202030347Y-64430111D01*
X202077000Y-64195569D01*
X202077000Y-63956431D01*
X202030347Y-63721889D01*
X201938833Y-63500955D01*
X201805975Y-63302120D01*
X201636880Y-63133025D01*
X201438045Y-63000167D01*
X201217111Y-62908653D01*
X200982569Y-62862000D01*
X200743431Y-62862000D01*
X200508889Y-62908653D01*
X200287955Y-63000167D01*
X200089120Y-63133025D01*
X199920025Y-63302120D01*
X199787167Y-63500955D01*
X199695653Y-63721889D01*
X199649000Y-63956431D01*
X194139000Y-63956431D01*
X194092347Y-63721889D01*
X194000833Y-63500955D01*
X193867975Y-63302120D01*
X193698880Y-63133025D01*
X193500045Y-63000167D01*
X193279111Y-62908653D01*
X193044569Y-62862000D01*
X192805431Y-62862000D01*
X192570889Y-62908653D01*
X192349955Y-63000167D01*
X192151120Y-63133025D01*
X191982025Y-63302120D01*
X191849167Y-63500955D01*
X191757653Y-63721889D01*
X191711000Y-63956431D01*
X190135189Y-63956431D01*
X190188759Y-63920637D01*
X190388637Y-63720759D01*
X190545680Y-63485727D01*
X190653853Y-63224574D01*
X190709000Y-62947335D01*
X190709000Y-62664665D01*
X190653853Y-62387426D01*
X190545680Y-62126273D01*
X190388637Y-61891241D01*
X190188759Y-61691363D01*
X189956241Y-61536000D01*
X190135189Y-61416431D01*
X191711000Y-61416431D01*
X191711000Y-61655569D01*
X191757653Y-61890111D01*
X191849167Y-62111045D01*
X191982025Y-62309880D01*
X192151120Y-62478975D01*
X192349955Y-62611833D01*
X192570889Y-62703347D01*
X192805431Y-62750000D01*
X193044569Y-62750000D01*
X193279111Y-62703347D01*
X193500045Y-62611833D01*
X193698880Y-62478975D01*
X193867975Y-62309880D01*
X194000833Y-62111045D01*
X194092347Y-61890111D01*
X194139000Y-61655569D01*
X194139000Y-61416431D01*
X199649000Y-61416431D01*
X199649000Y-61655569D01*
X199695653Y-61890111D01*
X199787167Y-62111045D01*
X199920025Y-62309880D01*
X200089120Y-62478975D01*
X200287955Y-62611833D01*
X200508889Y-62703347D01*
X200743431Y-62750000D01*
X200982569Y-62750000D01*
X201217111Y-62703347D01*
X201438045Y-62611833D01*
X201636880Y-62478975D01*
X201805975Y-62309880D01*
X201815249Y-62296000D01*
X206740289Y-62296000D01*
X206696063Y-62340226D01*
X206582795Y-62509744D01*
X206504774Y-62698102D01*
X206465000Y-62898061D01*
X206465000Y-62960198D01*
X203569199Y-65856000D01*
X201815249Y-65856000D01*
X201805975Y-65842120D01*
X201636880Y-65673025D01*
X201438045Y-65540167D01*
X201217111Y-65448653D01*
X200982569Y-65402000D01*
X200743431Y-65402000D01*
X200508889Y-65448653D01*
X200287955Y-65540167D01*
X200089120Y-65673025D01*
X199920025Y-65842120D01*
X199787167Y-66040955D01*
X199695653Y-66261889D01*
X199649000Y-66496431D01*
X199649000Y-66735569D01*
X199695653Y-66970111D01*
X199787167Y-67191045D01*
X199920025Y-67389880D01*
X200089120Y-67558975D01*
X200287955Y-67691833D01*
X200508889Y-67783347D01*
X200743431Y-67830000D01*
X200982569Y-67830000D01*
X201217111Y-67783347D01*
X201438045Y-67691833D01*
X201636880Y-67558975D01*
X201805975Y-67389880D01*
X201815249Y-67376000D01*
X203846678Y-67376000D01*
X203884000Y-67379676D01*
X203921322Y-67376000D01*
X203921333Y-67376000D01*
X204032986Y-67365003D01*
X204176247Y-67321546D01*
X204308276Y-67250974D01*
X204424001Y-67156001D01*
X204447804Y-67126997D01*
X207539802Y-64035000D01*
X207601939Y-64035000D01*
X207801898Y-63995226D01*
X207990256Y-63917205D01*
X208159774Y-63803937D01*
X208303937Y-63659774D01*
X208417205Y-63490256D01*
X208495226Y-63301898D01*
X208535000Y-63101939D01*
X208535000Y-63035000D01*
X208601939Y-63035000D01*
X208775715Y-63000434D01*
X213853876Y-63000434D01*
X213884856Y-63128355D01*
X214013990Y-63422761D01*
X214198078Y-63686317D01*
X214430046Y-63908895D01*
X214700980Y-64081942D01*
X215000468Y-64198807D01*
X215317000Y-64255000D01*
X215817000Y-64255000D01*
X215817000Y-62747000D01*
X216071000Y-62747000D01*
X216071000Y-64255000D01*
X216571000Y-64255000D01*
X216887532Y-64198807D01*
X217187020Y-64081942D01*
X217457954Y-63908895D01*
X217689922Y-63686317D01*
X217874010Y-63422761D01*
X218003144Y-63128355D01*
X218034124Y-63000434D01*
X217914777Y-62747000D01*
X216071000Y-62747000D01*
X215817000Y-62747000D01*
X213973223Y-62747000D01*
X213853876Y-63000434D01*
X208775715Y-63000434D01*
X208801898Y-62995226D01*
X208990256Y-62917205D01*
X209159774Y-62803937D01*
X209303937Y-62659774D01*
X209417205Y-62490256D01*
X209495226Y-62301898D01*
X209507624Y-62239566D01*
X213853876Y-62239566D01*
X213973223Y-62493000D01*
X215817000Y-62493000D01*
X215817000Y-60985000D01*
X216071000Y-60985000D01*
X216071000Y-62493000D01*
X217914777Y-62493000D01*
X218034124Y-62239566D01*
X218003144Y-62111645D01*
X217874010Y-61817239D01*
X217689922Y-61553683D01*
X217457954Y-61331105D01*
X217187020Y-61158058D01*
X216887532Y-61041193D01*
X216571000Y-60985000D01*
X216071000Y-60985000D01*
X215817000Y-60985000D01*
X215317000Y-60985000D01*
X215000468Y-61041193D01*
X214700980Y-61158058D01*
X214430046Y-61331105D01*
X214198078Y-61553683D01*
X214013990Y-61817239D01*
X213884856Y-62111645D01*
X213853876Y-62239566D01*
X209507624Y-62239566D01*
X209535000Y-62101939D01*
X209535000Y-61898061D01*
X209495226Y-61698102D01*
X209417205Y-61509744D01*
X209303937Y-61340226D01*
X209159774Y-61196063D01*
X208990256Y-61082795D01*
X208801898Y-61004774D01*
X208601939Y-60965000D01*
X208538229Y-60965000D01*
X208460276Y-60901026D01*
X208328247Y-60830454D01*
X208184986Y-60786997D01*
X208073333Y-60776000D01*
X208073322Y-60776000D01*
X208036000Y-60772324D01*
X207998678Y-60776000D01*
X207210184Y-60776000D01*
X207225812Y-60724482D01*
X207238072Y-60600000D01*
X207238072Y-59400000D01*
X207225812Y-59275518D01*
X207189502Y-59155820D01*
X207130537Y-59045506D01*
X207116432Y-59028319D01*
X207174237Y-58901484D01*
X207230000Y-58664687D01*
X207238495Y-58421562D01*
X207199395Y-58181451D01*
X207114202Y-57953582D01*
X207073348Y-57877148D01*
X206849764Y-57829841D01*
X206179605Y-58500000D01*
X206193748Y-58514143D01*
X206014143Y-58693748D01*
X206000000Y-58679605D01*
X205985858Y-58693748D01*
X205806253Y-58514143D01*
X205820395Y-58500000D01*
X205150236Y-57829841D01*
X204926652Y-57877148D01*
X204825763Y-58098516D01*
X204770000Y-58335313D01*
X204761505Y-58578438D01*
X204800605Y-58818549D01*
X204880451Y-59032117D01*
X204869463Y-59045506D01*
X204810498Y-59155820D01*
X204774188Y-59275518D01*
X204761928Y-59400000D01*
X204761928Y-60600000D01*
X204774188Y-60724482D01*
X204789816Y-60776000D01*
X201815249Y-60776000D01*
X201805975Y-60762120D01*
X201636880Y-60593025D01*
X201438045Y-60460167D01*
X201217111Y-60368653D01*
X200982569Y-60322000D01*
X200743431Y-60322000D01*
X200508889Y-60368653D01*
X200287955Y-60460167D01*
X200089120Y-60593025D01*
X199920025Y-60762120D01*
X199787167Y-60960955D01*
X199695653Y-61181889D01*
X199649000Y-61416431D01*
X194139000Y-61416431D01*
X194092347Y-61181889D01*
X194000833Y-60960955D01*
X193867975Y-60762120D01*
X193698880Y-60593025D01*
X193500045Y-60460167D01*
X193279111Y-60368653D01*
X193044569Y-60322000D01*
X192805431Y-60322000D01*
X192570889Y-60368653D01*
X192349955Y-60460167D01*
X192151120Y-60593025D01*
X191982025Y-60762120D01*
X191849167Y-60960955D01*
X191757653Y-61181889D01*
X191711000Y-61416431D01*
X190135189Y-61416431D01*
X190188759Y-61380637D01*
X190388637Y-61180759D01*
X190545680Y-60945727D01*
X190653853Y-60684574D01*
X190709000Y-60407335D01*
X190709000Y-60124665D01*
X190653853Y-59847426D01*
X190545680Y-59586273D01*
X190388637Y-59351241D01*
X190188759Y-59151363D01*
X189956241Y-58996000D01*
X190135189Y-58876431D01*
X191711000Y-58876431D01*
X191711000Y-59115569D01*
X191757653Y-59350111D01*
X191849167Y-59571045D01*
X191982025Y-59769880D01*
X192151120Y-59938975D01*
X192349955Y-60071833D01*
X192570889Y-60163347D01*
X192805431Y-60210000D01*
X193044569Y-60210000D01*
X193279111Y-60163347D01*
X193500045Y-60071833D01*
X193698880Y-59938975D01*
X193867975Y-59769880D01*
X194000833Y-59571045D01*
X194092347Y-59350111D01*
X194139000Y-59115569D01*
X194139000Y-58876431D01*
X199649000Y-58876431D01*
X199649000Y-59115569D01*
X199695653Y-59350111D01*
X199787167Y-59571045D01*
X199920025Y-59769880D01*
X200089120Y-59938975D01*
X200287955Y-60071833D01*
X200508889Y-60163347D01*
X200743431Y-60210000D01*
X200982569Y-60210000D01*
X201217111Y-60163347D01*
X201438045Y-60071833D01*
X201636880Y-59938975D01*
X201805975Y-59769880D01*
X201938833Y-59571045D01*
X202030347Y-59350111D01*
X202077000Y-59115569D01*
X202077000Y-58876431D01*
X202030347Y-58641889D01*
X201938833Y-58420955D01*
X201805975Y-58222120D01*
X201636880Y-58053025D01*
X201438045Y-57920167D01*
X201217111Y-57828653D01*
X200982569Y-57782000D01*
X200743431Y-57782000D01*
X200508889Y-57828653D01*
X200287955Y-57920167D01*
X200089120Y-58053025D01*
X199920025Y-58222120D01*
X199787167Y-58420955D01*
X199695653Y-58641889D01*
X199649000Y-58876431D01*
X194139000Y-58876431D01*
X194092347Y-58641889D01*
X194000833Y-58420955D01*
X193867975Y-58222120D01*
X193698880Y-58053025D01*
X193500045Y-57920167D01*
X193279111Y-57828653D01*
X193044569Y-57782000D01*
X192805431Y-57782000D01*
X192570889Y-57828653D01*
X192349955Y-57920167D01*
X192151120Y-58053025D01*
X191982025Y-58222120D01*
X191849167Y-58420955D01*
X191757653Y-58641889D01*
X191711000Y-58876431D01*
X190135189Y-58876431D01*
X190188759Y-58840637D01*
X190388637Y-58640759D01*
X190545680Y-58405727D01*
X190653853Y-58144574D01*
X190709000Y-57867335D01*
X190709000Y-57584665D01*
X190653853Y-57307426D01*
X190545680Y-57046273D01*
X190388637Y-56811241D01*
X190188759Y-56611363D01*
X189953727Y-56454320D01*
X189692574Y-56346147D01*
X189643730Y-56336431D01*
X191711000Y-56336431D01*
X191711000Y-56575569D01*
X191757653Y-56810111D01*
X191849167Y-57031045D01*
X191982025Y-57229880D01*
X192151120Y-57398975D01*
X192349955Y-57531833D01*
X192570889Y-57623347D01*
X192805431Y-57670000D01*
X193044569Y-57670000D01*
X193279111Y-57623347D01*
X193500045Y-57531833D01*
X193698880Y-57398975D01*
X193867975Y-57229880D01*
X194000833Y-57031045D01*
X194092347Y-56810111D01*
X194139000Y-56575569D01*
X194139000Y-56336431D01*
X199649000Y-56336431D01*
X199649000Y-56575569D01*
X199695653Y-56810111D01*
X199787167Y-57031045D01*
X199920025Y-57229880D01*
X200089120Y-57398975D01*
X200287955Y-57531833D01*
X200508889Y-57623347D01*
X200743431Y-57670000D01*
X200982569Y-57670000D01*
X201081929Y-57650236D01*
X205329841Y-57650236D01*
X206000000Y-58320395D01*
X206670159Y-57650236D01*
X206622852Y-57426652D01*
X206401484Y-57325763D01*
X206164687Y-57270000D01*
X205921562Y-57261505D01*
X205681451Y-57300605D01*
X205453582Y-57385798D01*
X205377148Y-57426652D01*
X205329841Y-57650236D01*
X201081929Y-57650236D01*
X201217111Y-57623347D01*
X201438045Y-57531833D01*
X201636880Y-57398975D01*
X201805975Y-57229880D01*
X201938833Y-57031045D01*
X202030347Y-56810111D01*
X202077000Y-56575569D01*
X202077000Y-56336431D01*
X202030347Y-56101889D01*
X201938833Y-55880955D01*
X201805975Y-55682120D01*
X201636880Y-55513025D01*
X201438045Y-55380167D01*
X201217111Y-55288653D01*
X200982569Y-55242000D01*
X200743431Y-55242000D01*
X200508889Y-55288653D01*
X200287955Y-55380167D01*
X200089120Y-55513025D01*
X199920025Y-55682120D01*
X199787167Y-55880955D01*
X199695653Y-56101889D01*
X199649000Y-56336431D01*
X194139000Y-56336431D01*
X194092347Y-56101889D01*
X194000833Y-55880955D01*
X193867975Y-55682120D01*
X193698880Y-55513025D01*
X193500045Y-55380167D01*
X193279111Y-55288653D01*
X193044569Y-55242000D01*
X192805431Y-55242000D01*
X192570889Y-55288653D01*
X192349955Y-55380167D01*
X192151120Y-55513025D01*
X191982025Y-55682120D01*
X191849167Y-55880955D01*
X191757653Y-56101889D01*
X191711000Y-56336431D01*
X189643730Y-56336431D01*
X189415335Y-56291000D01*
X189132665Y-56291000D01*
X188855426Y-56346147D01*
X188594273Y-56454320D01*
X188359241Y-56611363D01*
X188159363Y-56811241D01*
X188002320Y-57046273D01*
X187894147Y-57307426D01*
X187839000Y-57584665D01*
X187839000Y-57867335D01*
X187883234Y-58089712D01*
X187859001Y-58087325D01*
X187821679Y-58091001D01*
X183092072Y-58091001D01*
X183092072Y-56926000D01*
X183079812Y-56801518D01*
X183043502Y-56681820D01*
X182984537Y-56571506D01*
X182905185Y-56474815D01*
X182808494Y-56395463D01*
X182698180Y-56336498D01*
X182578482Y-56300188D01*
X182454000Y-56287928D01*
X180854000Y-56287928D01*
X180729518Y-56300188D01*
X180609820Y-56336498D01*
X180499506Y-56395463D01*
X180402815Y-56474815D01*
X180323463Y-56571506D01*
X180264498Y-56681820D01*
X180228188Y-56801518D01*
X180215928Y-56926000D01*
X180215928Y-57398128D01*
X178760000Y-55942201D01*
X178760000Y-55203711D01*
X178803937Y-55159774D01*
X178917205Y-54990256D01*
X178995226Y-54801898D01*
X179035000Y-54601939D01*
X179035000Y-54398061D01*
X178995226Y-54198102D01*
X178917205Y-54009744D01*
X178803937Y-53840226D01*
X178738376Y-53774665D01*
X180219000Y-53774665D01*
X180219000Y-54057335D01*
X180274147Y-54334574D01*
X180382320Y-54595727D01*
X180539363Y-54830759D01*
X180739241Y-55030637D01*
X180974273Y-55187680D01*
X181235426Y-55295853D01*
X181512665Y-55351000D01*
X181795335Y-55351000D01*
X182072574Y-55295853D01*
X182333727Y-55187680D01*
X182568759Y-55030637D01*
X182768637Y-54830759D01*
X182925680Y-54595727D01*
X183033853Y-54334574D01*
X183089000Y-54057335D01*
X183089000Y-53774665D01*
X187839000Y-53774665D01*
X187839000Y-54057335D01*
X187894147Y-54334574D01*
X188002320Y-54595727D01*
X188159363Y-54830759D01*
X188359241Y-55030637D01*
X188594273Y-55187680D01*
X188855426Y-55295853D01*
X189132665Y-55351000D01*
X189415335Y-55351000D01*
X189692574Y-55295853D01*
X189953727Y-55187680D01*
X190188759Y-55030637D01*
X190388637Y-54830759D01*
X190545680Y-54595727D01*
X190653853Y-54334574D01*
X190709000Y-54057335D01*
X190709000Y-53774665D01*
X190653853Y-53497426D01*
X190587403Y-53337000D01*
X191707928Y-53337000D01*
X191707928Y-54495000D01*
X191720188Y-54619482D01*
X191756498Y-54739180D01*
X191815463Y-54849494D01*
X191894815Y-54946185D01*
X191991506Y-55025537D01*
X192101820Y-55084502D01*
X192221518Y-55120812D01*
X192346000Y-55133072D01*
X193504000Y-55133072D01*
X193628482Y-55120812D01*
X193748180Y-55084502D01*
X193858494Y-55025537D01*
X193955185Y-54946185D01*
X194034537Y-54849494D01*
X194093502Y-54739180D01*
X194129812Y-54619482D01*
X194142072Y-54495000D01*
X194142072Y-53796431D01*
X199649000Y-53796431D01*
X199649000Y-54035569D01*
X199695653Y-54270111D01*
X199787167Y-54491045D01*
X199920025Y-54689880D01*
X200089120Y-54858975D01*
X200287955Y-54991833D01*
X200508889Y-55083347D01*
X200743431Y-55130000D01*
X200982569Y-55130000D01*
X201217111Y-55083347D01*
X201418328Y-55000000D01*
X213801089Y-55000000D01*
X213832657Y-55320516D01*
X213926148Y-55628715D01*
X214077969Y-55912752D01*
X214282286Y-56161714D01*
X214531248Y-56366031D01*
X214815285Y-56517852D01*
X215059000Y-56591782D01*
X215059001Y-58567188D01*
X215004774Y-58698102D01*
X214965000Y-58898061D01*
X214965000Y-59101939D01*
X215004774Y-59301898D01*
X215082795Y-59490256D01*
X215196063Y-59659774D01*
X215340226Y-59803937D01*
X215509744Y-59917205D01*
X215698102Y-59995226D01*
X215898061Y-60035000D01*
X216101939Y-60035000D01*
X216301898Y-59995226D01*
X216490256Y-59917205D01*
X216659774Y-59803937D01*
X216803937Y-59659774D01*
X216917205Y-59490256D01*
X216995226Y-59301898D01*
X217035000Y-59101939D01*
X217035000Y-58898061D01*
X216995226Y-58698102D01*
X216917205Y-58509744D01*
X216829000Y-58377736D01*
X216829000Y-56591782D01*
X217072715Y-56517852D01*
X217356752Y-56366031D01*
X217605714Y-56161714D01*
X217810031Y-55912752D01*
X217961852Y-55628715D01*
X218055343Y-55320516D01*
X218086911Y-55000000D01*
X218055343Y-54679484D01*
X217961852Y-54371285D01*
X217810031Y-54087248D01*
X217605714Y-53838286D01*
X217356752Y-53633969D01*
X217072715Y-53482148D01*
X216764516Y-53388657D01*
X216524322Y-53365000D01*
X215363678Y-53365000D01*
X215123484Y-53388657D01*
X214815285Y-53482148D01*
X214531248Y-53633969D01*
X214282286Y-53838286D01*
X214077969Y-54087248D01*
X213926148Y-54371285D01*
X213832657Y-54679484D01*
X213801089Y-55000000D01*
X201418328Y-55000000D01*
X201438045Y-54991833D01*
X201636880Y-54858975D01*
X201805975Y-54689880D01*
X201938833Y-54491045D01*
X202030347Y-54270111D01*
X202077000Y-54035569D01*
X202077000Y-53796431D01*
X202030347Y-53561889D01*
X201938833Y-53340955D01*
X201805975Y-53142120D01*
X201636880Y-52973025D01*
X201438045Y-52840167D01*
X201217111Y-52748653D01*
X200982569Y-52702000D01*
X200743431Y-52702000D01*
X200508889Y-52748653D01*
X200287955Y-52840167D01*
X200089120Y-52973025D01*
X199920025Y-53142120D01*
X199787167Y-53340955D01*
X199695653Y-53561889D01*
X199649000Y-53796431D01*
X194142072Y-53796431D01*
X194142072Y-53337000D01*
X194129812Y-53212518D01*
X194093502Y-53092820D01*
X194034537Y-52982506D01*
X193955185Y-52885815D01*
X193858494Y-52806463D01*
X193748180Y-52747498D01*
X193628482Y-52711188D01*
X193504000Y-52698928D01*
X192346000Y-52698928D01*
X192221518Y-52711188D01*
X192101820Y-52747498D01*
X191991506Y-52806463D01*
X191894815Y-52885815D01*
X191815463Y-52982506D01*
X191756498Y-53092820D01*
X191720188Y-53212518D01*
X191707928Y-53337000D01*
X190587403Y-53337000D01*
X190545680Y-53236273D01*
X190388637Y-53001241D01*
X190188759Y-52801363D01*
X189953727Y-52644320D01*
X189692574Y-52536147D01*
X189415335Y-52481000D01*
X189132665Y-52481000D01*
X188855426Y-52536147D01*
X188594273Y-52644320D01*
X188359241Y-52801363D01*
X188159363Y-53001241D01*
X188002320Y-53236273D01*
X187894147Y-53497426D01*
X187839000Y-53774665D01*
X183089000Y-53774665D01*
X183033853Y-53497426D01*
X182925680Y-53236273D01*
X182768637Y-53001241D01*
X182568759Y-52801363D01*
X182333727Y-52644320D01*
X182072574Y-52536147D01*
X181795335Y-52481000D01*
X181512665Y-52481000D01*
X181235426Y-52536147D01*
X180974273Y-52644320D01*
X180739241Y-52801363D01*
X180539363Y-53001241D01*
X180382320Y-53236273D01*
X180274147Y-53497426D01*
X180219000Y-53774665D01*
X178738376Y-53774665D01*
X178659774Y-53696063D01*
X178490256Y-53582795D01*
X178301898Y-53504774D01*
X178101939Y-53465000D01*
X177898061Y-53465000D01*
X177698102Y-53504774D01*
X177509744Y-53582795D01*
X177340226Y-53696063D01*
X177196063Y-53840226D01*
X177082795Y-54009744D01*
X177004774Y-54198102D01*
X176965000Y-54398061D01*
X176965000Y-54601939D01*
X177004774Y-54801898D01*
X177082795Y-54990256D01*
X177196063Y-55159774D01*
X177240001Y-55203712D01*
X177240000Y-56219679D01*
X177236324Y-56257002D01*
X177240000Y-56294324D01*
X177240000Y-56294334D01*
X177250997Y-56405987D01*
X177254341Y-56417012D01*
X177164273Y-56454320D01*
X176929241Y-56611363D01*
X176729363Y-56811241D01*
X176572320Y-57046273D01*
X176464147Y-57307426D01*
X176409000Y-57584665D01*
X170660000Y-57584665D01*
X170660000Y-55186000D01*
X171891089Y-55186000D01*
X171922657Y-55506516D01*
X172016148Y-55814715D01*
X172167969Y-56098752D01*
X172372286Y-56347714D01*
X172621248Y-56552031D01*
X172905285Y-56703852D01*
X173213484Y-56797343D01*
X173453678Y-56821000D01*
X174614322Y-56821000D01*
X174854516Y-56797343D01*
X175162715Y-56703852D01*
X175446752Y-56552031D01*
X175695714Y-56347714D01*
X175900031Y-56098752D01*
X176051852Y-55814715D01*
X176145343Y-55506516D01*
X176176911Y-55186000D01*
X176145343Y-54865484D01*
X176051852Y-54557285D01*
X175900031Y-54273248D01*
X175695714Y-54024286D01*
X175446752Y-53819969D01*
X175162715Y-53668148D01*
X174854516Y-53574657D01*
X174614322Y-53551000D01*
X173453678Y-53551000D01*
X173213484Y-53574657D01*
X172905285Y-53668148D01*
X172621248Y-53819969D01*
X172372286Y-54024286D01*
X172167969Y-54273248D01*
X172016148Y-54557285D01*
X171922657Y-54865484D01*
X171891089Y-55186000D01*
X170660000Y-55186000D01*
X170660000Y-50660000D01*
X219340000Y-50660000D01*
X219340001Y-89340000D01*
%TA.AperFunction,Conductor*%
D25*
G36*
X219340001Y-89340000D02*
G01*
X170660000Y-89340000D01*
X170660000Y-86794665D01*
X176409000Y-86794665D01*
X176409000Y-87077335D01*
X176464147Y-87354574D01*
X176572320Y-87615727D01*
X176729363Y-87850759D01*
X176929241Y-88050637D01*
X177164273Y-88207680D01*
X177425426Y-88315853D01*
X177702665Y-88371000D01*
X177985335Y-88371000D01*
X178262574Y-88315853D01*
X178523727Y-88207680D01*
X178758759Y-88050637D01*
X178958637Y-87850759D01*
X179115680Y-87615727D01*
X179223853Y-87354574D01*
X179279000Y-87077335D01*
X179279000Y-86794665D01*
X179223853Y-86517426D01*
X179115680Y-86256273D01*
X179074717Y-86194967D01*
X181289000Y-86194967D01*
X181289000Y-86517033D01*
X181351832Y-86832912D01*
X181475082Y-87130463D01*
X181654013Y-87398252D01*
X181881748Y-87625987D01*
X182149537Y-87804918D01*
X182447088Y-87928168D01*
X182762967Y-87991000D01*
X183085033Y-87991000D01*
X183400912Y-87928168D01*
X183698463Y-87804918D01*
X183966252Y-87625987D01*
X184193987Y-87398252D01*
X184372918Y-87130463D01*
X184496168Y-86832912D01*
X184559000Y-86517033D01*
X184559000Y-86194967D01*
X187789000Y-86194967D01*
X187789000Y-86517033D01*
X187851832Y-86832912D01*
X187975082Y-87130463D01*
X188154013Y-87398252D01*
X188381748Y-87625987D01*
X188649537Y-87804918D01*
X188947088Y-87928168D01*
X189262967Y-87991000D01*
X189585033Y-87991000D01*
X189900912Y-87928168D01*
X190198463Y-87804918D01*
X190466252Y-87625987D01*
X190693987Y-87398252D01*
X190872918Y-87130463D01*
X190996168Y-86832912D01*
X190999446Y-86816431D01*
X191711000Y-86816431D01*
X191711000Y-87055569D01*
X191757653Y-87290111D01*
X191849167Y-87511045D01*
X191982025Y-87709880D01*
X192151120Y-87878975D01*
X192349955Y-88011833D01*
X192570889Y-88103347D01*
X192805431Y-88150000D01*
X193044569Y-88150000D01*
X193279111Y-88103347D01*
X193500045Y-88011833D01*
X193698880Y-87878975D01*
X193867975Y-87709880D01*
X194000833Y-87511045D01*
X194092347Y-87290111D01*
X194139000Y-87055569D01*
X194139000Y-86816431D01*
X199649000Y-86816431D01*
X199649000Y-87055569D01*
X199695653Y-87290111D01*
X199787167Y-87511045D01*
X199920025Y-87709880D01*
X200089120Y-87878975D01*
X200287955Y-88011833D01*
X200508889Y-88103347D01*
X200743431Y-88150000D01*
X200982569Y-88150000D01*
X201217111Y-88103347D01*
X201438045Y-88011833D01*
X201636880Y-87878975D01*
X201805975Y-87709880D01*
X201938833Y-87511045D01*
X202030347Y-87290111D01*
X202077000Y-87055569D01*
X202077000Y-86816431D01*
X202068753Y-86774967D01*
X202729000Y-86774967D01*
X202729000Y-87097033D01*
X202791832Y-87412912D01*
X202915082Y-87710463D01*
X203094013Y-87978252D01*
X203321748Y-88205987D01*
X203589537Y-88384918D01*
X203887088Y-88508168D01*
X204202967Y-88571000D01*
X204525033Y-88571000D01*
X204840912Y-88508168D01*
X205138463Y-88384918D01*
X205406252Y-88205987D01*
X205633987Y-87978252D01*
X205812918Y-87710463D01*
X205936168Y-87412912D01*
X205999000Y-87097033D01*
X205999000Y-86774967D01*
X209229000Y-86774967D01*
X209229000Y-87097033D01*
X209291832Y-87412912D01*
X209415082Y-87710463D01*
X209594013Y-87978252D01*
X209821748Y-88205987D01*
X210089537Y-88384918D01*
X210387088Y-88508168D01*
X210702967Y-88571000D01*
X211025033Y-88571000D01*
X211340912Y-88508168D01*
X211638463Y-88384918D01*
X211906252Y-88205987D01*
X212133987Y-87978252D01*
X212312918Y-87710463D01*
X212436168Y-87412912D01*
X212499000Y-87097033D01*
X212499000Y-86774967D01*
X212480508Y-86682000D01*
X214599928Y-86682000D01*
X214599928Y-88206000D01*
X214612188Y-88330482D01*
X214648498Y-88450180D01*
X214707463Y-88560494D01*
X214786815Y-88657185D01*
X214883506Y-88736537D01*
X214993820Y-88795502D01*
X215113518Y-88831812D01*
X215238000Y-88844072D01*
X216762000Y-88844072D01*
X216886482Y-88831812D01*
X217006180Y-88795502D01*
X217116494Y-88736537D01*
X217213185Y-88657185D01*
X217292537Y-88560494D01*
X217351502Y-88450180D01*
X217387812Y-88330482D01*
X217400072Y-88206000D01*
X217400072Y-86682000D01*
X217387812Y-86557518D01*
X217351502Y-86437820D01*
X217292537Y-86327506D01*
X217213185Y-86230815D01*
X217116494Y-86151463D01*
X217006180Y-86092498D01*
X216886482Y-86056188D01*
X216802535Y-86047920D01*
X216890535Y-85989120D01*
X217085120Y-85794535D01*
X217238005Y-85565727D01*
X217343314Y-85311490D01*
X217397000Y-85041592D01*
X217397000Y-84766408D01*
X217343314Y-84496510D01*
X217238005Y-84242273D01*
X217085120Y-84013465D01*
X216890535Y-83818880D01*
X216661727Y-83665995D01*
X216584485Y-83634000D01*
X216661727Y-83602005D01*
X216890535Y-83449120D01*
X217085120Y-83254535D01*
X217238005Y-83025727D01*
X217343314Y-82771490D01*
X217397000Y-82501592D01*
X217397000Y-82226408D01*
X217343314Y-81956510D01*
X217238005Y-81702273D01*
X217085120Y-81473465D01*
X216890535Y-81278880D01*
X216661727Y-81125995D01*
X216407490Y-81020686D01*
X216137592Y-80967000D01*
X215862408Y-80967000D01*
X215592510Y-81020686D01*
X215338273Y-81125995D01*
X215109465Y-81278880D01*
X214914880Y-81473465D01*
X214761995Y-81702273D01*
X214656686Y-81956510D01*
X214603000Y-82226408D01*
X214603000Y-82501592D01*
X214656686Y-82771490D01*
X214761995Y-83025727D01*
X214914880Y-83254535D01*
X215109465Y-83449120D01*
X215338273Y-83602005D01*
X215415515Y-83634000D01*
X215338273Y-83665995D01*
X215109465Y-83818880D01*
X214914880Y-84013465D01*
X214761995Y-84242273D01*
X214656686Y-84496510D01*
X214603000Y-84766408D01*
X214603000Y-85041592D01*
X214656686Y-85311490D01*
X214761995Y-85565727D01*
X214914880Y-85794535D01*
X215109465Y-85989120D01*
X215197465Y-86047920D01*
X215113518Y-86056188D01*
X214993820Y-86092498D01*
X214883506Y-86151463D01*
X214786815Y-86230815D01*
X214707463Y-86327506D01*
X214648498Y-86437820D01*
X214612188Y-86557518D01*
X214599928Y-86682000D01*
X212480508Y-86682000D01*
X212436168Y-86459088D01*
X212312918Y-86161537D01*
X212133987Y-85893748D01*
X211906252Y-85666013D01*
X211638463Y-85487082D01*
X211340912Y-85363832D01*
X211025033Y-85301000D01*
X210702967Y-85301000D01*
X210387088Y-85363832D01*
X210089537Y-85487082D01*
X209821748Y-85666013D01*
X209594013Y-85893748D01*
X209415082Y-86161537D01*
X209291832Y-86459088D01*
X209229000Y-86774967D01*
X205999000Y-86774967D01*
X205936168Y-86459088D01*
X205812918Y-86161537D01*
X205633987Y-85893748D01*
X205406252Y-85666013D01*
X205138463Y-85487082D01*
X204840912Y-85363832D01*
X204525033Y-85301000D01*
X204202967Y-85301000D01*
X203887088Y-85363832D01*
X203589537Y-85487082D01*
X203321748Y-85666013D01*
X203094013Y-85893748D01*
X202915082Y-86161537D01*
X202791832Y-86459088D01*
X202729000Y-86774967D01*
X202068753Y-86774967D01*
X202030347Y-86581889D01*
X201938833Y-86360955D01*
X201805975Y-86162120D01*
X201636880Y-85993025D01*
X201438045Y-85860167D01*
X201217111Y-85768653D01*
X200982569Y-85722000D01*
X200743431Y-85722000D01*
X200508889Y-85768653D01*
X200287955Y-85860167D01*
X200089120Y-85993025D01*
X199920025Y-86162120D01*
X199787167Y-86360955D01*
X199695653Y-86581889D01*
X199649000Y-86816431D01*
X194139000Y-86816431D01*
X194092347Y-86581889D01*
X194000833Y-86360955D01*
X193867975Y-86162120D01*
X193698880Y-85993025D01*
X193500045Y-85860167D01*
X193279111Y-85768653D01*
X193044569Y-85722000D01*
X192805431Y-85722000D01*
X192570889Y-85768653D01*
X192349955Y-85860167D01*
X192151120Y-85993025D01*
X191982025Y-86162120D01*
X191849167Y-86360955D01*
X191757653Y-86581889D01*
X191711000Y-86816431D01*
X190999446Y-86816431D01*
X191059000Y-86517033D01*
X191059000Y-86194967D01*
X190996168Y-85879088D01*
X190872918Y-85581537D01*
X190693987Y-85313748D01*
X190466252Y-85086013D01*
X190198463Y-84907082D01*
X189900912Y-84783832D01*
X189585033Y-84721000D01*
X189262967Y-84721000D01*
X188947088Y-84783832D01*
X188649537Y-84907082D01*
X188381748Y-85086013D01*
X188154013Y-85313748D01*
X187975082Y-85581537D01*
X187851832Y-85879088D01*
X187789000Y-86194967D01*
X184559000Y-86194967D01*
X184496168Y-85879088D01*
X184372918Y-85581537D01*
X184193987Y-85313748D01*
X183966252Y-85086013D01*
X183698463Y-84907082D01*
X183400912Y-84783832D01*
X183085033Y-84721000D01*
X182762967Y-84721000D01*
X182447088Y-84783832D01*
X182149537Y-84907082D01*
X181881748Y-85086013D01*
X181654013Y-85313748D01*
X181475082Y-85581537D01*
X181351832Y-85879088D01*
X181289000Y-86194967D01*
X179074717Y-86194967D01*
X178958637Y-86021241D01*
X178758759Y-85821363D01*
X178523727Y-85664320D01*
X178262574Y-85556147D01*
X177985335Y-85501000D01*
X177702665Y-85501000D01*
X177425426Y-85556147D01*
X177164273Y-85664320D01*
X176929241Y-85821363D01*
X176729363Y-86021241D01*
X176572320Y-86256273D01*
X176464147Y-86517426D01*
X176409000Y-86794665D01*
X170660000Y-86794665D01*
X170660000Y-84276431D01*
X191711000Y-84276431D01*
X191711000Y-84515569D01*
X191757653Y-84750111D01*
X191849167Y-84971045D01*
X191982025Y-85169880D01*
X192151120Y-85338975D01*
X192349955Y-85471833D01*
X192570889Y-85563347D01*
X192805431Y-85610000D01*
X193044569Y-85610000D01*
X193279111Y-85563347D01*
X193500045Y-85471833D01*
X193698880Y-85338975D01*
X193867975Y-85169880D01*
X194000833Y-84971045D01*
X194092347Y-84750111D01*
X194139000Y-84515569D01*
X194139000Y-84276431D01*
X199649000Y-84276431D01*
X199649000Y-84515569D01*
X199695653Y-84750111D01*
X199787167Y-84971045D01*
X199920025Y-85169880D01*
X200089120Y-85338975D01*
X200287955Y-85471833D01*
X200508889Y-85563347D01*
X200743431Y-85610000D01*
X200982569Y-85610000D01*
X201217111Y-85563347D01*
X201438045Y-85471833D01*
X201636880Y-85338975D01*
X201805975Y-85169880D01*
X201938833Y-84971045D01*
X202030347Y-84750111D01*
X202077000Y-84515569D01*
X202077000Y-84276431D01*
X202030347Y-84041889D01*
X201938833Y-83820955D01*
X201805975Y-83622120D01*
X201636880Y-83453025D01*
X201438045Y-83320167D01*
X201217111Y-83228653D01*
X200982569Y-83182000D01*
X200743431Y-83182000D01*
X200508889Y-83228653D01*
X200287955Y-83320167D01*
X200089120Y-83453025D01*
X199920025Y-83622120D01*
X199787167Y-83820955D01*
X199695653Y-84041889D01*
X199649000Y-84276431D01*
X194139000Y-84276431D01*
X194092347Y-84041889D01*
X194000833Y-83820955D01*
X193867975Y-83622120D01*
X193698880Y-83453025D01*
X193500045Y-83320167D01*
X193279111Y-83228653D01*
X193044569Y-83182000D01*
X192805431Y-83182000D01*
X192570889Y-83228653D01*
X192349955Y-83320167D01*
X192151120Y-83453025D01*
X191982025Y-83622120D01*
X191849167Y-83820955D01*
X191757653Y-84041889D01*
X191711000Y-84276431D01*
X170660000Y-84276431D01*
X170660000Y-81694967D01*
X181289000Y-81694967D01*
X181289000Y-82017033D01*
X181351832Y-82332912D01*
X181475082Y-82630463D01*
X181654013Y-82898252D01*
X181881748Y-83125987D01*
X182149537Y-83304918D01*
X182447088Y-83428168D01*
X182762967Y-83491000D01*
X183085033Y-83491000D01*
X183400912Y-83428168D01*
X183698463Y-83304918D01*
X183966252Y-83125987D01*
X184193987Y-82898252D01*
X184372918Y-82630463D01*
X184496168Y-82332912D01*
X184559000Y-82017033D01*
X184559000Y-81694967D01*
X187789000Y-81694967D01*
X187789000Y-82017033D01*
X187851832Y-82332912D01*
X187975082Y-82630463D01*
X188154013Y-82898252D01*
X188381748Y-83125987D01*
X188649537Y-83304918D01*
X188947088Y-83428168D01*
X189262967Y-83491000D01*
X189585033Y-83491000D01*
X189900912Y-83428168D01*
X190198463Y-83304918D01*
X190466252Y-83125987D01*
X190693987Y-82898252D01*
X190872918Y-82630463D01*
X190996168Y-82332912D01*
X191059000Y-82017033D01*
X191059000Y-81736431D01*
X191711000Y-81736431D01*
X191711000Y-81975569D01*
X191757653Y-82210111D01*
X191849167Y-82431045D01*
X191982025Y-82629880D01*
X192151120Y-82798975D01*
X192349955Y-82931833D01*
X192570889Y-83023347D01*
X192805431Y-83070000D01*
X193044569Y-83070000D01*
X193279111Y-83023347D01*
X193500045Y-82931833D01*
X193698880Y-82798975D01*
X193867975Y-82629880D01*
X194000833Y-82431045D01*
X194092347Y-82210111D01*
X194139000Y-81975569D01*
X194139000Y-81736431D01*
X199649000Y-81736431D01*
X199649000Y-81975569D01*
X199695653Y-82210111D01*
X199787167Y-82431045D01*
X199920025Y-82629880D01*
X200089120Y-82798975D01*
X200287955Y-82931833D01*
X200508889Y-83023347D01*
X200743431Y-83070000D01*
X200982569Y-83070000D01*
X201217111Y-83023347D01*
X201438045Y-82931833D01*
X201636880Y-82798975D01*
X201805975Y-82629880D01*
X201938833Y-82431045D01*
X202003482Y-82274967D01*
X202729000Y-82274967D01*
X202729000Y-82597033D01*
X202791832Y-82912912D01*
X202915082Y-83210463D01*
X203094013Y-83478252D01*
X203321748Y-83705987D01*
X203589537Y-83884918D01*
X203887088Y-84008168D01*
X204202967Y-84071000D01*
X204525033Y-84071000D01*
X204840912Y-84008168D01*
X205138463Y-83884918D01*
X205406252Y-83705987D01*
X205633987Y-83478252D01*
X205812918Y-83210463D01*
X205936168Y-82912912D01*
X205999000Y-82597033D01*
X205999000Y-82274967D01*
X209229000Y-82274967D01*
X209229000Y-82597033D01*
X209291832Y-82912912D01*
X209415082Y-83210463D01*
X209594013Y-83478252D01*
X209821748Y-83705987D01*
X210089537Y-83884918D01*
X210387088Y-84008168D01*
X210702967Y-84071000D01*
X211025033Y-84071000D01*
X211340912Y-84008168D01*
X211638463Y-83884918D01*
X211906252Y-83705987D01*
X212133987Y-83478252D01*
X212312918Y-83210463D01*
X212436168Y-82912912D01*
X212499000Y-82597033D01*
X212499000Y-82274967D01*
X212436168Y-81959088D01*
X212430177Y-81944625D01*
X212899008Y-81475795D01*
X212928001Y-81452001D01*
X212951795Y-81423008D01*
X212951799Y-81423004D01*
X213022973Y-81336277D01*
X213022974Y-81336276D01*
X213093546Y-81204247D01*
X213137003Y-81060986D01*
X213148000Y-80949333D01*
X213148000Y-80949324D01*
X213151676Y-80912001D01*
X213148000Y-80874678D01*
X213148000Y-77994043D01*
X213302759Y-77890637D01*
X213502637Y-77690759D01*
X213659680Y-77455727D01*
X213767853Y-77194574D01*
X213823000Y-76917335D01*
X213823000Y-76634665D01*
X213767853Y-76357426D01*
X213659680Y-76096273D01*
X213502637Y-75861241D01*
X213302759Y-75661363D01*
X213067727Y-75504320D01*
X212806574Y-75396147D01*
X212529335Y-75341000D01*
X212246665Y-75341000D01*
X211969426Y-75396147D01*
X211708273Y-75504320D01*
X211473241Y-75661363D01*
X211273363Y-75861241D01*
X211116320Y-76096273D01*
X211008147Y-76357426D01*
X210953000Y-76634665D01*
X210953000Y-76917335D01*
X211008147Y-77194574D01*
X211116320Y-77455727D01*
X211273363Y-77690759D01*
X211473241Y-77890637D01*
X211628000Y-77994044D01*
X211628001Y-80597196D01*
X211355375Y-80869823D01*
X211340912Y-80863832D01*
X211025033Y-80801000D01*
X210702967Y-80801000D01*
X210387088Y-80863832D01*
X210089537Y-80987082D01*
X209821748Y-81166013D01*
X209594013Y-81393748D01*
X209415082Y-81661537D01*
X209291832Y-81959088D01*
X209229000Y-82274967D01*
X205999000Y-82274967D01*
X205936168Y-81959088D01*
X205812918Y-81661537D01*
X205633987Y-81393748D01*
X205406252Y-81166013D01*
X205138463Y-80987082D01*
X204840912Y-80863832D01*
X204525033Y-80801000D01*
X204202967Y-80801000D01*
X203887088Y-80863832D01*
X203589537Y-80987082D01*
X203321748Y-81166013D01*
X203094013Y-81393748D01*
X202915082Y-81661537D01*
X202791832Y-81959088D01*
X202729000Y-82274967D01*
X202003482Y-82274967D01*
X202030347Y-82210111D01*
X202077000Y-81975569D01*
X202077000Y-81736431D01*
X202030347Y-81501889D01*
X201938833Y-81280955D01*
X201805975Y-81082120D01*
X201636880Y-80913025D01*
X201438045Y-80780167D01*
X201217111Y-80688653D01*
X200982569Y-80642000D01*
X200743431Y-80642000D01*
X200508889Y-80688653D01*
X200287955Y-80780167D01*
X200089120Y-80913025D01*
X199920025Y-81082120D01*
X199787167Y-81280955D01*
X199695653Y-81501889D01*
X199649000Y-81736431D01*
X194139000Y-81736431D01*
X194092347Y-81501889D01*
X194000833Y-81280955D01*
X193867975Y-81082120D01*
X193698880Y-80913025D01*
X193500045Y-80780167D01*
X193279111Y-80688653D01*
X193044569Y-80642000D01*
X192805431Y-80642000D01*
X192570889Y-80688653D01*
X192349955Y-80780167D01*
X192151120Y-80913025D01*
X191982025Y-81082120D01*
X191849167Y-81280955D01*
X191757653Y-81501889D01*
X191711000Y-81736431D01*
X191059000Y-81736431D01*
X191059000Y-81694967D01*
X190996168Y-81379088D01*
X190872918Y-81081537D01*
X190693987Y-80813748D01*
X190466252Y-80586013D01*
X190198463Y-80407082D01*
X189900912Y-80283832D01*
X189585033Y-80221000D01*
X189262967Y-80221000D01*
X188947088Y-80283832D01*
X188649537Y-80407082D01*
X188381748Y-80586013D01*
X188154013Y-80813748D01*
X187975082Y-81081537D01*
X187851832Y-81379088D01*
X187789000Y-81694967D01*
X184559000Y-81694967D01*
X184496168Y-81379088D01*
X184372918Y-81081537D01*
X184193987Y-80813748D01*
X183966252Y-80586013D01*
X183698463Y-80407082D01*
X183400912Y-80283832D01*
X183085033Y-80221000D01*
X182762967Y-80221000D01*
X182447088Y-80283832D01*
X182149537Y-80407082D01*
X181881748Y-80586013D01*
X181654013Y-80813748D01*
X181475082Y-81081537D01*
X181351832Y-81379088D01*
X181289000Y-81694967D01*
X170660000Y-81694967D01*
X170660000Y-79665040D01*
X176452091Y-79665040D01*
X176546930Y-79929881D01*
X176691615Y-80171131D01*
X176880586Y-80379519D01*
X177106580Y-80547037D01*
X177360913Y-80667246D01*
X177494961Y-80707904D01*
X177717000Y-80585915D01*
X177717000Y-79443000D01*
X177971000Y-79443000D01*
X177971000Y-80585915D01*
X178193039Y-80707904D01*
X178327087Y-80667246D01*
X178581420Y-80547037D01*
X178807414Y-80379519D01*
X178996385Y-80171131D01*
X179008615Y-80150737D01*
X192269868Y-80150737D01*
X192314618Y-80372185D01*
X192532397Y-80470970D01*
X192765265Y-80525370D01*
X193004270Y-80533295D01*
X193240230Y-80494440D01*
X193464075Y-80410298D01*
X193535382Y-80372185D01*
X193580132Y-80150737D01*
X192925000Y-79495605D01*
X192269868Y-80150737D01*
X179008615Y-80150737D01*
X179141070Y-79929881D01*
X179235909Y-79665040D01*
X179114624Y-79443000D01*
X177971000Y-79443000D01*
X177717000Y-79443000D01*
X176573376Y-79443000D01*
X176452091Y-79665040D01*
X170660000Y-79665040D01*
X170660000Y-79395270D01*
X191707705Y-79395270D01*
X191746560Y-79631230D01*
X191830702Y-79855075D01*
X191868815Y-79926382D01*
X192090263Y-79971132D01*
X192745395Y-79316000D01*
X193104605Y-79316000D01*
X193759737Y-79971132D01*
X193981185Y-79926382D01*
X194079970Y-79708603D01*
X194134370Y-79475735D01*
X194142295Y-79236730D01*
X194135660Y-79196431D01*
X199649000Y-79196431D01*
X199649000Y-79435569D01*
X199695653Y-79670111D01*
X199787167Y-79891045D01*
X199920025Y-80089880D01*
X200089120Y-80258975D01*
X200287955Y-80391833D01*
X200508889Y-80483347D01*
X200743431Y-80530000D01*
X200982569Y-80530000D01*
X201217111Y-80483347D01*
X201438045Y-80391833D01*
X201636880Y-80258975D01*
X201805975Y-80089880D01*
X201938833Y-79891045D01*
X202030347Y-79670111D01*
X202077000Y-79435569D01*
X202077000Y-79196431D01*
X202030347Y-78961889D01*
X201938833Y-78740955D01*
X201805975Y-78542120D01*
X201636880Y-78373025D01*
X201602068Y-78349764D01*
X206329841Y-78349764D01*
X206377148Y-78573348D01*
X206598516Y-78674237D01*
X206835313Y-78730000D01*
X207078438Y-78738495D01*
X207318549Y-78699395D01*
X207546418Y-78614202D01*
X207622852Y-78573348D01*
X207670159Y-78349764D01*
X207000000Y-77679605D01*
X206329841Y-78349764D01*
X201602068Y-78349764D01*
X201438045Y-78240167D01*
X201217111Y-78148653D01*
X200982569Y-78102000D01*
X200743431Y-78102000D01*
X200508889Y-78148653D01*
X200287955Y-78240167D01*
X200089120Y-78373025D01*
X199920025Y-78542120D01*
X199787167Y-78740955D01*
X199695653Y-78961889D01*
X199649000Y-79196431D01*
X194135660Y-79196431D01*
X194103440Y-79000770D01*
X194019298Y-78776925D01*
X193981185Y-78705618D01*
X193759737Y-78660868D01*
X193104605Y-79316000D01*
X192745395Y-79316000D01*
X192090263Y-78660868D01*
X191868815Y-78705618D01*
X191770030Y-78923397D01*
X191715630Y-79156265D01*
X191707705Y-79395270D01*
X170660000Y-79395270D01*
X170660000Y-78966960D01*
X176452091Y-78966960D01*
X176573376Y-79189000D01*
X177717000Y-79189000D01*
X177717000Y-78046085D01*
X177971000Y-78046085D01*
X177971000Y-79189000D01*
X179114624Y-79189000D01*
X179235909Y-78966960D01*
X179141070Y-78702119D01*
X178996385Y-78460869D01*
X178807414Y-78252481D01*
X178581420Y-78084963D01*
X178327087Y-77964754D01*
X178193039Y-77924096D01*
X177971000Y-78046085D01*
X177717000Y-78046085D01*
X177494961Y-77924096D01*
X177360913Y-77964754D01*
X177106580Y-78084963D01*
X176880586Y-78252481D01*
X176691615Y-78460869D01*
X176546930Y-78702119D01*
X176452091Y-78966960D01*
X170660000Y-78966960D01*
X170660000Y-75264967D01*
X176209000Y-75264967D01*
X176209000Y-75587033D01*
X176271832Y-75902912D01*
X176395082Y-76200463D01*
X176574013Y-76468252D01*
X176801748Y-76695987D01*
X177069537Y-76874918D01*
X177367088Y-76998168D01*
X177682967Y-77061000D01*
X178005033Y-77061000D01*
X178320912Y-76998168D01*
X178618463Y-76874918D01*
X178886252Y-76695987D01*
X179003801Y-76578438D01*
X185761505Y-76578438D01*
X185800605Y-76818549D01*
X185880451Y-77032117D01*
X185869463Y-77045506D01*
X185810498Y-77155820D01*
X185774188Y-77275518D01*
X185761928Y-77400000D01*
X185761928Y-78600000D01*
X185774188Y-78724482D01*
X185810498Y-78844180D01*
X185869463Y-78954494D01*
X185948815Y-79051185D01*
X186045506Y-79130537D01*
X186155820Y-79189502D01*
X186275518Y-79225812D01*
X186400000Y-79238072D01*
X187600000Y-79238072D01*
X187724482Y-79225812D01*
X187844180Y-79189502D01*
X187954494Y-79130537D01*
X188051185Y-79051185D01*
X188130537Y-78954494D01*
X188189502Y-78844180D01*
X188225812Y-78724482D01*
X188238072Y-78600000D01*
X188238072Y-78481263D01*
X192269868Y-78481263D01*
X192925000Y-79136395D01*
X193580132Y-78481263D01*
X193535382Y-78259815D01*
X193317603Y-78161030D01*
X193084735Y-78106630D01*
X192845730Y-78098705D01*
X192609770Y-78137560D01*
X192385925Y-78221702D01*
X192314618Y-78259815D01*
X192269868Y-78481263D01*
X188238072Y-78481263D01*
X188238072Y-77400000D01*
X188225812Y-77275518D01*
X188189502Y-77155820D01*
X188130537Y-77045506D01*
X188116432Y-77028319D01*
X188174237Y-76901484D01*
X188230000Y-76664687D01*
X188230288Y-76656431D01*
X191711000Y-76656431D01*
X191711000Y-76895569D01*
X191757653Y-77130111D01*
X191849167Y-77351045D01*
X191982025Y-77549880D01*
X192151120Y-77718975D01*
X192349955Y-77851833D01*
X192570889Y-77943347D01*
X192805431Y-77990000D01*
X193044569Y-77990000D01*
X193279111Y-77943347D01*
X193500045Y-77851833D01*
X193698880Y-77718975D01*
X193807118Y-77610737D01*
X200207868Y-77610737D01*
X200252618Y-77832185D01*
X200470397Y-77930970D01*
X200703265Y-77985370D01*
X200942270Y-77993295D01*
X201178230Y-77954440D01*
X201402075Y-77870298D01*
X201473382Y-77832185D01*
X201518132Y-77610737D01*
X201485833Y-77578438D01*
X205761505Y-77578438D01*
X205800605Y-77818549D01*
X205885798Y-78046418D01*
X205926652Y-78122852D01*
X206150236Y-78170159D01*
X206820395Y-77500000D01*
X206806253Y-77485858D01*
X206985858Y-77306253D01*
X207000000Y-77320395D01*
X207014143Y-77306253D01*
X207193748Y-77485858D01*
X207179605Y-77500000D01*
X207849764Y-78170159D01*
X208073348Y-78122852D01*
X208174237Y-77901484D01*
X208230000Y-77664687D01*
X208238495Y-77421562D01*
X208199395Y-77181451D01*
X208119549Y-76967883D01*
X208130537Y-76954494D01*
X208189502Y-76844180D01*
X208225812Y-76724482D01*
X208238072Y-76600000D01*
X208238072Y-75400000D01*
X208225812Y-75275518D01*
X208189502Y-75155820D01*
X208130537Y-75045506D01*
X208051185Y-74948815D01*
X207954494Y-74869463D01*
X207844180Y-74810498D01*
X207724482Y-74774188D01*
X207600000Y-74761928D01*
X206400000Y-74761928D01*
X206275518Y-74774188D01*
X206155820Y-74810498D01*
X206045506Y-74869463D01*
X205948815Y-74948815D01*
X205869463Y-75045506D01*
X205810498Y-75155820D01*
X205774188Y-75275518D01*
X205761928Y-75400000D01*
X205761928Y-76600000D01*
X205774188Y-76724482D01*
X205810498Y-76844180D01*
X205869463Y-76954494D01*
X205883568Y-76971681D01*
X205825763Y-77098516D01*
X205770000Y-77335313D01*
X205761505Y-77578438D01*
X201485833Y-77578438D01*
X200863000Y-76955605D01*
X200207868Y-77610737D01*
X193807118Y-77610737D01*
X193867975Y-77549880D01*
X194000833Y-77351045D01*
X194092347Y-77130111D01*
X194139000Y-76895569D01*
X194139000Y-76855270D01*
X199645705Y-76855270D01*
X199684560Y-77091230D01*
X199768702Y-77315075D01*
X199806815Y-77386382D01*
X200028263Y-77431132D01*
X200683395Y-76776000D01*
X201042605Y-76776000D01*
X201697737Y-77431132D01*
X201919185Y-77386382D01*
X202017970Y-77168603D01*
X202072370Y-76935735D01*
X202080295Y-76696730D01*
X202041440Y-76460770D01*
X201957298Y-76236925D01*
X201919185Y-76165618D01*
X201697737Y-76120868D01*
X201042605Y-76776000D01*
X200683395Y-76776000D01*
X200028263Y-76120868D01*
X199806815Y-76165618D01*
X199708030Y-76383397D01*
X199653630Y-76616265D01*
X199645705Y-76855270D01*
X194139000Y-76855270D01*
X194139000Y-76656431D01*
X194092347Y-76421889D01*
X194000833Y-76200955D01*
X193867975Y-76002120D01*
X193807118Y-75941263D01*
X200207868Y-75941263D01*
X200863000Y-76596395D01*
X201518132Y-75941263D01*
X201473382Y-75719815D01*
X201255603Y-75621030D01*
X201022735Y-75566630D01*
X200783730Y-75558705D01*
X200547770Y-75597560D01*
X200323925Y-75681702D01*
X200252618Y-75719815D01*
X200207868Y-75941263D01*
X193807118Y-75941263D01*
X193698880Y-75833025D01*
X193500045Y-75700167D01*
X193279111Y-75608653D01*
X193044569Y-75562000D01*
X192805431Y-75562000D01*
X192570889Y-75608653D01*
X192349955Y-75700167D01*
X192151120Y-75833025D01*
X191982025Y-76002120D01*
X191849167Y-76200955D01*
X191757653Y-76421889D01*
X191711000Y-76656431D01*
X188230288Y-76656431D01*
X188238495Y-76421562D01*
X188199395Y-76181451D01*
X188114202Y-75953582D01*
X188073348Y-75877148D01*
X187849764Y-75829841D01*
X187179605Y-76500000D01*
X187193748Y-76514143D01*
X187014143Y-76693748D01*
X187000000Y-76679605D01*
X186985858Y-76693748D01*
X186806253Y-76514143D01*
X186820395Y-76500000D01*
X186150236Y-75829841D01*
X185926652Y-75877148D01*
X185825763Y-76098516D01*
X185770000Y-76335313D01*
X185761505Y-76578438D01*
X179003801Y-76578438D01*
X179113987Y-76468252D01*
X179292918Y-76200463D01*
X179416168Y-75902912D01*
X179466428Y-75650236D01*
X186329841Y-75650236D01*
X187000000Y-76320395D01*
X187670159Y-75650236D01*
X187622852Y-75426652D01*
X187401484Y-75325763D01*
X187164687Y-75270000D01*
X186921562Y-75261505D01*
X186681451Y-75300605D01*
X186453582Y-75385798D01*
X186377148Y-75426652D01*
X186329841Y-75650236D01*
X179466428Y-75650236D01*
X179479000Y-75587033D01*
X179479000Y-75264967D01*
X179416168Y-74949088D01*
X179292918Y-74651537D01*
X179113987Y-74383748D01*
X178886252Y-74156013D01*
X178827014Y-74116431D01*
X191711000Y-74116431D01*
X191711000Y-74355569D01*
X191757653Y-74590111D01*
X191849167Y-74811045D01*
X191982025Y-75009880D01*
X192151120Y-75178975D01*
X192349955Y-75311833D01*
X192570889Y-75403347D01*
X192805431Y-75450000D01*
X193044569Y-75450000D01*
X193279111Y-75403347D01*
X193500045Y-75311833D01*
X193698880Y-75178975D01*
X193867975Y-75009880D01*
X194000833Y-74811045D01*
X194092347Y-74590111D01*
X194139000Y-74355569D01*
X194139000Y-74116431D01*
X199649000Y-74116431D01*
X199649000Y-74355569D01*
X199695653Y-74590111D01*
X199787167Y-74811045D01*
X199920025Y-75009880D01*
X200089120Y-75178975D01*
X200287955Y-75311833D01*
X200508889Y-75403347D01*
X200743431Y-75450000D01*
X200982569Y-75450000D01*
X201217111Y-75403347D01*
X201438045Y-75311833D01*
X201636880Y-75178975D01*
X201805975Y-75009880D01*
X201938833Y-74811045D01*
X202030347Y-74590111D01*
X202077000Y-74355569D01*
X202077000Y-74116431D01*
X202030347Y-73881889D01*
X201938833Y-73660955D01*
X201805975Y-73462120D01*
X201636880Y-73293025D01*
X201438045Y-73160167D01*
X201217111Y-73068653D01*
X200982569Y-73022000D01*
X200743431Y-73022000D01*
X200508889Y-73068653D01*
X200287955Y-73160167D01*
X200089120Y-73293025D01*
X199920025Y-73462120D01*
X199787167Y-73660955D01*
X199695653Y-73881889D01*
X199649000Y-74116431D01*
X194139000Y-74116431D01*
X194092347Y-73881889D01*
X194000833Y-73660955D01*
X193867975Y-73462120D01*
X193698880Y-73293025D01*
X193500045Y-73160167D01*
X193279111Y-73068653D01*
X193044569Y-73022000D01*
X192805431Y-73022000D01*
X192570889Y-73068653D01*
X192349955Y-73160167D01*
X192151120Y-73293025D01*
X191982025Y-73462120D01*
X191849167Y-73660955D01*
X191757653Y-73881889D01*
X191711000Y-74116431D01*
X178827014Y-74116431D01*
X178618463Y-73977082D01*
X178320912Y-73853832D01*
X178005033Y-73791000D01*
X177682967Y-73791000D01*
X177367088Y-73853832D01*
X177069537Y-73977082D01*
X176801748Y-74156013D01*
X176574013Y-74383748D01*
X176395082Y-74651537D01*
X176271832Y-74949088D01*
X176209000Y-75264967D01*
X170660000Y-75264967D01*
X170660000Y-72530737D01*
X192269868Y-72530737D01*
X192314618Y-72752185D01*
X192532397Y-72850970D01*
X192765265Y-72905370D01*
X193004270Y-72913295D01*
X193240230Y-72874440D01*
X193464075Y-72790298D01*
X193535382Y-72752185D01*
X193580132Y-72530737D01*
X192925000Y-71875605D01*
X192269868Y-72530737D01*
X170660000Y-72530737D01*
X170660000Y-70264967D01*
X176209000Y-70264967D01*
X176209000Y-70587033D01*
X176271832Y-70902912D01*
X176395082Y-71200463D01*
X176574013Y-71468252D01*
X176801748Y-71695987D01*
X177069537Y-71874918D01*
X177367088Y-71998168D01*
X177682967Y-72061000D01*
X178005033Y-72061000D01*
X178320912Y-71998168D01*
X178618463Y-71874918D01*
X178886252Y-71695987D01*
X179113987Y-71468252D01*
X179292918Y-71200463D01*
X179416168Y-70902912D01*
X179479000Y-70587033D01*
X179479000Y-70264967D01*
X182559000Y-70264967D01*
X182559000Y-70587033D01*
X182621832Y-70902912D01*
X182745082Y-71200463D01*
X182924013Y-71468252D01*
X183151748Y-71695987D01*
X183419537Y-71874918D01*
X183717088Y-71998168D01*
X184032967Y-72061000D01*
X184355033Y-72061000D01*
X184670912Y-71998168D01*
X184968463Y-71874918D01*
X185236252Y-71695987D01*
X185370826Y-71561413D01*
X188238192Y-71561413D01*
X188333956Y-71825814D01*
X188623571Y-71966704D01*
X188935108Y-72048384D01*
X189256595Y-72067718D01*
X189575675Y-72023961D01*
X189880088Y-71918795D01*
X190054044Y-71825814D01*
X190072350Y-71775270D01*
X191707705Y-71775270D01*
X191746560Y-72011230D01*
X191830702Y-72235075D01*
X191868815Y-72306382D01*
X192090263Y-72351132D01*
X192745395Y-71696000D01*
X193104605Y-71696000D01*
X193759737Y-72351132D01*
X193981185Y-72306382D01*
X194079970Y-72088603D01*
X194134370Y-71855735D01*
X194142295Y-71616730D01*
X194135660Y-71576431D01*
X199649000Y-71576431D01*
X199649000Y-71815569D01*
X199695653Y-72050111D01*
X199787167Y-72271045D01*
X199920025Y-72469880D01*
X200089120Y-72638975D01*
X200287955Y-72771833D01*
X200508889Y-72863347D01*
X200743431Y-72910000D01*
X200982569Y-72910000D01*
X201217111Y-72863347D01*
X201438045Y-72771833D01*
X201636880Y-72638975D01*
X201805975Y-72469880D01*
X201938833Y-72271045D01*
X202030347Y-72050111D01*
X202077000Y-71815569D01*
X202077000Y-71576431D01*
X202030347Y-71341889D01*
X201938833Y-71120955D01*
X201805975Y-70922120D01*
X201636880Y-70753025D01*
X201438045Y-70620167D01*
X201217111Y-70528653D01*
X200982569Y-70482000D01*
X200743431Y-70482000D01*
X200508889Y-70528653D01*
X200287955Y-70620167D01*
X200089120Y-70753025D01*
X199920025Y-70922120D01*
X199787167Y-71120955D01*
X199695653Y-71341889D01*
X199649000Y-71576431D01*
X194135660Y-71576431D01*
X194103440Y-71380770D01*
X194019298Y-71156925D01*
X193981185Y-71085618D01*
X193759737Y-71040868D01*
X193104605Y-71696000D01*
X192745395Y-71696000D01*
X192090263Y-71040868D01*
X191868815Y-71085618D01*
X191770030Y-71303397D01*
X191715630Y-71536265D01*
X191707705Y-71775270D01*
X190072350Y-71775270D01*
X190149808Y-71561413D01*
X189194000Y-70605605D01*
X188238192Y-71561413D01*
X185370826Y-71561413D01*
X185463987Y-71468252D01*
X185642918Y-71200463D01*
X185766168Y-70902912D01*
X185829000Y-70587033D01*
X185829000Y-70488595D01*
X187552282Y-70488595D01*
X187596039Y-70807675D01*
X187701205Y-71112088D01*
X187794186Y-71286044D01*
X188058587Y-71381808D01*
X189014395Y-70426000D01*
X189373605Y-70426000D01*
X190329413Y-71381808D01*
X190593814Y-71286044D01*
X190734704Y-70996429D01*
X190770142Y-70861263D01*
X192269868Y-70861263D01*
X192925000Y-71516395D01*
X193580132Y-70861263D01*
X193535382Y-70639815D01*
X193317603Y-70541030D01*
X193084735Y-70486630D01*
X192845730Y-70478705D01*
X192609770Y-70517560D01*
X192385925Y-70601702D01*
X192314618Y-70639815D01*
X192269868Y-70861263D01*
X190770142Y-70861263D01*
X190816384Y-70684892D01*
X190835718Y-70363405D01*
X190791961Y-70044325D01*
X190686795Y-69739912D01*
X190593814Y-69565956D01*
X190329413Y-69470192D01*
X189373605Y-70426000D01*
X189014395Y-70426000D01*
X188058587Y-69470192D01*
X187794186Y-69565956D01*
X187653296Y-69855571D01*
X187571616Y-70167108D01*
X187552282Y-70488595D01*
X185829000Y-70488595D01*
X185829000Y-70264967D01*
X185766168Y-69949088D01*
X185642918Y-69651537D01*
X185463987Y-69383748D01*
X185370826Y-69290587D01*
X188238192Y-69290587D01*
X189194000Y-70246395D01*
X190149808Y-69290587D01*
X190057755Y-69036431D01*
X191711000Y-69036431D01*
X191711000Y-69275569D01*
X191757653Y-69510111D01*
X191849167Y-69731045D01*
X191982025Y-69929880D01*
X192151120Y-70098975D01*
X192349955Y-70231833D01*
X192570889Y-70323347D01*
X192805431Y-70370000D01*
X193044569Y-70370000D01*
X193279111Y-70323347D01*
X193500045Y-70231833D01*
X193698880Y-70098975D01*
X193867975Y-69929880D01*
X194000833Y-69731045D01*
X194092347Y-69510111D01*
X194139000Y-69275569D01*
X194139000Y-69036431D01*
X199649000Y-69036431D01*
X199649000Y-69275569D01*
X199695653Y-69510111D01*
X199787167Y-69731045D01*
X199920025Y-69929880D01*
X200089120Y-70098975D01*
X200287955Y-70231833D01*
X200508889Y-70323347D01*
X200743431Y-70370000D01*
X200982569Y-70370000D01*
X201217111Y-70323347D01*
X201438045Y-70231833D01*
X201636880Y-70098975D01*
X201805975Y-69929880D01*
X201938833Y-69731045D01*
X202030347Y-69510111D01*
X202031355Y-69505040D01*
X210996091Y-69505040D01*
X211090930Y-69769881D01*
X211235615Y-70011131D01*
X211424586Y-70219519D01*
X211650580Y-70387037D01*
X211904913Y-70507246D01*
X212038961Y-70547904D01*
X212261000Y-70425915D01*
X212261000Y-69283000D01*
X212515000Y-69283000D01*
X212515000Y-70425915D01*
X212737039Y-70547904D01*
X212871087Y-70507246D01*
X213125420Y-70387037D01*
X213351414Y-70219519D01*
X213540385Y-70011131D01*
X213685070Y-69769881D01*
X213779909Y-69505040D01*
X213658624Y-69283000D01*
X212515000Y-69283000D01*
X212261000Y-69283000D01*
X211117376Y-69283000D01*
X210996091Y-69505040D01*
X202031355Y-69505040D01*
X202077000Y-69275569D01*
X202077000Y-69036431D01*
X202031356Y-68806960D01*
X210996091Y-68806960D01*
X211117376Y-69029000D01*
X212261000Y-69029000D01*
X212261000Y-67886085D01*
X212515000Y-67886085D01*
X212515000Y-69029000D01*
X213658624Y-69029000D01*
X213779909Y-68806960D01*
X213685070Y-68542119D01*
X213540385Y-68300869D01*
X213351414Y-68092481D01*
X213125420Y-67924963D01*
X212871087Y-67804754D01*
X212737039Y-67764096D01*
X212515000Y-67886085D01*
X212261000Y-67886085D01*
X212038961Y-67764096D01*
X211904913Y-67804754D01*
X211650580Y-67924963D01*
X211424586Y-68092481D01*
X211235615Y-68300869D01*
X211090930Y-68542119D01*
X210996091Y-68806960D01*
X202031356Y-68806960D01*
X202030347Y-68801889D01*
X201938833Y-68580955D01*
X201805975Y-68382120D01*
X201636880Y-68213025D01*
X201438045Y-68080167D01*
X201217111Y-67988653D01*
X200982569Y-67942000D01*
X200743431Y-67942000D01*
X200508889Y-67988653D01*
X200287955Y-68080167D01*
X200089120Y-68213025D01*
X199920025Y-68382120D01*
X199787167Y-68580955D01*
X199695653Y-68801889D01*
X199649000Y-69036431D01*
X194139000Y-69036431D01*
X194092347Y-68801889D01*
X194000833Y-68580955D01*
X193867975Y-68382120D01*
X193698880Y-68213025D01*
X193500045Y-68080167D01*
X193279111Y-67988653D01*
X193044569Y-67942000D01*
X192805431Y-67942000D01*
X192570889Y-67988653D01*
X192349955Y-68080167D01*
X192151120Y-68213025D01*
X191982025Y-68382120D01*
X191849167Y-68580955D01*
X191757653Y-68801889D01*
X191711000Y-69036431D01*
X190057755Y-69036431D01*
X190054044Y-69026186D01*
X189764429Y-68885296D01*
X189452892Y-68803616D01*
X189131405Y-68784282D01*
X188812325Y-68828039D01*
X188507912Y-68933205D01*
X188333956Y-69026186D01*
X188238192Y-69290587D01*
X185370826Y-69290587D01*
X185236252Y-69156013D01*
X184968463Y-68977082D01*
X184670912Y-68853832D01*
X184355033Y-68791000D01*
X184032967Y-68791000D01*
X183717088Y-68853832D01*
X183419537Y-68977082D01*
X183151748Y-69156013D01*
X182924013Y-69383748D01*
X182745082Y-69651537D01*
X182621832Y-69949088D01*
X182559000Y-70264967D01*
X179479000Y-70264967D01*
X179416168Y-69949088D01*
X179292918Y-69651537D01*
X179113987Y-69383748D01*
X178886252Y-69156013D01*
X178618463Y-68977082D01*
X178320912Y-68853832D01*
X178005033Y-68791000D01*
X177682967Y-68791000D01*
X177367088Y-68853832D01*
X177069537Y-68977082D01*
X176801748Y-69156013D01*
X176574013Y-69383748D01*
X176395082Y-69651537D01*
X176271832Y-69949088D01*
X176209000Y-70264967D01*
X170660000Y-70264967D01*
X170660000Y-65204665D01*
X176409000Y-65204665D01*
X176409000Y-65487335D01*
X176464147Y-65764574D01*
X176572320Y-66025727D01*
X176729363Y-66260759D01*
X176929241Y-66460637D01*
X177164273Y-66617680D01*
X177425426Y-66725853D01*
X177702665Y-66781000D01*
X177985335Y-66781000D01*
X178262574Y-66725853D01*
X178523727Y-66617680D01*
X178758759Y-66460637D01*
X178958637Y-66260759D01*
X179115680Y-66025727D01*
X179223853Y-65764574D01*
X179237684Y-65695039D01*
X180262096Y-65695039D01*
X180302754Y-65829087D01*
X180422963Y-66083420D01*
X180590481Y-66309414D01*
X180798869Y-66498385D01*
X181040119Y-66643070D01*
X181304960Y-66737909D01*
X181527000Y-66616624D01*
X181527000Y-65473000D01*
X181781000Y-65473000D01*
X181781000Y-66616624D01*
X182003040Y-66737909D01*
X182267881Y-66643070D01*
X182509131Y-66498385D01*
X182717519Y-66309414D01*
X182885037Y-66083420D01*
X183005246Y-65829087D01*
X183045904Y-65695039D01*
X182923915Y-65473000D01*
X181781000Y-65473000D01*
X181527000Y-65473000D01*
X180384085Y-65473000D01*
X180262096Y-65695039D01*
X179237684Y-65695039D01*
X179279000Y-65487335D01*
X179279000Y-65204665D01*
X179223853Y-64927426D01*
X179115680Y-64666273D01*
X178958637Y-64431241D01*
X178758759Y-64231363D01*
X178523727Y-64074320D01*
X178262574Y-63966147D01*
X177985335Y-63911000D01*
X177702665Y-63911000D01*
X177425426Y-63966147D01*
X177164273Y-64074320D01*
X176929241Y-64231363D01*
X176729363Y-64431241D01*
X176572320Y-64666273D01*
X176464147Y-64927426D01*
X176409000Y-65204665D01*
X170660000Y-65204665D01*
X170660000Y-60398061D01*
X170965000Y-60398061D01*
X170965000Y-60601939D01*
X171004774Y-60801898D01*
X171082795Y-60990256D01*
X171196063Y-61159774D01*
X171340226Y-61303937D01*
X171509744Y-61417205D01*
X171698102Y-61495226D01*
X171898061Y-61535000D01*
X171960198Y-61535000D01*
X172235797Y-61810599D01*
X172167969Y-61893248D01*
X172016148Y-62177285D01*
X171922657Y-62485484D01*
X171891089Y-62806000D01*
X171922657Y-63126516D01*
X172016148Y-63434715D01*
X172167969Y-63718752D01*
X172372286Y-63967714D01*
X172621248Y-64172031D01*
X172905285Y-64323852D01*
X173213484Y-64417343D01*
X173453678Y-64441000D01*
X174614322Y-64441000D01*
X174854516Y-64417343D01*
X175162715Y-64323852D01*
X175446752Y-64172031D01*
X175695714Y-63967714D01*
X175900031Y-63718752D01*
X176051852Y-63434715D01*
X176145343Y-63126516D01*
X176176911Y-62806000D01*
X176145343Y-62485484D01*
X176051852Y-62177285D01*
X175900031Y-61893248D01*
X175695714Y-61644286D01*
X175446752Y-61439969D01*
X175162715Y-61288148D01*
X174854516Y-61194657D01*
X174614322Y-61171000D01*
X173745802Y-61171000D01*
X173035000Y-60460198D01*
X173035000Y-60398061D01*
X172995226Y-60198102D01*
X172917205Y-60009744D01*
X172803937Y-59840226D01*
X172659774Y-59696063D01*
X172490256Y-59582795D01*
X172301898Y-59504774D01*
X172101939Y-59465000D01*
X171898061Y-59465000D01*
X171698102Y-59504774D01*
X171509744Y-59582795D01*
X171340226Y-59696063D01*
X171196063Y-59840226D01*
X171082795Y-60009744D01*
X171004774Y-60198102D01*
X170965000Y-60398061D01*
X170660000Y-60398061D01*
X170660000Y-57584665D01*
X176409000Y-57584665D01*
X176409000Y-57867335D01*
X176464147Y-58144574D01*
X176572320Y-58405727D01*
X176729363Y-58640759D01*
X176929241Y-58840637D01*
X177164273Y-58997680D01*
X177425426Y-59105853D01*
X177702665Y-59161000D01*
X177985335Y-59161000D01*
X178262574Y-59105853D01*
X178523727Y-58997680D01*
X178758759Y-58840637D01*
X178958637Y-58640759D01*
X179098955Y-58430758D01*
X180030199Y-59362003D01*
X180053998Y-59391002D01*
X180082996Y-59414800D01*
X180169723Y-59485975D01*
X180301752Y-59556547D01*
X180385257Y-59581878D01*
X180382320Y-59586273D01*
X180274147Y-59847426D01*
X180219000Y-60124665D01*
X180219000Y-60407335D01*
X180274147Y-60684574D01*
X180382320Y-60945727D01*
X180539363Y-61180759D01*
X180739241Y-61380637D01*
X180971759Y-61536000D01*
X180739241Y-61691363D01*
X180539363Y-61891241D01*
X180382320Y-62126273D01*
X180274147Y-62387426D01*
X180219000Y-62664665D01*
X180219000Y-62947335D01*
X180274147Y-63224574D01*
X180382320Y-63485727D01*
X180539363Y-63720759D01*
X180739241Y-63920637D01*
X180974273Y-64077680D01*
X180984865Y-64082067D01*
X180798869Y-64193615D01*
X180590481Y-64382586D01*
X180422963Y-64608580D01*
X180302754Y-64862913D01*
X180262096Y-64996961D01*
X180384085Y-65219000D01*
X181527000Y-65219000D01*
X181527000Y-65199000D01*
X181781000Y-65199000D01*
X181781000Y-65219000D01*
X182923915Y-65219000D01*
X183045904Y-64996961D01*
X183005246Y-64862913D01*
X182885037Y-64608580D01*
X182717519Y-64382586D01*
X182509131Y-64193615D01*
X182323135Y-64082067D01*
X182333727Y-64077680D01*
X182568759Y-63920637D01*
X182768637Y-63720759D01*
X182925680Y-63485727D01*
X183033853Y-63224574D01*
X183089000Y-62947335D01*
X183089000Y-62664665D01*
X183033853Y-62387426D01*
X182925680Y-62126273D01*
X182768637Y-61891241D01*
X182568759Y-61691363D01*
X182336241Y-61536000D01*
X182568759Y-61380637D01*
X182768637Y-61180759D01*
X182925680Y-60945727D01*
X183033853Y-60684574D01*
X183089000Y-60407335D01*
X183089000Y-60124665D01*
X183033853Y-59847426D01*
X182935923Y-59611001D01*
X187544200Y-59611001D01*
X187875312Y-59942114D01*
X187839000Y-60124665D01*
X187839000Y-60407335D01*
X187894147Y-60684574D01*
X188002320Y-60945727D01*
X188159363Y-61180759D01*
X188359241Y-61380637D01*
X188591759Y-61536000D01*
X188359241Y-61691363D01*
X188159363Y-61891241D01*
X188002320Y-62126273D01*
X187894147Y-62387426D01*
X187839000Y-62664665D01*
X187839000Y-62947335D01*
X187894147Y-63224574D01*
X188002320Y-63485727D01*
X188159363Y-63720759D01*
X188359241Y-63920637D01*
X188591759Y-64076000D01*
X188359241Y-64231363D01*
X188159363Y-64431241D01*
X188002320Y-64666273D01*
X187894147Y-64927426D01*
X187839000Y-65204665D01*
X187839000Y-65487335D01*
X187894147Y-65764574D01*
X188002320Y-66025727D01*
X188159363Y-66260759D01*
X188359241Y-66460637D01*
X188594273Y-66617680D01*
X188855426Y-66725853D01*
X189132665Y-66781000D01*
X189415335Y-66781000D01*
X189692574Y-66725853D01*
X189953727Y-66617680D01*
X190135189Y-66496431D01*
X191711000Y-66496431D01*
X191711000Y-66735569D01*
X191757653Y-66970111D01*
X191849167Y-67191045D01*
X191982025Y-67389880D01*
X192151120Y-67558975D01*
X192349955Y-67691833D01*
X192570889Y-67783347D01*
X192805431Y-67830000D01*
X193044569Y-67830000D01*
X193279111Y-67783347D01*
X193500045Y-67691833D01*
X193698880Y-67558975D01*
X193867975Y-67389880D01*
X194000833Y-67191045D01*
X194092347Y-66970111D01*
X194139000Y-66735569D01*
X194139000Y-66496431D01*
X194092347Y-66261889D01*
X194000833Y-66040955D01*
X193867975Y-65842120D01*
X193698880Y-65673025D01*
X193500045Y-65540167D01*
X193279111Y-65448653D01*
X193044569Y-65402000D01*
X192805431Y-65402000D01*
X192570889Y-65448653D01*
X192349955Y-65540167D01*
X192151120Y-65673025D01*
X191982025Y-65842120D01*
X191849167Y-66040955D01*
X191757653Y-66261889D01*
X191711000Y-66496431D01*
X190135189Y-66496431D01*
X190188759Y-66460637D01*
X190388637Y-66260759D01*
X190545680Y-66025727D01*
X190653853Y-65764574D01*
X190709000Y-65487335D01*
X190709000Y-65204665D01*
X190653853Y-64927426D01*
X190545680Y-64666273D01*
X190388637Y-64431241D01*
X190188759Y-64231363D01*
X189956241Y-64076000D01*
X190135189Y-63956431D01*
X191711000Y-63956431D01*
X191711000Y-64195569D01*
X191757653Y-64430111D01*
X191849167Y-64651045D01*
X191982025Y-64849880D01*
X192151120Y-65018975D01*
X192349955Y-65151833D01*
X192570889Y-65243347D01*
X192805431Y-65290000D01*
X193044569Y-65290000D01*
X193279111Y-65243347D01*
X193500045Y-65151833D01*
X193698880Y-65018975D01*
X193867975Y-64849880D01*
X194000833Y-64651045D01*
X194092347Y-64430111D01*
X194139000Y-64195569D01*
X194139000Y-63956431D01*
X199649000Y-63956431D01*
X199649000Y-64195569D01*
X199695653Y-64430111D01*
X199787167Y-64651045D01*
X199920025Y-64849880D01*
X200089120Y-65018975D01*
X200287955Y-65151833D01*
X200508889Y-65243347D01*
X200743431Y-65290000D01*
X200982569Y-65290000D01*
X201217111Y-65243347D01*
X201438045Y-65151833D01*
X201636880Y-65018975D01*
X201805975Y-64849880D01*
X201938833Y-64651045D01*
X202030347Y-64430111D01*
X202077000Y-64195569D01*
X202077000Y-63956431D01*
X202030347Y-63721889D01*
X201938833Y-63500955D01*
X201805975Y-63302120D01*
X201636880Y-63133025D01*
X201438045Y-63000167D01*
X201217111Y-62908653D01*
X200982569Y-62862000D01*
X200743431Y-62862000D01*
X200508889Y-62908653D01*
X200287955Y-63000167D01*
X200089120Y-63133025D01*
X199920025Y-63302120D01*
X199787167Y-63500955D01*
X199695653Y-63721889D01*
X199649000Y-63956431D01*
X194139000Y-63956431D01*
X194092347Y-63721889D01*
X194000833Y-63500955D01*
X193867975Y-63302120D01*
X193698880Y-63133025D01*
X193500045Y-63000167D01*
X193279111Y-62908653D01*
X193044569Y-62862000D01*
X192805431Y-62862000D01*
X192570889Y-62908653D01*
X192349955Y-63000167D01*
X192151120Y-63133025D01*
X191982025Y-63302120D01*
X191849167Y-63500955D01*
X191757653Y-63721889D01*
X191711000Y-63956431D01*
X190135189Y-63956431D01*
X190188759Y-63920637D01*
X190388637Y-63720759D01*
X190545680Y-63485727D01*
X190653853Y-63224574D01*
X190709000Y-62947335D01*
X190709000Y-62664665D01*
X190653853Y-62387426D01*
X190545680Y-62126273D01*
X190388637Y-61891241D01*
X190188759Y-61691363D01*
X189956241Y-61536000D01*
X190135189Y-61416431D01*
X191711000Y-61416431D01*
X191711000Y-61655569D01*
X191757653Y-61890111D01*
X191849167Y-62111045D01*
X191982025Y-62309880D01*
X192151120Y-62478975D01*
X192349955Y-62611833D01*
X192570889Y-62703347D01*
X192805431Y-62750000D01*
X193044569Y-62750000D01*
X193279111Y-62703347D01*
X193500045Y-62611833D01*
X193698880Y-62478975D01*
X193867975Y-62309880D01*
X194000833Y-62111045D01*
X194092347Y-61890111D01*
X194139000Y-61655569D01*
X194139000Y-61416431D01*
X199649000Y-61416431D01*
X199649000Y-61655569D01*
X199695653Y-61890111D01*
X199787167Y-62111045D01*
X199920025Y-62309880D01*
X200089120Y-62478975D01*
X200287955Y-62611833D01*
X200508889Y-62703347D01*
X200743431Y-62750000D01*
X200982569Y-62750000D01*
X201217111Y-62703347D01*
X201438045Y-62611833D01*
X201636880Y-62478975D01*
X201805975Y-62309880D01*
X201815249Y-62296000D01*
X206740289Y-62296000D01*
X206696063Y-62340226D01*
X206582795Y-62509744D01*
X206504774Y-62698102D01*
X206465000Y-62898061D01*
X206465000Y-62960198D01*
X203569199Y-65856000D01*
X201815249Y-65856000D01*
X201805975Y-65842120D01*
X201636880Y-65673025D01*
X201438045Y-65540167D01*
X201217111Y-65448653D01*
X200982569Y-65402000D01*
X200743431Y-65402000D01*
X200508889Y-65448653D01*
X200287955Y-65540167D01*
X200089120Y-65673025D01*
X199920025Y-65842120D01*
X199787167Y-66040955D01*
X199695653Y-66261889D01*
X199649000Y-66496431D01*
X199649000Y-66735569D01*
X199695653Y-66970111D01*
X199787167Y-67191045D01*
X199920025Y-67389880D01*
X200089120Y-67558975D01*
X200287955Y-67691833D01*
X200508889Y-67783347D01*
X200743431Y-67830000D01*
X200982569Y-67830000D01*
X201217111Y-67783347D01*
X201438045Y-67691833D01*
X201636880Y-67558975D01*
X201805975Y-67389880D01*
X201815249Y-67376000D01*
X203846678Y-67376000D01*
X203884000Y-67379676D01*
X203921322Y-67376000D01*
X203921333Y-67376000D01*
X204032986Y-67365003D01*
X204176247Y-67321546D01*
X204308276Y-67250974D01*
X204424001Y-67156001D01*
X204447804Y-67126997D01*
X207539802Y-64035000D01*
X207601939Y-64035000D01*
X207801898Y-63995226D01*
X207990256Y-63917205D01*
X208159774Y-63803937D01*
X208303937Y-63659774D01*
X208417205Y-63490256D01*
X208495226Y-63301898D01*
X208535000Y-63101939D01*
X208535000Y-63035000D01*
X208601939Y-63035000D01*
X208775715Y-63000434D01*
X213853876Y-63000434D01*
X213884856Y-63128355D01*
X214013990Y-63422761D01*
X214198078Y-63686317D01*
X214430046Y-63908895D01*
X214700980Y-64081942D01*
X215000468Y-64198807D01*
X215317000Y-64255000D01*
X215817000Y-64255000D01*
X215817000Y-62747000D01*
X216071000Y-62747000D01*
X216071000Y-64255000D01*
X216571000Y-64255000D01*
X216887532Y-64198807D01*
X217187020Y-64081942D01*
X217457954Y-63908895D01*
X217689922Y-63686317D01*
X217874010Y-63422761D01*
X218003144Y-63128355D01*
X218034124Y-63000434D01*
X217914777Y-62747000D01*
X216071000Y-62747000D01*
X215817000Y-62747000D01*
X213973223Y-62747000D01*
X213853876Y-63000434D01*
X208775715Y-63000434D01*
X208801898Y-62995226D01*
X208990256Y-62917205D01*
X209159774Y-62803937D01*
X209303937Y-62659774D01*
X209417205Y-62490256D01*
X209495226Y-62301898D01*
X209507624Y-62239566D01*
X213853876Y-62239566D01*
X213973223Y-62493000D01*
X215817000Y-62493000D01*
X215817000Y-60985000D01*
X216071000Y-60985000D01*
X216071000Y-62493000D01*
X217914777Y-62493000D01*
X218034124Y-62239566D01*
X218003144Y-62111645D01*
X217874010Y-61817239D01*
X217689922Y-61553683D01*
X217457954Y-61331105D01*
X217187020Y-61158058D01*
X216887532Y-61041193D01*
X216571000Y-60985000D01*
X216071000Y-60985000D01*
X215817000Y-60985000D01*
X215317000Y-60985000D01*
X215000468Y-61041193D01*
X214700980Y-61158058D01*
X214430046Y-61331105D01*
X214198078Y-61553683D01*
X214013990Y-61817239D01*
X213884856Y-62111645D01*
X213853876Y-62239566D01*
X209507624Y-62239566D01*
X209535000Y-62101939D01*
X209535000Y-61898061D01*
X209495226Y-61698102D01*
X209417205Y-61509744D01*
X209303937Y-61340226D01*
X209159774Y-61196063D01*
X208990256Y-61082795D01*
X208801898Y-61004774D01*
X208601939Y-60965000D01*
X208538229Y-60965000D01*
X208460276Y-60901026D01*
X208328247Y-60830454D01*
X208184986Y-60786997D01*
X208073333Y-60776000D01*
X208073322Y-60776000D01*
X208036000Y-60772324D01*
X207998678Y-60776000D01*
X207210184Y-60776000D01*
X207225812Y-60724482D01*
X207238072Y-60600000D01*
X207238072Y-59400000D01*
X207225812Y-59275518D01*
X207189502Y-59155820D01*
X207130537Y-59045506D01*
X207116432Y-59028319D01*
X207174237Y-58901484D01*
X207230000Y-58664687D01*
X207238495Y-58421562D01*
X207199395Y-58181451D01*
X207114202Y-57953582D01*
X207073348Y-57877148D01*
X206849764Y-57829841D01*
X206179605Y-58500000D01*
X206193748Y-58514143D01*
X206014143Y-58693748D01*
X206000000Y-58679605D01*
X205985858Y-58693748D01*
X205806253Y-58514143D01*
X205820395Y-58500000D01*
X205150236Y-57829841D01*
X204926652Y-57877148D01*
X204825763Y-58098516D01*
X204770000Y-58335313D01*
X204761505Y-58578438D01*
X204800605Y-58818549D01*
X204880451Y-59032117D01*
X204869463Y-59045506D01*
X204810498Y-59155820D01*
X204774188Y-59275518D01*
X204761928Y-59400000D01*
X204761928Y-60600000D01*
X204774188Y-60724482D01*
X204789816Y-60776000D01*
X201815249Y-60776000D01*
X201805975Y-60762120D01*
X201636880Y-60593025D01*
X201438045Y-60460167D01*
X201217111Y-60368653D01*
X200982569Y-60322000D01*
X200743431Y-60322000D01*
X200508889Y-60368653D01*
X200287955Y-60460167D01*
X200089120Y-60593025D01*
X199920025Y-60762120D01*
X199787167Y-60960955D01*
X199695653Y-61181889D01*
X199649000Y-61416431D01*
X194139000Y-61416431D01*
X194092347Y-61181889D01*
X194000833Y-60960955D01*
X193867975Y-60762120D01*
X193698880Y-60593025D01*
X193500045Y-60460167D01*
X193279111Y-60368653D01*
X193044569Y-60322000D01*
X192805431Y-60322000D01*
X192570889Y-60368653D01*
X192349955Y-60460167D01*
X192151120Y-60593025D01*
X191982025Y-60762120D01*
X191849167Y-60960955D01*
X191757653Y-61181889D01*
X191711000Y-61416431D01*
X190135189Y-61416431D01*
X190188759Y-61380637D01*
X190388637Y-61180759D01*
X190545680Y-60945727D01*
X190653853Y-60684574D01*
X190709000Y-60407335D01*
X190709000Y-60124665D01*
X190653853Y-59847426D01*
X190545680Y-59586273D01*
X190388637Y-59351241D01*
X190188759Y-59151363D01*
X189956241Y-58996000D01*
X190135189Y-58876431D01*
X191711000Y-58876431D01*
X191711000Y-59115569D01*
X191757653Y-59350111D01*
X191849167Y-59571045D01*
X191982025Y-59769880D01*
X192151120Y-59938975D01*
X192349955Y-60071833D01*
X192570889Y-60163347D01*
X192805431Y-60210000D01*
X193044569Y-60210000D01*
X193279111Y-60163347D01*
X193500045Y-60071833D01*
X193698880Y-59938975D01*
X193867975Y-59769880D01*
X194000833Y-59571045D01*
X194092347Y-59350111D01*
X194139000Y-59115569D01*
X194139000Y-58876431D01*
X199649000Y-58876431D01*
X199649000Y-59115569D01*
X199695653Y-59350111D01*
X199787167Y-59571045D01*
X199920025Y-59769880D01*
X200089120Y-59938975D01*
X200287955Y-60071833D01*
X200508889Y-60163347D01*
X200743431Y-60210000D01*
X200982569Y-60210000D01*
X201217111Y-60163347D01*
X201438045Y-60071833D01*
X201636880Y-59938975D01*
X201805975Y-59769880D01*
X201938833Y-59571045D01*
X202030347Y-59350111D01*
X202077000Y-59115569D01*
X202077000Y-58876431D01*
X202030347Y-58641889D01*
X201938833Y-58420955D01*
X201805975Y-58222120D01*
X201636880Y-58053025D01*
X201438045Y-57920167D01*
X201217111Y-57828653D01*
X200982569Y-57782000D01*
X200743431Y-57782000D01*
X200508889Y-57828653D01*
X200287955Y-57920167D01*
X200089120Y-58053025D01*
X199920025Y-58222120D01*
X199787167Y-58420955D01*
X199695653Y-58641889D01*
X199649000Y-58876431D01*
X194139000Y-58876431D01*
X194092347Y-58641889D01*
X194000833Y-58420955D01*
X193867975Y-58222120D01*
X193698880Y-58053025D01*
X193500045Y-57920167D01*
X193279111Y-57828653D01*
X193044569Y-57782000D01*
X192805431Y-57782000D01*
X192570889Y-57828653D01*
X192349955Y-57920167D01*
X192151120Y-58053025D01*
X191982025Y-58222120D01*
X191849167Y-58420955D01*
X191757653Y-58641889D01*
X191711000Y-58876431D01*
X190135189Y-58876431D01*
X190188759Y-58840637D01*
X190388637Y-58640759D01*
X190545680Y-58405727D01*
X190653853Y-58144574D01*
X190709000Y-57867335D01*
X190709000Y-57584665D01*
X190653853Y-57307426D01*
X190545680Y-57046273D01*
X190388637Y-56811241D01*
X190188759Y-56611363D01*
X189953727Y-56454320D01*
X189692574Y-56346147D01*
X189643730Y-56336431D01*
X191711000Y-56336431D01*
X191711000Y-56575569D01*
X191757653Y-56810111D01*
X191849167Y-57031045D01*
X191982025Y-57229880D01*
X192151120Y-57398975D01*
X192349955Y-57531833D01*
X192570889Y-57623347D01*
X192805431Y-57670000D01*
X193044569Y-57670000D01*
X193279111Y-57623347D01*
X193500045Y-57531833D01*
X193698880Y-57398975D01*
X193867975Y-57229880D01*
X194000833Y-57031045D01*
X194092347Y-56810111D01*
X194139000Y-56575569D01*
X194139000Y-56336431D01*
X199649000Y-56336431D01*
X199649000Y-56575569D01*
X199695653Y-56810111D01*
X199787167Y-57031045D01*
X199920025Y-57229880D01*
X200089120Y-57398975D01*
X200287955Y-57531833D01*
X200508889Y-57623347D01*
X200743431Y-57670000D01*
X200982569Y-57670000D01*
X201081929Y-57650236D01*
X205329841Y-57650236D01*
X206000000Y-58320395D01*
X206670159Y-57650236D01*
X206622852Y-57426652D01*
X206401484Y-57325763D01*
X206164687Y-57270000D01*
X205921562Y-57261505D01*
X205681451Y-57300605D01*
X205453582Y-57385798D01*
X205377148Y-57426652D01*
X205329841Y-57650236D01*
X201081929Y-57650236D01*
X201217111Y-57623347D01*
X201438045Y-57531833D01*
X201636880Y-57398975D01*
X201805975Y-57229880D01*
X201938833Y-57031045D01*
X202030347Y-56810111D01*
X202077000Y-56575569D01*
X202077000Y-56336431D01*
X202030347Y-56101889D01*
X201938833Y-55880955D01*
X201805975Y-55682120D01*
X201636880Y-55513025D01*
X201438045Y-55380167D01*
X201217111Y-55288653D01*
X200982569Y-55242000D01*
X200743431Y-55242000D01*
X200508889Y-55288653D01*
X200287955Y-55380167D01*
X200089120Y-55513025D01*
X199920025Y-55682120D01*
X199787167Y-55880955D01*
X199695653Y-56101889D01*
X199649000Y-56336431D01*
X194139000Y-56336431D01*
X194092347Y-56101889D01*
X194000833Y-55880955D01*
X193867975Y-55682120D01*
X193698880Y-55513025D01*
X193500045Y-55380167D01*
X193279111Y-55288653D01*
X193044569Y-55242000D01*
X192805431Y-55242000D01*
X192570889Y-55288653D01*
X192349955Y-55380167D01*
X192151120Y-55513025D01*
X191982025Y-55682120D01*
X191849167Y-55880955D01*
X191757653Y-56101889D01*
X191711000Y-56336431D01*
X189643730Y-56336431D01*
X189415335Y-56291000D01*
X189132665Y-56291000D01*
X188855426Y-56346147D01*
X188594273Y-56454320D01*
X188359241Y-56611363D01*
X188159363Y-56811241D01*
X188002320Y-57046273D01*
X187894147Y-57307426D01*
X187839000Y-57584665D01*
X187839000Y-57867335D01*
X187883234Y-58089712D01*
X187859001Y-58087325D01*
X187821679Y-58091001D01*
X183092072Y-58091001D01*
X183092072Y-56926000D01*
X183079812Y-56801518D01*
X183043502Y-56681820D01*
X182984537Y-56571506D01*
X182905185Y-56474815D01*
X182808494Y-56395463D01*
X182698180Y-56336498D01*
X182578482Y-56300188D01*
X182454000Y-56287928D01*
X180854000Y-56287928D01*
X180729518Y-56300188D01*
X180609820Y-56336498D01*
X180499506Y-56395463D01*
X180402815Y-56474815D01*
X180323463Y-56571506D01*
X180264498Y-56681820D01*
X180228188Y-56801518D01*
X180215928Y-56926000D01*
X180215928Y-57398128D01*
X178760000Y-55942201D01*
X178760000Y-55203711D01*
X178803937Y-55159774D01*
X178917205Y-54990256D01*
X178995226Y-54801898D01*
X179035000Y-54601939D01*
X179035000Y-54398061D01*
X178995226Y-54198102D01*
X178917205Y-54009744D01*
X178803937Y-53840226D01*
X178738376Y-53774665D01*
X180219000Y-53774665D01*
X180219000Y-54057335D01*
X180274147Y-54334574D01*
X180382320Y-54595727D01*
X180539363Y-54830759D01*
X180739241Y-55030637D01*
X180974273Y-55187680D01*
X181235426Y-55295853D01*
X181512665Y-55351000D01*
X181795335Y-55351000D01*
X182072574Y-55295853D01*
X182333727Y-55187680D01*
X182568759Y-55030637D01*
X182768637Y-54830759D01*
X182925680Y-54595727D01*
X183033853Y-54334574D01*
X183089000Y-54057335D01*
X183089000Y-53774665D01*
X187839000Y-53774665D01*
X187839000Y-54057335D01*
X187894147Y-54334574D01*
X188002320Y-54595727D01*
X188159363Y-54830759D01*
X188359241Y-55030637D01*
X188594273Y-55187680D01*
X188855426Y-55295853D01*
X189132665Y-55351000D01*
X189415335Y-55351000D01*
X189692574Y-55295853D01*
X189953727Y-55187680D01*
X190188759Y-55030637D01*
X190388637Y-54830759D01*
X190545680Y-54595727D01*
X190653853Y-54334574D01*
X190709000Y-54057335D01*
X190709000Y-53774665D01*
X190653853Y-53497426D01*
X190587403Y-53337000D01*
X191707928Y-53337000D01*
X191707928Y-54495000D01*
X191720188Y-54619482D01*
X191756498Y-54739180D01*
X191815463Y-54849494D01*
X191894815Y-54946185D01*
X191991506Y-55025537D01*
X192101820Y-55084502D01*
X192221518Y-55120812D01*
X192346000Y-55133072D01*
X193504000Y-55133072D01*
X193628482Y-55120812D01*
X193748180Y-55084502D01*
X193858494Y-55025537D01*
X193955185Y-54946185D01*
X194034537Y-54849494D01*
X194093502Y-54739180D01*
X194129812Y-54619482D01*
X194142072Y-54495000D01*
X194142072Y-53796431D01*
X199649000Y-53796431D01*
X199649000Y-54035569D01*
X199695653Y-54270111D01*
X199787167Y-54491045D01*
X199920025Y-54689880D01*
X200089120Y-54858975D01*
X200287955Y-54991833D01*
X200508889Y-55083347D01*
X200743431Y-55130000D01*
X200982569Y-55130000D01*
X201217111Y-55083347D01*
X201418328Y-55000000D01*
X213801089Y-55000000D01*
X213832657Y-55320516D01*
X213926148Y-55628715D01*
X214077969Y-55912752D01*
X214282286Y-56161714D01*
X214531248Y-56366031D01*
X214815285Y-56517852D01*
X215059000Y-56591782D01*
X215059001Y-58567188D01*
X215004774Y-58698102D01*
X214965000Y-58898061D01*
X214965000Y-59101939D01*
X215004774Y-59301898D01*
X215082795Y-59490256D01*
X215196063Y-59659774D01*
X215340226Y-59803937D01*
X215509744Y-59917205D01*
X215698102Y-59995226D01*
X215898061Y-60035000D01*
X216101939Y-60035000D01*
X216301898Y-59995226D01*
X216490256Y-59917205D01*
X216659774Y-59803937D01*
X216803937Y-59659774D01*
X216917205Y-59490256D01*
X216995226Y-59301898D01*
X217035000Y-59101939D01*
X217035000Y-58898061D01*
X216995226Y-58698102D01*
X216917205Y-58509744D01*
X216829000Y-58377736D01*
X216829000Y-56591782D01*
X217072715Y-56517852D01*
X217356752Y-56366031D01*
X217605714Y-56161714D01*
X217810031Y-55912752D01*
X217961852Y-55628715D01*
X218055343Y-55320516D01*
X218086911Y-55000000D01*
X218055343Y-54679484D01*
X217961852Y-54371285D01*
X217810031Y-54087248D01*
X217605714Y-53838286D01*
X217356752Y-53633969D01*
X217072715Y-53482148D01*
X216764516Y-53388657D01*
X216524322Y-53365000D01*
X215363678Y-53365000D01*
X215123484Y-53388657D01*
X214815285Y-53482148D01*
X214531248Y-53633969D01*
X214282286Y-53838286D01*
X214077969Y-54087248D01*
X213926148Y-54371285D01*
X213832657Y-54679484D01*
X213801089Y-55000000D01*
X201418328Y-55000000D01*
X201438045Y-54991833D01*
X201636880Y-54858975D01*
X201805975Y-54689880D01*
X201938833Y-54491045D01*
X202030347Y-54270111D01*
X202077000Y-54035569D01*
X202077000Y-53796431D01*
X202030347Y-53561889D01*
X201938833Y-53340955D01*
X201805975Y-53142120D01*
X201636880Y-52973025D01*
X201438045Y-52840167D01*
X201217111Y-52748653D01*
X200982569Y-52702000D01*
X200743431Y-52702000D01*
X200508889Y-52748653D01*
X200287955Y-52840167D01*
X200089120Y-52973025D01*
X199920025Y-53142120D01*
X199787167Y-53340955D01*
X199695653Y-53561889D01*
X199649000Y-53796431D01*
X194142072Y-53796431D01*
X194142072Y-53337000D01*
X194129812Y-53212518D01*
X194093502Y-53092820D01*
X194034537Y-52982506D01*
X193955185Y-52885815D01*
X193858494Y-52806463D01*
X193748180Y-52747498D01*
X193628482Y-52711188D01*
X193504000Y-52698928D01*
X192346000Y-52698928D01*
X192221518Y-52711188D01*
X192101820Y-52747498D01*
X191991506Y-52806463D01*
X191894815Y-52885815D01*
X191815463Y-52982506D01*
X191756498Y-53092820D01*
X191720188Y-53212518D01*
X191707928Y-53337000D01*
X190587403Y-53337000D01*
X190545680Y-53236273D01*
X190388637Y-53001241D01*
X190188759Y-52801363D01*
X189953727Y-52644320D01*
X189692574Y-52536147D01*
X189415335Y-52481000D01*
X189132665Y-52481000D01*
X188855426Y-52536147D01*
X188594273Y-52644320D01*
X188359241Y-52801363D01*
X188159363Y-53001241D01*
X188002320Y-53236273D01*
X187894147Y-53497426D01*
X187839000Y-53774665D01*
X183089000Y-53774665D01*
X183033853Y-53497426D01*
X182925680Y-53236273D01*
X182768637Y-53001241D01*
X182568759Y-52801363D01*
X182333727Y-52644320D01*
X182072574Y-52536147D01*
X181795335Y-52481000D01*
X181512665Y-52481000D01*
X181235426Y-52536147D01*
X180974273Y-52644320D01*
X180739241Y-52801363D01*
X180539363Y-53001241D01*
X180382320Y-53236273D01*
X180274147Y-53497426D01*
X180219000Y-53774665D01*
X178738376Y-53774665D01*
X178659774Y-53696063D01*
X178490256Y-53582795D01*
X178301898Y-53504774D01*
X178101939Y-53465000D01*
X177898061Y-53465000D01*
X177698102Y-53504774D01*
X177509744Y-53582795D01*
X177340226Y-53696063D01*
X177196063Y-53840226D01*
X177082795Y-54009744D01*
X177004774Y-54198102D01*
X176965000Y-54398061D01*
X176965000Y-54601939D01*
X177004774Y-54801898D01*
X177082795Y-54990256D01*
X177196063Y-55159774D01*
X177240001Y-55203712D01*
X177240000Y-56219679D01*
X177236324Y-56257002D01*
X177240000Y-56294324D01*
X177240000Y-56294334D01*
X177250997Y-56405987D01*
X177254341Y-56417012D01*
X177164273Y-56454320D01*
X176929241Y-56611363D01*
X176729363Y-56811241D01*
X176572320Y-57046273D01*
X176464147Y-57307426D01*
X176409000Y-57584665D01*
X170660000Y-57584665D01*
X170660000Y-55186000D01*
X171891089Y-55186000D01*
X171922657Y-55506516D01*
X172016148Y-55814715D01*
X172167969Y-56098752D01*
X172372286Y-56347714D01*
X172621248Y-56552031D01*
X172905285Y-56703852D01*
X173213484Y-56797343D01*
X173453678Y-56821000D01*
X174614322Y-56821000D01*
X174854516Y-56797343D01*
X175162715Y-56703852D01*
X175446752Y-56552031D01*
X175695714Y-56347714D01*
X175900031Y-56098752D01*
X176051852Y-55814715D01*
X176145343Y-55506516D01*
X176176911Y-55186000D01*
X176145343Y-54865484D01*
X176051852Y-54557285D01*
X175900031Y-54273248D01*
X175695714Y-54024286D01*
X175446752Y-53819969D01*
X175162715Y-53668148D01*
X174854516Y-53574657D01*
X174614322Y-53551000D01*
X173453678Y-53551000D01*
X173213484Y-53574657D01*
X172905285Y-53668148D01*
X172621248Y-53819969D01*
X172372286Y-54024286D01*
X172167969Y-54273248D01*
X172016148Y-54557285D01*
X171922657Y-54865484D01*
X171891089Y-55186000D01*
X170660000Y-55186000D01*
X170660000Y-50660000D01*
X219340000Y-50660000D01*
X219340001Y-89340000D01*
G37*
%TD.AperFunction*%
%TD*%
M02*
