M48
; DRILL file {KiCad (5.1.9-0-10_14)} date Thursday, April 15, 2021 at 05:53:08 PM
; FORMAT={-:-/ absolute / inch / decimal}
; #@! TF.CreationDate,2021-04-15T17:53:08+09:00
; #@! TF.GenerationSoftware,Kicad,Pcbnew,(5.1.9-0-10_14)
; #@! TF.FileFunction,Plated,1,2,PTH
FMAT,2
INCH
T1C0.0157
T2C0.0236
T3C0.0298
T4C0.0300
T5C0.0315
T6C0.0394
T7C0.0433
%
G90
G05
T1
X6.7717Y-2.3819
X7.0079Y-2.1457
X8.1693Y-2.4803
X8.2087Y-2.4409
X8.3465Y-2.874
X8.5039Y-2.3228
T2
X7.3622Y-3.0118
X7.3622Y-3.0709
X8.1102Y-2.3031
X8.1102Y-2.3622
X8.1496Y-2.9921
X8.1496Y-3.0512
T3
X7.5955Y-2.1227
X7.5955Y-2.2227
X7.5955Y-2.3227
X7.5955Y-2.4227
X7.5955Y-2.5227
X7.5955Y-2.6227
X7.5955Y-2.7227
X7.5955Y-2.8227
X7.5955Y-2.9227
X7.5955Y-3.0227
X7.5955Y-3.1227
X7.5955Y-3.2227
X7.5955Y-3.3227
X7.5955Y-3.4227
X7.908Y-2.1227
X7.908Y-2.2227
X7.908Y-2.3227
X7.908Y-2.4227
X7.908Y-2.5227
X7.908Y-2.6227
X7.908Y-2.7227
X7.908Y-2.8227
X7.908Y-2.9227
X7.908Y-3.0227
X7.908Y-3.1227
X7.908Y-3.2227
X7.908Y-3.3227
X7.908Y-3.4227
T4
X8.5039Y-3.2427
X8.5039Y-3.3427
X8.5039Y-3.4427
T5
X7.0017Y-2.2727
X7.0017Y-2.5727
X7.0017Y-3.1227
X7.0017Y-3.4227
X7.1517Y-2.1227
X7.1517Y-2.2727
X7.1517Y-2.3727
X7.1517Y-2.4727
X7.1517Y-2.5727
X7.4517Y-2.1227
X7.4517Y-2.2727
X7.4517Y-2.3727
X7.4517Y-2.4727
X7.4517Y-2.5727
X8.3617Y-2.7227
X8.3617Y-3.0227
T6
X7.0017Y-2.7727
X7.0017Y-2.9695
X7.2517Y-2.7727
X7.4486Y-2.7727
T7
X7.2017Y-3.2227
X7.2017Y-3.3998
X7.4576Y-3.2227
X7.4576Y-3.3998
X8.0458Y-3.2455
X8.0458Y-3.4227
X8.3017Y-3.2455
X8.3017Y-3.4227
T0
M30
